%TF.GenerationSoftware,KiCad,Pcbnew,7.0.2*%
%TF.CreationDate,2023-06-15T14:11:53-05:00*%
%TF.ProjectId,Capsule,43617073-756c-4652-9e6b-696361645f70,1.0*%
%TF.SameCoordinates,Original*%
%TF.FileFunction,Drillmap*%
%TF.FilePolarity,Positive*%
%FSLAX45Y45*%
G04 Gerber Fmt 4.5, Leading zero omitted, Abs format (unit mm)*
G04 Created by KiCad (PCBNEW 7.0.2) date 2023-06-15 14:11:53*
%MOMM*%
%LPD*%
G01*
G04 APERTURE LIST*
%ADD10C,0.150000*%
%ADD11C,0.200000*%
%ADD12C,0.030000*%
%ADD13C,0.100000*%
%ADD14C,0.120000*%
G04 APERTURE END LIST*
D10*
X22500000Y-7160000D02*
G75*
G03*
X22550000Y-7110000I0J50000D01*
G01*
X22500000Y-1960000D02*
X13140000Y-1960000D01*
X11920000Y-1980000D02*
X11920000Y-2025000D01*
X11920000Y-1980000D02*
G75*
G03*
X11900000Y-1960000I-20000J0D01*
G01*
X13140000Y-1960000D02*
G75*
G03*
X13120000Y-1980000I0J-20000D01*
G01*
X22550000Y-2010000D02*
G75*
G03*
X22500000Y-1960000I-50000J0D01*
G01*
X2400000Y-1960000D02*
G75*
G03*
X2350000Y-2010000I0J-50000D01*
G01*
X22550000Y-7110000D02*
X22550000Y-2010000D01*
X2350000Y-7110000D02*
G75*
G03*
X2400000Y-7160000I50000J0D01*
G01*
X13120000Y-2025000D02*
X13120000Y-1980000D01*
X2400000Y-7160000D02*
X22500000Y-7160000D01*
X2350000Y-2010000D02*
X2350000Y-7110000D01*
X2400000Y-1960000D02*
X11900000Y-1960000D01*
D11*
D12*
X2835000Y-3645000D02*
X2865000Y-3675000D01*
X2865000Y-3645000D02*
X2835000Y-3675000D01*
X4535000Y-3745000D02*
X4565000Y-3775000D01*
X4565000Y-3745000D02*
X4535000Y-3775000D01*
X6235000Y-3845000D02*
X6265000Y-3875000D01*
X6265000Y-3845000D02*
X6235000Y-3875000D01*
X7935000Y-5325000D02*
X7965000Y-5355000D01*
X7965000Y-5325000D02*
X7935000Y-5355000D01*
X9635000Y-5425000D02*
X9665000Y-5455000D01*
X9665000Y-5425000D02*
X9635000Y-5455000D01*
X10965000Y-5325000D02*
X10995000Y-5355000D01*
X10995000Y-5325000D02*
X10965000Y-5355000D01*
X11045000Y-5425000D02*
X11075000Y-5455000D01*
X11075000Y-5425000D02*
X11045000Y-5455000D01*
X11205000Y-6045000D02*
X11235000Y-6075000D01*
X11235000Y-6045000D02*
X11205000Y-6075000D01*
X13205000Y-6285000D02*
X13235000Y-6315000D01*
X13235000Y-6285000D02*
X13205000Y-6315000D01*
X13425000Y-6035000D02*
X13455000Y-6065000D01*
X13455000Y-6035000D02*
X13425000Y-6065000D01*
X14435000Y-4305000D02*
X14465000Y-4335000D01*
X14465000Y-4305000D02*
X14435000Y-4335000D01*
X16135000Y-4205000D02*
X16165000Y-4235000D01*
X16165000Y-4205000D02*
X16135000Y-4235000D01*
X17835000Y-3867650D02*
X17865000Y-3897650D01*
X17865000Y-3867650D02*
X17835000Y-3897650D01*
X19535000Y-3805000D02*
X19565000Y-3835000D01*
X19565000Y-3805000D02*
X19535000Y-3835000D01*
X21235000Y-3705000D02*
X21265000Y-3735000D01*
X21265000Y-3705000D02*
X21235000Y-3735000D01*
X3615000Y-2230000D02*
G75*
G03*
X3615000Y-2230000I-15000J0D01*
G01*
X3615000Y-3930000D02*
G75*
G03*
X3615000Y-3930000I-15000J0D01*
G01*
X3615000Y-5630000D02*
G75*
G03*
X3615000Y-5630000I-15000J0D01*
G01*
X5315000Y-2230000D02*
G75*
G03*
X5315000Y-2230000I-15000J0D01*
G01*
X5315000Y-3930000D02*
G75*
G03*
X5315000Y-3930000I-15000J0D01*
G01*
X5315000Y-5630000D02*
G75*
G03*
X5315000Y-5630000I-15000J0D01*
G01*
X7015000Y-2230000D02*
G75*
G03*
X7015000Y-2230000I-15000J0D01*
G01*
X7015000Y-3930000D02*
G75*
G03*
X7015000Y-3930000I-15000J0D01*
G01*
X7015000Y-5630000D02*
G75*
G03*
X7015000Y-5630000I-15000J0D01*
G01*
X8715000Y-2230000D02*
G75*
G03*
X8715000Y-2230000I-15000J0D01*
G01*
X8715000Y-3930000D02*
G75*
G03*
X8715000Y-3930000I-15000J0D01*
G01*
X8715000Y-5630000D02*
G75*
G03*
X8715000Y-5630000I-15000J0D01*
G01*
X10415000Y-2230000D02*
G75*
G03*
X10415000Y-2230000I-15000J0D01*
G01*
X10415000Y-3930000D02*
G75*
G03*
X10415000Y-3930000I-15000J0D01*
G01*
X10415000Y-5630000D02*
G75*
G03*
X10415000Y-5630000I-15000J0D01*
G01*
X15235000Y-2250000D02*
G75*
G03*
X15235000Y-2250000I-15000J0D01*
G01*
X15235000Y-3950000D02*
G75*
G03*
X15235000Y-3950000I-15000J0D01*
G01*
X15235000Y-5650000D02*
G75*
G03*
X15235000Y-5650000I-15000J0D01*
G01*
X16935000Y-2250000D02*
G75*
G03*
X16935000Y-2250000I-15000J0D01*
G01*
X16935000Y-3950000D02*
G75*
G03*
X16935000Y-3950000I-15000J0D01*
G01*
X16935000Y-5650000D02*
G75*
G03*
X16935000Y-5650000I-15000J0D01*
G01*
X18635000Y-2250000D02*
G75*
G03*
X18635000Y-2250000I-15000J0D01*
G01*
X18635000Y-3950000D02*
G75*
G03*
X18635000Y-3950000I-15000J0D01*
G01*
X18635000Y-5650000D02*
G75*
G03*
X18635000Y-5650000I-15000J0D01*
G01*
X20335000Y-2250000D02*
G75*
G03*
X20335000Y-2250000I-15000J0D01*
G01*
X20335000Y-3950000D02*
G75*
G03*
X20335000Y-3950000I-15000J0D01*
G01*
X20335000Y-5650000D02*
G75*
G03*
X20335000Y-5650000I-15000J0D01*
G01*
X22035000Y-2250000D02*
G75*
G03*
X22035000Y-2250000I-15000J0D01*
G01*
X22035000Y-3950000D02*
G75*
G03*
X22035000Y-3950000I-15000J0D01*
G01*
X22035000Y-5650000D02*
G75*
G03*
X22035000Y-5650000I-15000J0D01*
G01*
D13*
X11758000Y-2134000D02*
X11758000Y-2234000D01*
X11708000Y-2184000D02*
X11808000Y-2184000D01*
X11758000Y-2388000D02*
X11758000Y-2488000D01*
X11708000Y-2438000D02*
X11808000Y-2438000D01*
X11758000Y-2642000D02*
X11758000Y-2742000D01*
X11708000Y-2692000D02*
X11808000Y-2692000D01*
X11758000Y-2896000D02*
X11758000Y-2996000D01*
X11708000Y-2946000D02*
X11808000Y-2946000D01*
X11758000Y-3150000D02*
X11758000Y-3250000D01*
X11708000Y-3200000D02*
X11808000Y-3200000D01*
X11758000Y-3404000D02*
X11758000Y-3504000D01*
X11708000Y-3454000D02*
X11808000Y-3454000D01*
X11758000Y-3658000D02*
X11758000Y-3758000D01*
X11708000Y-3708000D02*
X11808000Y-3708000D01*
X11758000Y-3912000D02*
X11758000Y-4012000D01*
X11708000Y-3962000D02*
X11808000Y-3962000D01*
X11758000Y-4166000D02*
X11758000Y-4266000D01*
X11708000Y-4216000D02*
X11808000Y-4216000D01*
X11946000Y-6000000D02*
X11946000Y-6100000D01*
X11896000Y-6050000D02*
X11996000Y-6050000D01*
X12012000Y-4166000D02*
X12012000Y-4266000D01*
X11962000Y-4216000D02*
X12062000Y-4216000D01*
X12200000Y-6000000D02*
X12200000Y-6100000D01*
X12150000Y-6050000D02*
X12250000Y-6050000D01*
X12266000Y-4166000D02*
X12266000Y-4266000D01*
X12216000Y-4216000D02*
X12316000Y-4216000D01*
X12454000Y-6000000D02*
X12454000Y-6100000D01*
X12404000Y-6050000D02*
X12504000Y-6050000D01*
X12520000Y-4166000D02*
X12520000Y-4266000D01*
X12470000Y-4216000D02*
X12570000Y-4216000D01*
X12708000Y-6000000D02*
X12708000Y-6100000D01*
X12658000Y-6050000D02*
X12758000Y-6050000D01*
X12774000Y-4166000D02*
X12774000Y-4266000D01*
X12724000Y-4216000D02*
X12824000Y-4216000D01*
X12962000Y-6000000D02*
X12962000Y-6100000D01*
X12912000Y-6050000D02*
X13012000Y-6050000D01*
X13028000Y-4166000D02*
X13028000Y-4266000D01*
X12978000Y-4216000D02*
X13078000Y-4216000D01*
X13282000Y-2134000D02*
X13282000Y-2234000D01*
X13232000Y-2184000D02*
X13332000Y-2184000D01*
X13282000Y-2388000D02*
X13282000Y-2488000D01*
X13232000Y-2438000D02*
X13332000Y-2438000D01*
X13282000Y-2642000D02*
X13282000Y-2742000D01*
X13232000Y-2692000D02*
X13332000Y-2692000D01*
X13282000Y-2896000D02*
X13282000Y-2996000D01*
X13232000Y-2946000D02*
X13332000Y-2946000D01*
X13282000Y-3150000D02*
X13282000Y-3250000D01*
X13232000Y-3200000D02*
X13332000Y-3200000D01*
X13282000Y-3404000D02*
X13282000Y-3504000D01*
X13232000Y-3454000D02*
X13332000Y-3454000D01*
X13282000Y-3658000D02*
X13282000Y-3758000D01*
X13232000Y-3708000D02*
X13332000Y-3708000D01*
X13282000Y-3912000D02*
X13282000Y-4012000D01*
X13232000Y-3962000D02*
X13332000Y-3962000D01*
X13282000Y-4166000D02*
X13282000Y-4266000D01*
X13232000Y-4216000D02*
X13332000Y-4216000D01*
D14*
X2792427Y-3282427D02*
X2792427Y-3197573D01*
X2707573Y-3197573D01*
X2707573Y-3282427D01*
X2792427Y-3282427D01*
X2792427Y-4982427D02*
X2792427Y-4897573D01*
X2707573Y-4897573D01*
X2707573Y-4982427D01*
X2792427Y-4982427D01*
X2792427Y-6682427D02*
X2792427Y-6597573D01*
X2707573Y-6597573D01*
X2707573Y-6682427D01*
X2792427Y-6682427D01*
X3292427Y-3492427D02*
X3292427Y-3407573D01*
X3207573Y-3407573D01*
X3207573Y-3492427D01*
X3292427Y-3492427D01*
X3292427Y-5192427D02*
X3292427Y-5107573D01*
X3207573Y-5107573D01*
X3207573Y-5192427D01*
X3292427Y-5192427D01*
X3292427Y-6892427D02*
X3292427Y-6807573D01*
X3207573Y-6807573D01*
X3207573Y-6892427D01*
X3292427Y-6892427D01*
X4492427Y-3282427D02*
X4492427Y-3197573D01*
X4407573Y-3197573D01*
X4407573Y-3282427D01*
X4492427Y-3282427D01*
X4492427Y-4982427D02*
X4492427Y-4897573D01*
X4407573Y-4897573D01*
X4407573Y-4982427D01*
X4492427Y-4982427D01*
X4492427Y-6682427D02*
X4492427Y-6597573D01*
X4407573Y-6597573D01*
X4407573Y-6682427D01*
X4492427Y-6682427D01*
X4992427Y-3492427D02*
X4992427Y-3407573D01*
X4907573Y-3407573D01*
X4907573Y-3492427D01*
X4992427Y-3492427D01*
X4992427Y-5192427D02*
X4992427Y-5107573D01*
X4907573Y-5107573D01*
X4907573Y-5192427D01*
X4992427Y-5192427D01*
X4992427Y-6892427D02*
X4992427Y-6807573D01*
X4907573Y-6807573D01*
X4907573Y-6892427D01*
X4992427Y-6892427D01*
X6192427Y-3282427D02*
X6192427Y-3197573D01*
X6107573Y-3197573D01*
X6107573Y-3282427D01*
X6192427Y-3282427D01*
X6192427Y-4982427D02*
X6192427Y-4897573D01*
X6107573Y-4897573D01*
X6107573Y-4982427D01*
X6192427Y-4982427D01*
X6192427Y-6682427D02*
X6192427Y-6597573D01*
X6107573Y-6597573D01*
X6107573Y-6682427D01*
X6192427Y-6682427D01*
X6692427Y-3492427D02*
X6692427Y-3407573D01*
X6607573Y-3407573D01*
X6607573Y-3492427D01*
X6692427Y-3492427D01*
X6692427Y-5192427D02*
X6692427Y-5107573D01*
X6607573Y-5107573D01*
X6607573Y-5192427D01*
X6692427Y-5192427D01*
X6692427Y-6892427D02*
X6692427Y-6807573D01*
X6607573Y-6807573D01*
X6607573Y-6892427D01*
X6692427Y-6892427D01*
X7892427Y-3282427D02*
X7892427Y-3197573D01*
X7807573Y-3197573D01*
X7807573Y-3282427D01*
X7892427Y-3282427D01*
X7892427Y-4982427D02*
X7892427Y-4897573D01*
X7807573Y-4897573D01*
X7807573Y-4982427D01*
X7892427Y-4982427D01*
X7892427Y-6682427D02*
X7892427Y-6597573D01*
X7807573Y-6597573D01*
X7807573Y-6682427D01*
X7892427Y-6682427D01*
X8392427Y-3492427D02*
X8392427Y-3407573D01*
X8307573Y-3407573D01*
X8307573Y-3492427D01*
X8392427Y-3492427D01*
X8392427Y-5192427D02*
X8392427Y-5107573D01*
X8307573Y-5107573D01*
X8307573Y-5192427D01*
X8392427Y-5192427D01*
X8392427Y-6892427D02*
X8392427Y-6807573D01*
X8307573Y-6807573D01*
X8307573Y-6892427D01*
X8392427Y-6892427D01*
X9592427Y-3282427D02*
X9592427Y-3197573D01*
X9507573Y-3197573D01*
X9507573Y-3282427D01*
X9592427Y-3282427D01*
X9592427Y-4982427D02*
X9592427Y-4897573D01*
X9507573Y-4897573D01*
X9507573Y-4982427D01*
X9592427Y-4982427D01*
X9592427Y-6682427D02*
X9592427Y-6597573D01*
X9507573Y-6597573D01*
X9507573Y-6682427D01*
X9592427Y-6682427D01*
X10092427Y-3492427D02*
X10092427Y-3407573D01*
X10007573Y-3407573D01*
X10007573Y-3492427D01*
X10092427Y-3492427D01*
X10092427Y-5192427D02*
X10092427Y-5107573D01*
X10007573Y-5107573D01*
X10007573Y-5192427D01*
X10092427Y-5192427D01*
X10092427Y-6892427D02*
X10092427Y-6807573D01*
X10007573Y-6807573D01*
X10007573Y-6892427D01*
X10092427Y-6892427D01*
X14392427Y-3282427D02*
X14392427Y-3197573D01*
X14307573Y-3197573D01*
X14307573Y-3282427D01*
X14392427Y-3282427D01*
X14392427Y-4982427D02*
X14392427Y-4897573D01*
X14307573Y-4897573D01*
X14307573Y-4982427D01*
X14392427Y-4982427D01*
X14392427Y-6682427D02*
X14392427Y-6597573D01*
X14307573Y-6597573D01*
X14307573Y-6682427D01*
X14392427Y-6682427D01*
X14892427Y-3492427D02*
X14892427Y-3407573D01*
X14807573Y-3407573D01*
X14807573Y-3492427D01*
X14892427Y-3492427D01*
X14892427Y-5192427D02*
X14892427Y-5107573D01*
X14807573Y-5107573D01*
X14807573Y-5192427D01*
X14892427Y-5192427D01*
X14892427Y-6892427D02*
X14892427Y-6807573D01*
X14807573Y-6807573D01*
X14807573Y-6892427D01*
X14892427Y-6892427D01*
X16092427Y-3282427D02*
X16092427Y-3197573D01*
X16007573Y-3197573D01*
X16007573Y-3282427D01*
X16092427Y-3282427D01*
X16092427Y-4982427D02*
X16092427Y-4897573D01*
X16007573Y-4897573D01*
X16007573Y-4982427D01*
X16092427Y-4982427D01*
X16092427Y-6682427D02*
X16092427Y-6597573D01*
X16007573Y-6597573D01*
X16007573Y-6682427D01*
X16092427Y-6682427D01*
X16592427Y-3492427D02*
X16592427Y-3407573D01*
X16507573Y-3407573D01*
X16507573Y-3492427D01*
X16592427Y-3492427D01*
X16592427Y-5192427D02*
X16592427Y-5107573D01*
X16507573Y-5107573D01*
X16507573Y-5192427D01*
X16592427Y-5192427D01*
X16592427Y-6892427D02*
X16592427Y-6807573D01*
X16507573Y-6807573D01*
X16507573Y-6892427D01*
X16592427Y-6892427D01*
X17792427Y-3282427D02*
X17792427Y-3197573D01*
X17707573Y-3197573D01*
X17707573Y-3282427D01*
X17792427Y-3282427D01*
X17792427Y-4982427D02*
X17792427Y-4897573D01*
X17707573Y-4897573D01*
X17707573Y-4982427D01*
X17792427Y-4982427D01*
X17792427Y-6682427D02*
X17792427Y-6597573D01*
X17707573Y-6597573D01*
X17707573Y-6682427D01*
X17792427Y-6682427D01*
X18292427Y-3492427D02*
X18292427Y-3407573D01*
X18207573Y-3407573D01*
X18207573Y-3492427D01*
X18292427Y-3492427D01*
X18292427Y-5192427D02*
X18292427Y-5107573D01*
X18207573Y-5107573D01*
X18207573Y-5192427D01*
X18292427Y-5192427D01*
X18292427Y-6892427D02*
X18292427Y-6807573D01*
X18207573Y-6807573D01*
X18207573Y-6892427D01*
X18292427Y-6892427D01*
X19492427Y-3282427D02*
X19492427Y-3197573D01*
X19407573Y-3197573D01*
X19407573Y-3282427D01*
X19492427Y-3282427D01*
X19492427Y-4982427D02*
X19492427Y-4897573D01*
X19407573Y-4897573D01*
X19407573Y-4982427D01*
X19492427Y-4982427D01*
X19492427Y-6682427D02*
X19492427Y-6597573D01*
X19407573Y-6597573D01*
X19407573Y-6682427D01*
X19492427Y-6682427D01*
X19992427Y-3492427D02*
X19992427Y-3407573D01*
X19907573Y-3407573D01*
X19907573Y-3492427D01*
X19992427Y-3492427D01*
X19992427Y-5192427D02*
X19992427Y-5107573D01*
X19907573Y-5107573D01*
X19907573Y-5192427D01*
X19992427Y-5192427D01*
X19992427Y-6892427D02*
X19992427Y-6807573D01*
X19907573Y-6807573D01*
X19907573Y-6892427D01*
X19992427Y-6892427D01*
X21192427Y-3282427D02*
X21192427Y-3197573D01*
X21107573Y-3197573D01*
X21107573Y-3282427D01*
X21192427Y-3282427D01*
X21192427Y-4982427D02*
X21192427Y-4897573D01*
X21107573Y-4897573D01*
X21107573Y-4982427D01*
X21192427Y-4982427D01*
X21192427Y-6682427D02*
X21192427Y-6597573D01*
X21107573Y-6597573D01*
X21107573Y-6682427D01*
X21192427Y-6682427D01*
X21692427Y-3492427D02*
X21692427Y-3407573D01*
X21607573Y-3407573D01*
X21607573Y-3492427D01*
X21692427Y-3492427D01*
X21692427Y-5192427D02*
X21692427Y-5107573D01*
X21607573Y-5107573D01*
X21607573Y-5192427D01*
X21692427Y-5192427D01*
X21692427Y-6892427D02*
X21692427Y-6807573D01*
X21607573Y-6807573D01*
X21607573Y-6892427D01*
X21692427Y-6892427D01*
D11*
X2590119Y-7480024D02*
X2590119Y-7280024D01*
X2590119Y-7280024D02*
X2637738Y-7280024D01*
X2637738Y-7280024D02*
X2666310Y-7289548D01*
X2666310Y-7289548D02*
X2685357Y-7308595D01*
X2685357Y-7308595D02*
X2694881Y-7327643D01*
X2694881Y-7327643D02*
X2704405Y-7365738D01*
X2704405Y-7365738D02*
X2704405Y-7394309D01*
X2704405Y-7394309D02*
X2694881Y-7432405D01*
X2694881Y-7432405D02*
X2685357Y-7451452D01*
X2685357Y-7451452D02*
X2666310Y-7470500D01*
X2666310Y-7470500D02*
X2637738Y-7480024D01*
X2637738Y-7480024D02*
X2590119Y-7480024D01*
X2790119Y-7480024D02*
X2790119Y-7346690D01*
X2790119Y-7384786D02*
X2799643Y-7365738D01*
X2799643Y-7365738D02*
X2809167Y-7356214D01*
X2809167Y-7356214D02*
X2828214Y-7346690D01*
X2828214Y-7346690D02*
X2847262Y-7346690D01*
X2913928Y-7480024D02*
X2913928Y-7346690D01*
X2913928Y-7280024D02*
X2904405Y-7289548D01*
X2904405Y-7289548D02*
X2913928Y-7299071D01*
X2913928Y-7299071D02*
X2923452Y-7289548D01*
X2923452Y-7289548D02*
X2913928Y-7280024D01*
X2913928Y-7280024D02*
X2913928Y-7299071D01*
X3037738Y-7480024D02*
X3018690Y-7470500D01*
X3018690Y-7470500D02*
X3009167Y-7451452D01*
X3009167Y-7451452D02*
X3009167Y-7280024D01*
X3142500Y-7480024D02*
X3123452Y-7470500D01*
X3123452Y-7470500D02*
X3113928Y-7451452D01*
X3113928Y-7451452D02*
X3113928Y-7280024D01*
X3371071Y-7480024D02*
X3371071Y-7280024D01*
X3371071Y-7280024D02*
X3437738Y-7422881D01*
X3437738Y-7422881D02*
X3504405Y-7280024D01*
X3504405Y-7280024D02*
X3504405Y-7480024D01*
X3685357Y-7480024D02*
X3685357Y-7375262D01*
X3685357Y-7375262D02*
X3675833Y-7356214D01*
X3675833Y-7356214D02*
X3656786Y-7346690D01*
X3656786Y-7346690D02*
X3618690Y-7346690D01*
X3618690Y-7346690D02*
X3599643Y-7356214D01*
X3685357Y-7470500D02*
X3666309Y-7480024D01*
X3666309Y-7480024D02*
X3618690Y-7480024D01*
X3618690Y-7480024D02*
X3599643Y-7470500D01*
X3599643Y-7470500D02*
X3590119Y-7451452D01*
X3590119Y-7451452D02*
X3590119Y-7432405D01*
X3590119Y-7432405D02*
X3599643Y-7413357D01*
X3599643Y-7413357D02*
X3618690Y-7403833D01*
X3618690Y-7403833D02*
X3666309Y-7403833D01*
X3666309Y-7403833D02*
X3685357Y-7394309D01*
X3780595Y-7346690D02*
X3780595Y-7546690D01*
X3780595Y-7356214D02*
X3799643Y-7346690D01*
X3799643Y-7346690D02*
X3837738Y-7346690D01*
X3837738Y-7346690D02*
X3856786Y-7356214D01*
X3856786Y-7356214D02*
X3866309Y-7365738D01*
X3866309Y-7365738D02*
X3875833Y-7384786D01*
X3875833Y-7384786D02*
X3875833Y-7441928D01*
X3875833Y-7441928D02*
X3866309Y-7460976D01*
X3866309Y-7460976D02*
X3856786Y-7470500D01*
X3856786Y-7470500D02*
X3837738Y-7480024D01*
X3837738Y-7480024D02*
X3799643Y-7480024D01*
X3799643Y-7480024D02*
X3780595Y-7470500D01*
X3961548Y-7460976D02*
X3971071Y-7470500D01*
X3971071Y-7470500D02*
X3961548Y-7480024D01*
X3961548Y-7480024D02*
X3952024Y-7470500D01*
X3952024Y-7470500D02*
X3961548Y-7460976D01*
X3961548Y-7460976D02*
X3961548Y-7480024D01*
X3961548Y-7356214D02*
X3971071Y-7365738D01*
X3971071Y-7365738D02*
X3961548Y-7375262D01*
X3961548Y-7375262D02*
X3952024Y-7365738D01*
X3952024Y-7365738D02*
X3961548Y-7356214D01*
X3961548Y-7356214D02*
X3961548Y-7375262D01*
D12*
X2312500Y-7792500D02*
X2342500Y-7822500D01*
X2342500Y-7792500D02*
X2312500Y-7822500D01*
D11*
X2628214Y-7700024D02*
X2647262Y-7700024D01*
X2647262Y-7700024D02*
X2666310Y-7709548D01*
X2666310Y-7709548D02*
X2675833Y-7719071D01*
X2675833Y-7719071D02*
X2685357Y-7738119D01*
X2685357Y-7738119D02*
X2694881Y-7776214D01*
X2694881Y-7776214D02*
X2694881Y-7823833D01*
X2694881Y-7823833D02*
X2685357Y-7861928D01*
X2685357Y-7861928D02*
X2675833Y-7880976D01*
X2675833Y-7880976D02*
X2666310Y-7890500D01*
X2666310Y-7890500D02*
X2647262Y-7900024D01*
X2647262Y-7900024D02*
X2628214Y-7900024D01*
X2628214Y-7900024D02*
X2609167Y-7890500D01*
X2609167Y-7890500D02*
X2599643Y-7880976D01*
X2599643Y-7880976D02*
X2590119Y-7861928D01*
X2590119Y-7861928D02*
X2580595Y-7823833D01*
X2580595Y-7823833D02*
X2580595Y-7776214D01*
X2580595Y-7776214D02*
X2590119Y-7738119D01*
X2590119Y-7738119D02*
X2599643Y-7719071D01*
X2599643Y-7719071D02*
X2609167Y-7709548D01*
X2609167Y-7709548D02*
X2628214Y-7700024D01*
X2780595Y-7880976D02*
X2790119Y-7890500D01*
X2790119Y-7890500D02*
X2780595Y-7900024D01*
X2780595Y-7900024D02*
X2771071Y-7890500D01*
X2771071Y-7890500D02*
X2780595Y-7880976D01*
X2780595Y-7880976D02*
X2780595Y-7900024D01*
X2856786Y-7700024D02*
X2980595Y-7700024D01*
X2980595Y-7700024D02*
X2913928Y-7776214D01*
X2913928Y-7776214D02*
X2942500Y-7776214D01*
X2942500Y-7776214D02*
X2961548Y-7785738D01*
X2961548Y-7785738D02*
X2971071Y-7795262D01*
X2971071Y-7795262D02*
X2980595Y-7814309D01*
X2980595Y-7814309D02*
X2980595Y-7861928D01*
X2980595Y-7861928D02*
X2971071Y-7880976D01*
X2971071Y-7880976D02*
X2961548Y-7890500D01*
X2961548Y-7890500D02*
X2942500Y-7900024D01*
X2942500Y-7900024D02*
X2885357Y-7900024D01*
X2885357Y-7900024D02*
X2866309Y-7890500D01*
X2866309Y-7890500D02*
X2856786Y-7880976D01*
X3104405Y-7700024D02*
X3123452Y-7700024D01*
X3123452Y-7700024D02*
X3142500Y-7709548D01*
X3142500Y-7709548D02*
X3152024Y-7719071D01*
X3152024Y-7719071D02*
X3161548Y-7738119D01*
X3161548Y-7738119D02*
X3171071Y-7776214D01*
X3171071Y-7776214D02*
X3171071Y-7823833D01*
X3171071Y-7823833D02*
X3161548Y-7861928D01*
X3161548Y-7861928D02*
X3152024Y-7880976D01*
X3152024Y-7880976D02*
X3142500Y-7890500D01*
X3142500Y-7890500D02*
X3123452Y-7900024D01*
X3123452Y-7900024D02*
X3104405Y-7900024D01*
X3104405Y-7900024D02*
X3085357Y-7890500D01*
X3085357Y-7890500D02*
X3075833Y-7880976D01*
X3075833Y-7880976D02*
X3066309Y-7861928D01*
X3066309Y-7861928D02*
X3056786Y-7823833D01*
X3056786Y-7823833D02*
X3056786Y-7776214D01*
X3056786Y-7776214D02*
X3066309Y-7738119D01*
X3066309Y-7738119D02*
X3075833Y-7719071D01*
X3075833Y-7719071D02*
X3085357Y-7709548D01*
X3085357Y-7709548D02*
X3104405Y-7700024D01*
X3294881Y-7700024D02*
X3313929Y-7700024D01*
X3313929Y-7700024D02*
X3332976Y-7709548D01*
X3332976Y-7709548D02*
X3342500Y-7719071D01*
X3342500Y-7719071D02*
X3352024Y-7738119D01*
X3352024Y-7738119D02*
X3361548Y-7776214D01*
X3361548Y-7776214D02*
X3361548Y-7823833D01*
X3361548Y-7823833D02*
X3352024Y-7861928D01*
X3352024Y-7861928D02*
X3342500Y-7880976D01*
X3342500Y-7880976D02*
X3332976Y-7890500D01*
X3332976Y-7890500D02*
X3313929Y-7900024D01*
X3313929Y-7900024D02*
X3294881Y-7900024D01*
X3294881Y-7900024D02*
X3275833Y-7890500D01*
X3275833Y-7890500D02*
X3266309Y-7880976D01*
X3266309Y-7880976D02*
X3256786Y-7861928D01*
X3256786Y-7861928D02*
X3247262Y-7823833D01*
X3247262Y-7823833D02*
X3247262Y-7776214D01*
X3247262Y-7776214D02*
X3256786Y-7738119D01*
X3256786Y-7738119D02*
X3266309Y-7719071D01*
X3266309Y-7719071D02*
X3275833Y-7709548D01*
X3275833Y-7709548D02*
X3294881Y-7700024D01*
X3447262Y-7900024D02*
X3447262Y-7766690D01*
X3447262Y-7785738D02*
X3456786Y-7776214D01*
X3456786Y-7776214D02*
X3475833Y-7766690D01*
X3475833Y-7766690D02*
X3504405Y-7766690D01*
X3504405Y-7766690D02*
X3523452Y-7776214D01*
X3523452Y-7776214D02*
X3532976Y-7795262D01*
X3532976Y-7795262D02*
X3532976Y-7900024D01*
X3532976Y-7795262D02*
X3542500Y-7776214D01*
X3542500Y-7776214D02*
X3561548Y-7766690D01*
X3561548Y-7766690D02*
X3590119Y-7766690D01*
X3590119Y-7766690D02*
X3609167Y-7776214D01*
X3609167Y-7776214D02*
X3618690Y-7795262D01*
X3618690Y-7795262D02*
X3618690Y-7900024D01*
X3713929Y-7900024D02*
X3713929Y-7766690D01*
X3713929Y-7785738D02*
X3723452Y-7776214D01*
X3723452Y-7776214D02*
X3742500Y-7766690D01*
X3742500Y-7766690D02*
X3771071Y-7766690D01*
X3771071Y-7766690D02*
X3790119Y-7776214D01*
X3790119Y-7776214D02*
X3799643Y-7795262D01*
X3799643Y-7795262D02*
X3799643Y-7900024D01*
X3799643Y-7795262D02*
X3809167Y-7776214D01*
X3809167Y-7776214D02*
X3828214Y-7766690D01*
X3828214Y-7766690D02*
X3856786Y-7766690D01*
X3856786Y-7766690D02*
X3875833Y-7776214D01*
X3875833Y-7776214D02*
X3885357Y-7795262D01*
X3885357Y-7795262D02*
X3885357Y-7900024D01*
X4275833Y-7690500D02*
X4104405Y-7947643D01*
X4532976Y-7700024D02*
X4552024Y-7700024D01*
X4552024Y-7700024D02*
X4571072Y-7709548D01*
X4571072Y-7709548D02*
X4580595Y-7719071D01*
X4580595Y-7719071D02*
X4590119Y-7738119D01*
X4590119Y-7738119D02*
X4599643Y-7776214D01*
X4599643Y-7776214D02*
X4599643Y-7823833D01*
X4599643Y-7823833D02*
X4590119Y-7861928D01*
X4590119Y-7861928D02*
X4580595Y-7880976D01*
X4580595Y-7880976D02*
X4571072Y-7890500D01*
X4571072Y-7890500D02*
X4552024Y-7900024D01*
X4552024Y-7900024D02*
X4532976Y-7900024D01*
X4532976Y-7900024D02*
X4513929Y-7890500D01*
X4513929Y-7890500D02*
X4504405Y-7880976D01*
X4504405Y-7880976D02*
X4494881Y-7861928D01*
X4494881Y-7861928D02*
X4485357Y-7823833D01*
X4485357Y-7823833D02*
X4485357Y-7776214D01*
X4485357Y-7776214D02*
X4494881Y-7738119D01*
X4494881Y-7738119D02*
X4504405Y-7719071D01*
X4504405Y-7719071D02*
X4513929Y-7709548D01*
X4513929Y-7709548D02*
X4532976Y-7700024D01*
X4685357Y-7880976D02*
X4694881Y-7890500D01*
X4694881Y-7890500D02*
X4685357Y-7900024D01*
X4685357Y-7900024D02*
X4675834Y-7890500D01*
X4675834Y-7890500D02*
X4685357Y-7880976D01*
X4685357Y-7880976D02*
X4685357Y-7900024D01*
X4818691Y-7700024D02*
X4837738Y-7700024D01*
X4837738Y-7700024D02*
X4856786Y-7709548D01*
X4856786Y-7709548D02*
X4866310Y-7719071D01*
X4866310Y-7719071D02*
X4875834Y-7738119D01*
X4875834Y-7738119D02*
X4885357Y-7776214D01*
X4885357Y-7776214D02*
X4885357Y-7823833D01*
X4885357Y-7823833D02*
X4875834Y-7861928D01*
X4875834Y-7861928D02*
X4866310Y-7880976D01*
X4866310Y-7880976D02*
X4856786Y-7890500D01*
X4856786Y-7890500D02*
X4837738Y-7900024D01*
X4837738Y-7900024D02*
X4818691Y-7900024D01*
X4818691Y-7900024D02*
X4799643Y-7890500D01*
X4799643Y-7890500D02*
X4790119Y-7880976D01*
X4790119Y-7880976D02*
X4780595Y-7861928D01*
X4780595Y-7861928D02*
X4771072Y-7823833D01*
X4771072Y-7823833D02*
X4771072Y-7776214D01*
X4771072Y-7776214D02*
X4780595Y-7738119D01*
X4780595Y-7738119D02*
X4790119Y-7719071D01*
X4790119Y-7719071D02*
X4799643Y-7709548D01*
X4799643Y-7709548D02*
X4818691Y-7700024D01*
X5075834Y-7900024D02*
X4961548Y-7900024D01*
X5018691Y-7900024D02*
X5018691Y-7700024D01*
X5018691Y-7700024D02*
X4999643Y-7728595D01*
X4999643Y-7728595D02*
X4980595Y-7747643D01*
X4980595Y-7747643D02*
X4961548Y-7757167D01*
X5266310Y-7900024D02*
X5152024Y-7900024D01*
X5209167Y-7900024D02*
X5209167Y-7700024D01*
X5209167Y-7700024D02*
X5190119Y-7728595D01*
X5190119Y-7728595D02*
X5171072Y-7747643D01*
X5171072Y-7747643D02*
X5152024Y-7757167D01*
X5380595Y-7785738D02*
X5361548Y-7776214D01*
X5361548Y-7776214D02*
X5352024Y-7766690D01*
X5352024Y-7766690D02*
X5342500Y-7747643D01*
X5342500Y-7747643D02*
X5342500Y-7738119D01*
X5342500Y-7738119D02*
X5352024Y-7719071D01*
X5352024Y-7719071D02*
X5361548Y-7709548D01*
X5361548Y-7709548D02*
X5380595Y-7700024D01*
X5380595Y-7700024D02*
X5418691Y-7700024D01*
X5418691Y-7700024D02*
X5437738Y-7709548D01*
X5437738Y-7709548D02*
X5447262Y-7719071D01*
X5447262Y-7719071D02*
X5456786Y-7738119D01*
X5456786Y-7738119D02*
X5456786Y-7747643D01*
X5456786Y-7747643D02*
X5447262Y-7766690D01*
X5447262Y-7766690D02*
X5437738Y-7776214D01*
X5437738Y-7776214D02*
X5418691Y-7785738D01*
X5418691Y-7785738D02*
X5380595Y-7785738D01*
X5380595Y-7785738D02*
X5361548Y-7795262D01*
X5361548Y-7795262D02*
X5352024Y-7804786D01*
X5352024Y-7804786D02*
X5342500Y-7823833D01*
X5342500Y-7823833D02*
X5342500Y-7861928D01*
X5342500Y-7861928D02*
X5352024Y-7880976D01*
X5352024Y-7880976D02*
X5361548Y-7890500D01*
X5361548Y-7890500D02*
X5380595Y-7900024D01*
X5380595Y-7900024D02*
X5418691Y-7900024D01*
X5418691Y-7900024D02*
X5437738Y-7890500D01*
X5437738Y-7890500D02*
X5447262Y-7880976D01*
X5447262Y-7880976D02*
X5456786Y-7861928D01*
X5456786Y-7861928D02*
X5456786Y-7823833D01*
X5456786Y-7823833D02*
X5447262Y-7804786D01*
X5447262Y-7804786D02*
X5437738Y-7795262D01*
X5437738Y-7795262D02*
X5418691Y-7785738D01*
X5532976Y-7700024D02*
X5532976Y-7738119D01*
X5609167Y-7700024D02*
X5609167Y-7738119D01*
X5904405Y-7976214D02*
X5894881Y-7966690D01*
X5894881Y-7966690D02*
X5875834Y-7938119D01*
X5875834Y-7938119D02*
X5866310Y-7919071D01*
X5866310Y-7919071D02*
X5856786Y-7890500D01*
X5856786Y-7890500D02*
X5847262Y-7842881D01*
X5847262Y-7842881D02*
X5847262Y-7804786D01*
X5847262Y-7804786D02*
X5856786Y-7757167D01*
X5856786Y-7757167D02*
X5866310Y-7728595D01*
X5866310Y-7728595D02*
X5875834Y-7709548D01*
X5875834Y-7709548D02*
X5894881Y-7680976D01*
X5894881Y-7680976D02*
X5904405Y-7671452D01*
X6085357Y-7900024D02*
X5971072Y-7900024D01*
X6028214Y-7900024D02*
X6028214Y-7700024D01*
X6028214Y-7700024D02*
X6009167Y-7728595D01*
X6009167Y-7728595D02*
X5990119Y-7747643D01*
X5990119Y-7747643D02*
X5971072Y-7757167D01*
X6266310Y-7700024D02*
X6171072Y-7700024D01*
X6171072Y-7700024D02*
X6161548Y-7795262D01*
X6161548Y-7795262D02*
X6171072Y-7785738D01*
X6171072Y-7785738D02*
X6190119Y-7776214D01*
X6190119Y-7776214D02*
X6237738Y-7776214D01*
X6237738Y-7776214D02*
X6256786Y-7785738D01*
X6256786Y-7785738D02*
X6266310Y-7795262D01*
X6266310Y-7795262D02*
X6275834Y-7814309D01*
X6275834Y-7814309D02*
X6275834Y-7861928D01*
X6275834Y-7861928D02*
X6266310Y-7880976D01*
X6266310Y-7880976D02*
X6256786Y-7890500D01*
X6256786Y-7890500D02*
X6237738Y-7900024D01*
X6237738Y-7900024D02*
X6190119Y-7900024D01*
X6190119Y-7900024D02*
X6171072Y-7890500D01*
X6171072Y-7890500D02*
X6161548Y-7880976D01*
X6513929Y-7900024D02*
X6513929Y-7700024D01*
X6599643Y-7900024D02*
X6599643Y-7795262D01*
X6599643Y-7795262D02*
X6590119Y-7776214D01*
X6590119Y-7776214D02*
X6571072Y-7766690D01*
X6571072Y-7766690D02*
X6542500Y-7766690D01*
X6542500Y-7766690D02*
X6523453Y-7776214D01*
X6523453Y-7776214D02*
X6513929Y-7785738D01*
X6723453Y-7900024D02*
X6704405Y-7890500D01*
X6704405Y-7890500D02*
X6694881Y-7880976D01*
X6694881Y-7880976D02*
X6685357Y-7861928D01*
X6685357Y-7861928D02*
X6685357Y-7804786D01*
X6685357Y-7804786D02*
X6694881Y-7785738D01*
X6694881Y-7785738D02*
X6704405Y-7776214D01*
X6704405Y-7776214D02*
X6723453Y-7766690D01*
X6723453Y-7766690D02*
X6752024Y-7766690D01*
X6752024Y-7766690D02*
X6771072Y-7776214D01*
X6771072Y-7776214D02*
X6780596Y-7785738D01*
X6780596Y-7785738D02*
X6790119Y-7804786D01*
X6790119Y-7804786D02*
X6790119Y-7861928D01*
X6790119Y-7861928D02*
X6780596Y-7880976D01*
X6780596Y-7880976D02*
X6771072Y-7890500D01*
X6771072Y-7890500D02*
X6752024Y-7900024D01*
X6752024Y-7900024D02*
X6723453Y-7900024D01*
X6904405Y-7900024D02*
X6885357Y-7890500D01*
X6885357Y-7890500D02*
X6875834Y-7871452D01*
X6875834Y-7871452D02*
X6875834Y-7700024D01*
X7056786Y-7890500D02*
X7037738Y-7900024D01*
X7037738Y-7900024D02*
X6999643Y-7900024D01*
X6999643Y-7900024D02*
X6980596Y-7890500D01*
X6980596Y-7890500D02*
X6971072Y-7871452D01*
X6971072Y-7871452D02*
X6971072Y-7795262D01*
X6971072Y-7795262D02*
X6980596Y-7776214D01*
X6980596Y-7776214D02*
X6999643Y-7766690D01*
X6999643Y-7766690D02*
X7037738Y-7766690D01*
X7037738Y-7766690D02*
X7056786Y-7776214D01*
X7056786Y-7776214D02*
X7066310Y-7795262D01*
X7066310Y-7795262D02*
X7066310Y-7814309D01*
X7066310Y-7814309D02*
X6971072Y-7833357D01*
X7142500Y-7890500D02*
X7161548Y-7900024D01*
X7161548Y-7900024D02*
X7199643Y-7900024D01*
X7199643Y-7900024D02*
X7218691Y-7890500D01*
X7218691Y-7890500D02*
X7228215Y-7871452D01*
X7228215Y-7871452D02*
X7228215Y-7861928D01*
X7228215Y-7861928D02*
X7218691Y-7842881D01*
X7218691Y-7842881D02*
X7199643Y-7833357D01*
X7199643Y-7833357D02*
X7171072Y-7833357D01*
X7171072Y-7833357D02*
X7152024Y-7823833D01*
X7152024Y-7823833D02*
X7142500Y-7804786D01*
X7142500Y-7804786D02*
X7142500Y-7795262D01*
X7142500Y-7795262D02*
X7152024Y-7776214D01*
X7152024Y-7776214D02*
X7171072Y-7766690D01*
X7171072Y-7766690D02*
X7199643Y-7766690D01*
X7199643Y-7766690D02*
X7218691Y-7776214D01*
X7294881Y-7976214D02*
X7304405Y-7966690D01*
X7304405Y-7966690D02*
X7323453Y-7938119D01*
X7323453Y-7938119D02*
X7332977Y-7919071D01*
X7332977Y-7919071D02*
X7342500Y-7890500D01*
X7342500Y-7890500D02*
X7352024Y-7842881D01*
X7352024Y-7842881D02*
X7352024Y-7804786D01*
X7352024Y-7804786D02*
X7342500Y-7757167D01*
X7342500Y-7757167D02*
X7332977Y-7728595D01*
X7332977Y-7728595D02*
X7323453Y-7709548D01*
X7323453Y-7709548D02*
X7304405Y-7680976D01*
X7304405Y-7680976D02*
X7294881Y-7671452D01*
D12*
X2342500Y-8071500D02*
G75*
G03*
X2342500Y-8071500I-15000J0D01*
G01*
D11*
X2628214Y-7964024D02*
X2647262Y-7964024D01*
X2647262Y-7964024D02*
X2666310Y-7973548D01*
X2666310Y-7973548D02*
X2675833Y-7983071D01*
X2675833Y-7983071D02*
X2685357Y-8002119D01*
X2685357Y-8002119D02*
X2694881Y-8040214D01*
X2694881Y-8040214D02*
X2694881Y-8087833D01*
X2694881Y-8087833D02*
X2685357Y-8125928D01*
X2685357Y-8125928D02*
X2675833Y-8144976D01*
X2675833Y-8144976D02*
X2666310Y-8154500D01*
X2666310Y-8154500D02*
X2647262Y-8164024D01*
X2647262Y-8164024D02*
X2628214Y-8164024D01*
X2628214Y-8164024D02*
X2609167Y-8154500D01*
X2609167Y-8154500D02*
X2599643Y-8144976D01*
X2599643Y-8144976D02*
X2590119Y-8125928D01*
X2590119Y-8125928D02*
X2580595Y-8087833D01*
X2580595Y-8087833D02*
X2580595Y-8040214D01*
X2580595Y-8040214D02*
X2590119Y-8002119D01*
X2590119Y-8002119D02*
X2599643Y-7983071D01*
X2599643Y-7983071D02*
X2609167Y-7973548D01*
X2609167Y-7973548D02*
X2628214Y-7964024D01*
X2780595Y-8144976D02*
X2790119Y-8154500D01*
X2790119Y-8154500D02*
X2780595Y-8164024D01*
X2780595Y-8164024D02*
X2771071Y-8154500D01*
X2771071Y-8154500D02*
X2780595Y-8144976D01*
X2780595Y-8144976D02*
X2780595Y-8164024D01*
X2856786Y-7964024D02*
X2980595Y-7964024D01*
X2980595Y-7964024D02*
X2913928Y-8040214D01*
X2913928Y-8040214D02*
X2942500Y-8040214D01*
X2942500Y-8040214D02*
X2961548Y-8049738D01*
X2961548Y-8049738D02*
X2971071Y-8059262D01*
X2971071Y-8059262D02*
X2980595Y-8078309D01*
X2980595Y-8078309D02*
X2980595Y-8125928D01*
X2980595Y-8125928D02*
X2971071Y-8144976D01*
X2971071Y-8144976D02*
X2961548Y-8154500D01*
X2961548Y-8154500D02*
X2942500Y-8164024D01*
X2942500Y-8164024D02*
X2885357Y-8164024D01*
X2885357Y-8164024D02*
X2866309Y-8154500D01*
X2866309Y-8154500D02*
X2856786Y-8144976D01*
X3104405Y-7964024D02*
X3123452Y-7964024D01*
X3123452Y-7964024D02*
X3142500Y-7973548D01*
X3142500Y-7973548D02*
X3152024Y-7983071D01*
X3152024Y-7983071D02*
X3161548Y-8002119D01*
X3161548Y-8002119D02*
X3171071Y-8040214D01*
X3171071Y-8040214D02*
X3171071Y-8087833D01*
X3171071Y-8087833D02*
X3161548Y-8125928D01*
X3161548Y-8125928D02*
X3152024Y-8144976D01*
X3152024Y-8144976D02*
X3142500Y-8154500D01*
X3142500Y-8154500D02*
X3123452Y-8164024D01*
X3123452Y-8164024D02*
X3104405Y-8164024D01*
X3104405Y-8164024D02*
X3085357Y-8154500D01*
X3085357Y-8154500D02*
X3075833Y-8144976D01*
X3075833Y-8144976D02*
X3066309Y-8125928D01*
X3066309Y-8125928D02*
X3056786Y-8087833D01*
X3056786Y-8087833D02*
X3056786Y-8040214D01*
X3056786Y-8040214D02*
X3066309Y-8002119D01*
X3066309Y-8002119D02*
X3075833Y-7983071D01*
X3075833Y-7983071D02*
X3085357Y-7973548D01*
X3085357Y-7973548D02*
X3104405Y-7964024D01*
X3294881Y-7964024D02*
X3313929Y-7964024D01*
X3313929Y-7964024D02*
X3332976Y-7973548D01*
X3332976Y-7973548D02*
X3342500Y-7983071D01*
X3342500Y-7983071D02*
X3352024Y-8002119D01*
X3352024Y-8002119D02*
X3361548Y-8040214D01*
X3361548Y-8040214D02*
X3361548Y-8087833D01*
X3361548Y-8087833D02*
X3352024Y-8125928D01*
X3352024Y-8125928D02*
X3342500Y-8144976D01*
X3342500Y-8144976D02*
X3332976Y-8154500D01*
X3332976Y-8154500D02*
X3313929Y-8164024D01*
X3313929Y-8164024D02*
X3294881Y-8164024D01*
X3294881Y-8164024D02*
X3275833Y-8154500D01*
X3275833Y-8154500D02*
X3266309Y-8144976D01*
X3266309Y-8144976D02*
X3256786Y-8125928D01*
X3256786Y-8125928D02*
X3247262Y-8087833D01*
X3247262Y-8087833D02*
X3247262Y-8040214D01*
X3247262Y-8040214D02*
X3256786Y-8002119D01*
X3256786Y-8002119D02*
X3266309Y-7983071D01*
X3266309Y-7983071D02*
X3275833Y-7973548D01*
X3275833Y-7973548D02*
X3294881Y-7964024D01*
X3447262Y-8164024D02*
X3447262Y-8030690D01*
X3447262Y-8049738D02*
X3456786Y-8040214D01*
X3456786Y-8040214D02*
X3475833Y-8030690D01*
X3475833Y-8030690D02*
X3504405Y-8030690D01*
X3504405Y-8030690D02*
X3523452Y-8040214D01*
X3523452Y-8040214D02*
X3532976Y-8059262D01*
X3532976Y-8059262D02*
X3532976Y-8164024D01*
X3532976Y-8059262D02*
X3542500Y-8040214D01*
X3542500Y-8040214D02*
X3561548Y-8030690D01*
X3561548Y-8030690D02*
X3590119Y-8030690D01*
X3590119Y-8030690D02*
X3609167Y-8040214D01*
X3609167Y-8040214D02*
X3618690Y-8059262D01*
X3618690Y-8059262D02*
X3618690Y-8164024D01*
X3713929Y-8164024D02*
X3713929Y-8030690D01*
X3713929Y-8049738D02*
X3723452Y-8040214D01*
X3723452Y-8040214D02*
X3742500Y-8030690D01*
X3742500Y-8030690D02*
X3771071Y-8030690D01*
X3771071Y-8030690D02*
X3790119Y-8040214D01*
X3790119Y-8040214D02*
X3799643Y-8059262D01*
X3799643Y-8059262D02*
X3799643Y-8164024D01*
X3799643Y-8059262D02*
X3809167Y-8040214D01*
X3809167Y-8040214D02*
X3828214Y-8030690D01*
X3828214Y-8030690D02*
X3856786Y-8030690D01*
X3856786Y-8030690D02*
X3875833Y-8040214D01*
X3875833Y-8040214D02*
X3885357Y-8059262D01*
X3885357Y-8059262D02*
X3885357Y-8164024D01*
X4275833Y-7954500D02*
X4104405Y-8211643D01*
X4532976Y-7964024D02*
X4552024Y-7964024D01*
X4552024Y-7964024D02*
X4571072Y-7973548D01*
X4571072Y-7973548D02*
X4580595Y-7983071D01*
X4580595Y-7983071D02*
X4590119Y-8002119D01*
X4590119Y-8002119D02*
X4599643Y-8040214D01*
X4599643Y-8040214D02*
X4599643Y-8087833D01*
X4599643Y-8087833D02*
X4590119Y-8125928D01*
X4590119Y-8125928D02*
X4580595Y-8144976D01*
X4580595Y-8144976D02*
X4571072Y-8154500D01*
X4571072Y-8154500D02*
X4552024Y-8164024D01*
X4552024Y-8164024D02*
X4532976Y-8164024D01*
X4532976Y-8164024D02*
X4513929Y-8154500D01*
X4513929Y-8154500D02*
X4504405Y-8144976D01*
X4504405Y-8144976D02*
X4494881Y-8125928D01*
X4494881Y-8125928D02*
X4485357Y-8087833D01*
X4485357Y-8087833D02*
X4485357Y-8040214D01*
X4485357Y-8040214D02*
X4494881Y-8002119D01*
X4494881Y-8002119D02*
X4504405Y-7983071D01*
X4504405Y-7983071D02*
X4513929Y-7973548D01*
X4513929Y-7973548D02*
X4532976Y-7964024D01*
X4685357Y-8144976D02*
X4694881Y-8154500D01*
X4694881Y-8154500D02*
X4685357Y-8164024D01*
X4685357Y-8164024D02*
X4675834Y-8154500D01*
X4675834Y-8154500D02*
X4685357Y-8144976D01*
X4685357Y-8144976D02*
X4685357Y-8164024D01*
X4818691Y-7964024D02*
X4837738Y-7964024D01*
X4837738Y-7964024D02*
X4856786Y-7973548D01*
X4856786Y-7973548D02*
X4866310Y-7983071D01*
X4866310Y-7983071D02*
X4875834Y-8002119D01*
X4875834Y-8002119D02*
X4885357Y-8040214D01*
X4885357Y-8040214D02*
X4885357Y-8087833D01*
X4885357Y-8087833D02*
X4875834Y-8125928D01*
X4875834Y-8125928D02*
X4866310Y-8144976D01*
X4866310Y-8144976D02*
X4856786Y-8154500D01*
X4856786Y-8154500D02*
X4837738Y-8164024D01*
X4837738Y-8164024D02*
X4818691Y-8164024D01*
X4818691Y-8164024D02*
X4799643Y-8154500D01*
X4799643Y-8154500D02*
X4790119Y-8144976D01*
X4790119Y-8144976D02*
X4780595Y-8125928D01*
X4780595Y-8125928D02*
X4771072Y-8087833D01*
X4771072Y-8087833D02*
X4771072Y-8040214D01*
X4771072Y-8040214D02*
X4780595Y-8002119D01*
X4780595Y-8002119D02*
X4790119Y-7983071D01*
X4790119Y-7983071D02*
X4799643Y-7973548D01*
X4799643Y-7973548D02*
X4818691Y-7964024D01*
X5075834Y-8164024D02*
X4961548Y-8164024D01*
X5018691Y-8164024D02*
X5018691Y-7964024D01*
X5018691Y-7964024D02*
X4999643Y-7992595D01*
X4999643Y-7992595D02*
X4980595Y-8011643D01*
X4980595Y-8011643D02*
X4961548Y-8021167D01*
X5266310Y-8164024D02*
X5152024Y-8164024D01*
X5209167Y-8164024D02*
X5209167Y-7964024D01*
X5209167Y-7964024D02*
X5190119Y-7992595D01*
X5190119Y-7992595D02*
X5171072Y-8011643D01*
X5171072Y-8011643D02*
X5152024Y-8021167D01*
X5380595Y-8049738D02*
X5361548Y-8040214D01*
X5361548Y-8040214D02*
X5352024Y-8030690D01*
X5352024Y-8030690D02*
X5342500Y-8011643D01*
X5342500Y-8011643D02*
X5342500Y-8002119D01*
X5342500Y-8002119D02*
X5352024Y-7983071D01*
X5352024Y-7983071D02*
X5361548Y-7973548D01*
X5361548Y-7973548D02*
X5380595Y-7964024D01*
X5380595Y-7964024D02*
X5418691Y-7964024D01*
X5418691Y-7964024D02*
X5437738Y-7973548D01*
X5437738Y-7973548D02*
X5447262Y-7983071D01*
X5447262Y-7983071D02*
X5456786Y-8002119D01*
X5456786Y-8002119D02*
X5456786Y-8011643D01*
X5456786Y-8011643D02*
X5447262Y-8030690D01*
X5447262Y-8030690D02*
X5437738Y-8040214D01*
X5437738Y-8040214D02*
X5418691Y-8049738D01*
X5418691Y-8049738D02*
X5380595Y-8049738D01*
X5380595Y-8049738D02*
X5361548Y-8059262D01*
X5361548Y-8059262D02*
X5352024Y-8068786D01*
X5352024Y-8068786D02*
X5342500Y-8087833D01*
X5342500Y-8087833D02*
X5342500Y-8125928D01*
X5342500Y-8125928D02*
X5352024Y-8144976D01*
X5352024Y-8144976D02*
X5361548Y-8154500D01*
X5361548Y-8154500D02*
X5380595Y-8164024D01*
X5380595Y-8164024D02*
X5418691Y-8164024D01*
X5418691Y-8164024D02*
X5437738Y-8154500D01*
X5437738Y-8154500D02*
X5447262Y-8144976D01*
X5447262Y-8144976D02*
X5456786Y-8125928D01*
X5456786Y-8125928D02*
X5456786Y-8087833D01*
X5456786Y-8087833D02*
X5447262Y-8068786D01*
X5447262Y-8068786D02*
X5437738Y-8059262D01*
X5437738Y-8059262D02*
X5418691Y-8049738D01*
X5532976Y-7964024D02*
X5532976Y-8002119D01*
X5609167Y-7964024D02*
X5609167Y-8002119D01*
X5904405Y-8240214D02*
X5894881Y-8230690D01*
X5894881Y-8230690D02*
X5875834Y-8202119D01*
X5875834Y-8202119D02*
X5866310Y-8183071D01*
X5866310Y-8183071D02*
X5856786Y-8154500D01*
X5856786Y-8154500D02*
X5847262Y-8106881D01*
X5847262Y-8106881D02*
X5847262Y-8068786D01*
X5847262Y-8068786D02*
X5856786Y-8021167D01*
X5856786Y-8021167D02*
X5866310Y-7992595D01*
X5866310Y-7992595D02*
X5875834Y-7973548D01*
X5875834Y-7973548D02*
X5894881Y-7944976D01*
X5894881Y-7944976D02*
X5904405Y-7935452D01*
X5961548Y-7964024D02*
X6085357Y-7964024D01*
X6085357Y-7964024D02*
X6018691Y-8040214D01*
X6018691Y-8040214D02*
X6047262Y-8040214D01*
X6047262Y-8040214D02*
X6066310Y-8049738D01*
X6066310Y-8049738D02*
X6075834Y-8059262D01*
X6075834Y-8059262D02*
X6085357Y-8078309D01*
X6085357Y-8078309D02*
X6085357Y-8125928D01*
X6085357Y-8125928D02*
X6075834Y-8144976D01*
X6075834Y-8144976D02*
X6066310Y-8154500D01*
X6066310Y-8154500D02*
X6047262Y-8164024D01*
X6047262Y-8164024D02*
X5990119Y-8164024D01*
X5990119Y-8164024D02*
X5971072Y-8154500D01*
X5971072Y-8154500D02*
X5961548Y-8144976D01*
X6209167Y-7964024D02*
X6228215Y-7964024D01*
X6228215Y-7964024D02*
X6247262Y-7973548D01*
X6247262Y-7973548D02*
X6256786Y-7983071D01*
X6256786Y-7983071D02*
X6266310Y-8002119D01*
X6266310Y-8002119D02*
X6275834Y-8040214D01*
X6275834Y-8040214D02*
X6275834Y-8087833D01*
X6275834Y-8087833D02*
X6266310Y-8125928D01*
X6266310Y-8125928D02*
X6256786Y-8144976D01*
X6256786Y-8144976D02*
X6247262Y-8154500D01*
X6247262Y-8154500D02*
X6228215Y-8164024D01*
X6228215Y-8164024D02*
X6209167Y-8164024D01*
X6209167Y-8164024D02*
X6190119Y-8154500D01*
X6190119Y-8154500D02*
X6180595Y-8144976D01*
X6180595Y-8144976D02*
X6171072Y-8125928D01*
X6171072Y-8125928D02*
X6161548Y-8087833D01*
X6161548Y-8087833D02*
X6161548Y-8040214D01*
X6161548Y-8040214D02*
X6171072Y-8002119D01*
X6171072Y-8002119D02*
X6180595Y-7983071D01*
X6180595Y-7983071D02*
X6190119Y-7973548D01*
X6190119Y-7973548D02*
X6209167Y-7964024D01*
X6513929Y-8164024D02*
X6513929Y-7964024D01*
X6599643Y-8164024D02*
X6599643Y-8059262D01*
X6599643Y-8059262D02*
X6590119Y-8040214D01*
X6590119Y-8040214D02*
X6571072Y-8030690D01*
X6571072Y-8030690D02*
X6542500Y-8030690D01*
X6542500Y-8030690D02*
X6523453Y-8040214D01*
X6523453Y-8040214D02*
X6513929Y-8049738D01*
X6723453Y-8164024D02*
X6704405Y-8154500D01*
X6704405Y-8154500D02*
X6694881Y-8144976D01*
X6694881Y-8144976D02*
X6685357Y-8125928D01*
X6685357Y-8125928D02*
X6685357Y-8068786D01*
X6685357Y-8068786D02*
X6694881Y-8049738D01*
X6694881Y-8049738D02*
X6704405Y-8040214D01*
X6704405Y-8040214D02*
X6723453Y-8030690D01*
X6723453Y-8030690D02*
X6752024Y-8030690D01*
X6752024Y-8030690D02*
X6771072Y-8040214D01*
X6771072Y-8040214D02*
X6780596Y-8049738D01*
X6780596Y-8049738D02*
X6790119Y-8068786D01*
X6790119Y-8068786D02*
X6790119Y-8125928D01*
X6790119Y-8125928D02*
X6780596Y-8144976D01*
X6780596Y-8144976D02*
X6771072Y-8154500D01*
X6771072Y-8154500D02*
X6752024Y-8164024D01*
X6752024Y-8164024D02*
X6723453Y-8164024D01*
X6904405Y-8164024D02*
X6885357Y-8154500D01*
X6885357Y-8154500D02*
X6875834Y-8135452D01*
X6875834Y-8135452D02*
X6875834Y-7964024D01*
X7056786Y-8154500D02*
X7037738Y-8164024D01*
X7037738Y-8164024D02*
X6999643Y-8164024D01*
X6999643Y-8164024D02*
X6980596Y-8154500D01*
X6980596Y-8154500D02*
X6971072Y-8135452D01*
X6971072Y-8135452D02*
X6971072Y-8059262D01*
X6971072Y-8059262D02*
X6980596Y-8040214D01*
X6980596Y-8040214D02*
X6999643Y-8030690D01*
X6999643Y-8030690D02*
X7037738Y-8030690D01*
X7037738Y-8030690D02*
X7056786Y-8040214D01*
X7056786Y-8040214D02*
X7066310Y-8059262D01*
X7066310Y-8059262D02*
X7066310Y-8078309D01*
X7066310Y-8078309D02*
X6971072Y-8097357D01*
X7142500Y-8154500D02*
X7161548Y-8164024D01*
X7161548Y-8164024D02*
X7199643Y-8164024D01*
X7199643Y-8164024D02*
X7218691Y-8154500D01*
X7218691Y-8154500D02*
X7228215Y-8135452D01*
X7228215Y-8135452D02*
X7228215Y-8125928D01*
X7228215Y-8125928D02*
X7218691Y-8106881D01*
X7218691Y-8106881D02*
X7199643Y-8097357D01*
X7199643Y-8097357D02*
X7171072Y-8097357D01*
X7171072Y-8097357D02*
X7152024Y-8087833D01*
X7152024Y-8087833D02*
X7142500Y-8068786D01*
X7142500Y-8068786D02*
X7142500Y-8059262D01*
X7142500Y-8059262D02*
X7152024Y-8040214D01*
X7152024Y-8040214D02*
X7171072Y-8030690D01*
X7171072Y-8030690D02*
X7199643Y-8030690D01*
X7199643Y-8030690D02*
X7218691Y-8040214D01*
X7294881Y-8240214D02*
X7304405Y-8230690D01*
X7304405Y-8230690D02*
X7323453Y-8202119D01*
X7323453Y-8202119D02*
X7332977Y-8183071D01*
X7332977Y-8183071D02*
X7342500Y-8154500D01*
X7342500Y-8154500D02*
X7352024Y-8106881D01*
X7352024Y-8106881D02*
X7352024Y-8068786D01*
X7352024Y-8068786D02*
X7342500Y-8021167D01*
X7342500Y-8021167D02*
X7332977Y-7992595D01*
X7332977Y-7992595D02*
X7323453Y-7973548D01*
X7323453Y-7973548D02*
X7304405Y-7944976D01*
X7304405Y-7944976D02*
X7294881Y-7935452D01*
D13*
X2292500Y-8285500D02*
X2292500Y-8385500D01*
X2242500Y-8335500D02*
X2342500Y-8335500D01*
D11*
X2694881Y-8428024D02*
X2580595Y-8428024D01*
X2637738Y-8428024D02*
X2637738Y-8228024D01*
X2637738Y-8228024D02*
X2618690Y-8256595D01*
X2618690Y-8256595D02*
X2599643Y-8275643D01*
X2599643Y-8275643D02*
X2580595Y-8285167D01*
X2780595Y-8408976D02*
X2790119Y-8418500D01*
X2790119Y-8418500D02*
X2780595Y-8428024D01*
X2780595Y-8428024D02*
X2771071Y-8418500D01*
X2771071Y-8418500D02*
X2780595Y-8408976D01*
X2780595Y-8408976D02*
X2780595Y-8428024D01*
X2913928Y-8228024D02*
X2932976Y-8228024D01*
X2932976Y-8228024D02*
X2952024Y-8237548D01*
X2952024Y-8237548D02*
X2961548Y-8247071D01*
X2961548Y-8247071D02*
X2971071Y-8266119D01*
X2971071Y-8266119D02*
X2980595Y-8304214D01*
X2980595Y-8304214D02*
X2980595Y-8351833D01*
X2980595Y-8351833D02*
X2971071Y-8389929D01*
X2971071Y-8389929D02*
X2961548Y-8408976D01*
X2961548Y-8408976D02*
X2952024Y-8418500D01*
X2952024Y-8418500D02*
X2932976Y-8428024D01*
X2932976Y-8428024D02*
X2913928Y-8428024D01*
X2913928Y-8428024D02*
X2894881Y-8418500D01*
X2894881Y-8418500D02*
X2885357Y-8408976D01*
X2885357Y-8408976D02*
X2875833Y-8389929D01*
X2875833Y-8389929D02*
X2866309Y-8351833D01*
X2866309Y-8351833D02*
X2866309Y-8304214D01*
X2866309Y-8304214D02*
X2875833Y-8266119D01*
X2875833Y-8266119D02*
X2885357Y-8247071D01*
X2885357Y-8247071D02*
X2894881Y-8237548D01*
X2894881Y-8237548D02*
X2913928Y-8228024D01*
X3104405Y-8228024D02*
X3123452Y-8228024D01*
X3123452Y-8228024D02*
X3142500Y-8237548D01*
X3142500Y-8237548D02*
X3152024Y-8247071D01*
X3152024Y-8247071D02*
X3161548Y-8266119D01*
X3161548Y-8266119D02*
X3171071Y-8304214D01*
X3171071Y-8304214D02*
X3171071Y-8351833D01*
X3171071Y-8351833D02*
X3161548Y-8389929D01*
X3161548Y-8389929D02*
X3152024Y-8408976D01*
X3152024Y-8408976D02*
X3142500Y-8418500D01*
X3142500Y-8418500D02*
X3123452Y-8428024D01*
X3123452Y-8428024D02*
X3104405Y-8428024D01*
X3104405Y-8428024D02*
X3085357Y-8418500D01*
X3085357Y-8418500D02*
X3075833Y-8408976D01*
X3075833Y-8408976D02*
X3066309Y-8389929D01*
X3066309Y-8389929D02*
X3056786Y-8351833D01*
X3056786Y-8351833D02*
X3056786Y-8304214D01*
X3056786Y-8304214D02*
X3066309Y-8266119D01*
X3066309Y-8266119D02*
X3075833Y-8247071D01*
X3075833Y-8247071D02*
X3085357Y-8237548D01*
X3085357Y-8237548D02*
X3104405Y-8228024D01*
X3294881Y-8228024D02*
X3313929Y-8228024D01*
X3313929Y-8228024D02*
X3332976Y-8237548D01*
X3332976Y-8237548D02*
X3342500Y-8247071D01*
X3342500Y-8247071D02*
X3352024Y-8266119D01*
X3352024Y-8266119D02*
X3361548Y-8304214D01*
X3361548Y-8304214D02*
X3361548Y-8351833D01*
X3361548Y-8351833D02*
X3352024Y-8389929D01*
X3352024Y-8389929D02*
X3342500Y-8408976D01*
X3342500Y-8408976D02*
X3332976Y-8418500D01*
X3332976Y-8418500D02*
X3313929Y-8428024D01*
X3313929Y-8428024D02*
X3294881Y-8428024D01*
X3294881Y-8428024D02*
X3275833Y-8418500D01*
X3275833Y-8418500D02*
X3266309Y-8408976D01*
X3266309Y-8408976D02*
X3256786Y-8389929D01*
X3256786Y-8389929D02*
X3247262Y-8351833D01*
X3247262Y-8351833D02*
X3247262Y-8304214D01*
X3247262Y-8304214D02*
X3256786Y-8266119D01*
X3256786Y-8266119D02*
X3266309Y-8247071D01*
X3266309Y-8247071D02*
X3275833Y-8237548D01*
X3275833Y-8237548D02*
X3294881Y-8228024D01*
X3447262Y-8428024D02*
X3447262Y-8294690D01*
X3447262Y-8313738D02*
X3456786Y-8304214D01*
X3456786Y-8304214D02*
X3475833Y-8294690D01*
X3475833Y-8294690D02*
X3504405Y-8294690D01*
X3504405Y-8294690D02*
X3523452Y-8304214D01*
X3523452Y-8304214D02*
X3532976Y-8323262D01*
X3532976Y-8323262D02*
X3532976Y-8428024D01*
X3532976Y-8323262D02*
X3542500Y-8304214D01*
X3542500Y-8304214D02*
X3561548Y-8294690D01*
X3561548Y-8294690D02*
X3590119Y-8294690D01*
X3590119Y-8294690D02*
X3609167Y-8304214D01*
X3609167Y-8304214D02*
X3618690Y-8323262D01*
X3618690Y-8323262D02*
X3618690Y-8428024D01*
X3713929Y-8428024D02*
X3713929Y-8294690D01*
X3713929Y-8313738D02*
X3723452Y-8304214D01*
X3723452Y-8304214D02*
X3742500Y-8294690D01*
X3742500Y-8294690D02*
X3771071Y-8294690D01*
X3771071Y-8294690D02*
X3790119Y-8304214D01*
X3790119Y-8304214D02*
X3799643Y-8323262D01*
X3799643Y-8323262D02*
X3799643Y-8428024D01*
X3799643Y-8323262D02*
X3809167Y-8304214D01*
X3809167Y-8304214D02*
X3828214Y-8294690D01*
X3828214Y-8294690D02*
X3856786Y-8294690D01*
X3856786Y-8294690D02*
X3875833Y-8304214D01*
X3875833Y-8304214D02*
X3885357Y-8323262D01*
X3885357Y-8323262D02*
X3885357Y-8428024D01*
X4275833Y-8218500D02*
X4104405Y-8475643D01*
X4532976Y-8228024D02*
X4552024Y-8228024D01*
X4552024Y-8228024D02*
X4571072Y-8237548D01*
X4571072Y-8237548D02*
X4580595Y-8247071D01*
X4580595Y-8247071D02*
X4590119Y-8266119D01*
X4590119Y-8266119D02*
X4599643Y-8304214D01*
X4599643Y-8304214D02*
X4599643Y-8351833D01*
X4599643Y-8351833D02*
X4590119Y-8389929D01*
X4590119Y-8389929D02*
X4580595Y-8408976D01*
X4580595Y-8408976D02*
X4571072Y-8418500D01*
X4571072Y-8418500D02*
X4552024Y-8428024D01*
X4552024Y-8428024D02*
X4532976Y-8428024D01*
X4532976Y-8428024D02*
X4513929Y-8418500D01*
X4513929Y-8418500D02*
X4504405Y-8408976D01*
X4504405Y-8408976D02*
X4494881Y-8389929D01*
X4494881Y-8389929D02*
X4485357Y-8351833D01*
X4485357Y-8351833D02*
X4485357Y-8304214D01*
X4485357Y-8304214D02*
X4494881Y-8266119D01*
X4494881Y-8266119D02*
X4504405Y-8247071D01*
X4504405Y-8247071D02*
X4513929Y-8237548D01*
X4513929Y-8237548D02*
X4532976Y-8228024D01*
X4685357Y-8408976D02*
X4694881Y-8418500D01*
X4694881Y-8418500D02*
X4685357Y-8428024D01*
X4685357Y-8428024D02*
X4675834Y-8418500D01*
X4675834Y-8418500D02*
X4685357Y-8408976D01*
X4685357Y-8408976D02*
X4685357Y-8428024D01*
X4818691Y-8228024D02*
X4837738Y-8228024D01*
X4837738Y-8228024D02*
X4856786Y-8237548D01*
X4856786Y-8237548D02*
X4866310Y-8247071D01*
X4866310Y-8247071D02*
X4875834Y-8266119D01*
X4875834Y-8266119D02*
X4885357Y-8304214D01*
X4885357Y-8304214D02*
X4885357Y-8351833D01*
X4885357Y-8351833D02*
X4875834Y-8389929D01*
X4875834Y-8389929D02*
X4866310Y-8408976D01*
X4866310Y-8408976D02*
X4856786Y-8418500D01*
X4856786Y-8418500D02*
X4837738Y-8428024D01*
X4837738Y-8428024D02*
X4818691Y-8428024D01*
X4818691Y-8428024D02*
X4799643Y-8418500D01*
X4799643Y-8418500D02*
X4790119Y-8408976D01*
X4790119Y-8408976D02*
X4780595Y-8389929D01*
X4780595Y-8389929D02*
X4771072Y-8351833D01*
X4771072Y-8351833D02*
X4771072Y-8304214D01*
X4771072Y-8304214D02*
X4780595Y-8266119D01*
X4780595Y-8266119D02*
X4790119Y-8247071D01*
X4790119Y-8247071D02*
X4799643Y-8237548D01*
X4799643Y-8237548D02*
X4818691Y-8228024D01*
X4952024Y-8228024D02*
X5075834Y-8228024D01*
X5075834Y-8228024D02*
X5009167Y-8304214D01*
X5009167Y-8304214D02*
X5037738Y-8304214D01*
X5037738Y-8304214D02*
X5056786Y-8313738D01*
X5056786Y-8313738D02*
X5066310Y-8323262D01*
X5066310Y-8323262D02*
X5075834Y-8342309D01*
X5075834Y-8342309D02*
X5075834Y-8389929D01*
X5075834Y-8389929D02*
X5066310Y-8408976D01*
X5066310Y-8408976D02*
X5056786Y-8418500D01*
X5056786Y-8418500D02*
X5037738Y-8428024D01*
X5037738Y-8428024D02*
X4980595Y-8428024D01*
X4980595Y-8428024D02*
X4961548Y-8418500D01*
X4961548Y-8418500D02*
X4952024Y-8408976D01*
X5171072Y-8428024D02*
X5209167Y-8428024D01*
X5209167Y-8428024D02*
X5228215Y-8418500D01*
X5228215Y-8418500D02*
X5237738Y-8408976D01*
X5237738Y-8408976D02*
X5256786Y-8380405D01*
X5256786Y-8380405D02*
X5266310Y-8342309D01*
X5266310Y-8342309D02*
X5266310Y-8266119D01*
X5266310Y-8266119D02*
X5256786Y-8247071D01*
X5256786Y-8247071D02*
X5247262Y-8237548D01*
X5247262Y-8237548D02*
X5228215Y-8228024D01*
X5228215Y-8228024D02*
X5190119Y-8228024D01*
X5190119Y-8228024D02*
X5171072Y-8237548D01*
X5171072Y-8237548D02*
X5161548Y-8247071D01*
X5161548Y-8247071D02*
X5152024Y-8266119D01*
X5152024Y-8266119D02*
X5152024Y-8313738D01*
X5152024Y-8313738D02*
X5161548Y-8332786D01*
X5161548Y-8332786D02*
X5171072Y-8342309D01*
X5171072Y-8342309D02*
X5190119Y-8351833D01*
X5190119Y-8351833D02*
X5228215Y-8351833D01*
X5228215Y-8351833D02*
X5247262Y-8342309D01*
X5247262Y-8342309D02*
X5256786Y-8332786D01*
X5256786Y-8332786D02*
X5266310Y-8313738D01*
X5437738Y-8294690D02*
X5437738Y-8428024D01*
X5390119Y-8218500D02*
X5342500Y-8361357D01*
X5342500Y-8361357D02*
X5466310Y-8361357D01*
X5532976Y-8228024D02*
X5532976Y-8266119D01*
X5609167Y-8228024D02*
X5609167Y-8266119D01*
X5904405Y-8504214D02*
X5894881Y-8494690D01*
X5894881Y-8494690D02*
X5875834Y-8466119D01*
X5875834Y-8466119D02*
X5866310Y-8447071D01*
X5866310Y-8447071D02*
X5856786Y-8418500D01*
X5856786Y-8418500D02*
X5847262Y-8370881D01*
X5847262Y-8370881D02*
X5847262Y-8332786D01*
X5847262Y-8332786D02*
X5856786Y-8285167D01*
X5856786Y-8285167D02*
X5866310Y-8256595D01*
X5866310Y-8256595D02*
X5875834Y-8237548D01*
X5875834Y-8237548D02*
X5894881Y-8208976D01*
X5894881Y-8208976D02*
X5904405Y-8199452D01*
X5971072Y-8247071D02*
X5980595Y-8237548D01*
X5980595Y-8237548D02*
X5999643Y-8228024D01*
X5999643Y-8228024D02*
X6047262Y-8228024D01*
X6047262Y-8228024D02*
X6066310Y-8237548D01*
X6066310Y-8237548D02*
X6075834Y-8247071D01*
X6075834Y-8247071D02*
X6085357Y-8266119D01*
X6085357Y-8266119D02*
X6085357Y-8285167D01*
X6085357Y-8285167D02*
X6075834Y-8313738D01*
X6075834Y-8313738D02*
X5961548Y-8428024D01*
X5961548Y-8428024D02*
X6085357Y-8428024D01*
X6199643Y-8313738D02*
X6180595Y-8304214D01*
X6180595Y-8304214D02*
X6171072Y-8294690D01*
X6171072Y-8294690D02*
X6161548Y-8275643D01*
X6161548Y-8275643D02*
X6161548Y-8266119D01*
X6161548Y-8266119D02*
X6171072Y-8247071D01*
X6171072Y-8247071D02*
X6180595Y-8237548D01*
X6180595Y-8237548D02*
X6199643Y-8228024D01*
X6199643Y-8228024D02*
X6237738Y-8228024D01*
X6237738Y-8228024D02*
X6256786Y-8237548D01*
X6256786Y-8237548D02*
X6266310Y-8247071D01*
X6266310Y-8247071D02*
X6275834Y-8266119D01*
X6275834Y-8266119D02*
X6275834Y-8275643D01*
X6275834Y-8275643D02*
X6266310Y-8294690D01*
X6266310Y-8294690D02*
X6256786Y-8304214D01*
X6256786Y-8304214D02*
X6237738Y-8313738D01*
X6237738Y-8313738D02*
X6199643Y-8313738D01*
X6199643Y-8313738D02*
X6180595Y-8323262D01*
X6180595Y-8323262D02*
X6171072Y-8332786D01*
X6171072Y-8332786D02*
X6161548Y-8351833D01*
X6161548Y-8351833D02*
X6161548Y-8389929D01*
X6161548Y-8389929D02*
X6171072Y-8408976D01*
X6171072Y-8408976D02*
X6180595Y-8418500D01*
X6180595Y-8418500D02*
X6199643Y-8428024D01*
X6199643Y-8428024D02*
X6237738Y-8428024D01*
X6237738Y-8428024D02*
X6256786Y-8418500D01*
X6256786Y-8418500D02*
X6266310Y-8408976D01*
X6266310Y-8408976D02*
X6275834Y-8389929D01*
X6275834Y-8389929D02*
X6275834Y-8351833D01*
X6275834Y-8351833D02*
X6266310Y-8332786D01*
X6266310Y-8332786D02*
X6256786Y-8323262D01*
X6256786Y-8323262D02*
X6237738Y-8313738D01*
X6513929Y-8428024D02*
X6513929Y-8228024D01*
X6599643Y-8428024D02*
X6599643Y-8323262D01*
X6599643Y-8323262D02*
X6590119Y-8304214D01*
X6590119Y-8304214D02*
X6571072Y-8294690D01*
X6571072Y-8294690D02*
X6542500Y-8294690D01*
X6542500Y-8294690D02*
X6523453Y-8304214D01*
X6523453Y-8304214D02*
X6513929Y-8313738D01*
X6723453Y-8428024D02*
X6704405Y-8418500D01*
X6704405Y-8418500D02*
X6694881Y-8408976D01*
X6694881Y-8408976D02*
X6685357Y-8389929D01*
X6685357Y-8389929D02*
X6685357Y-8332786D01*
X6685357Y-8332786D02*
X6694881Y-8313738D01*
X6694881Y-8313738D02*
X6704405Y-8304214D01*
X6704405Y-8304214D02*
X6723453Y-8294690D01*
X6723453Y-8294690D02*
X6752024Y-8294690D01*
X6752024Y-8294690D02*
X6771072Y-8304214D01*
X6771072Y-8304214D02*
X6780596Y-8313738D01*
X6780596Y-8313738D02*
X6790119Y-8332786D01*
X6790119Y-8332786D02*
X6790119Y-8389929D01*
X6790119Y-8389929D02*
X6780596Y-8408976D01*
X6780596Y-8408976D02*
X6771072Y-8418500D01*
X6771072Y-8418500D02*
X6752024Y-8428024D01*
X6752024Y-8428024D02*
X6723453Y-8428024D01*
X6904405Y-8428024D02*
X6885357Y-8418500D01*
X6885357Y-8418500D02*
X6875834Y-8399452D01*
X6875834Y-8399452D02*
X6875834Y-8228024D01*
X7056786Y-8418500D02*
X7037738Y-8428024D01*
X7037738Y-8428024D02*
X6999643Y-8428024D01*
X6999643Y-8428024D02*
X6980596Y-8418500D01*
X6980596Y-8418500D02*
X6971072Y-8399452D01*
X6971072Y-8399452D02*
X6971072Y-8323262D01*
X6971072Y-8323262D02*
X6980596Y-8304214D01*
X6980596Y-8304214D02*
X6999643Y-8294690D01*
X6999643Y-8294690D02*
X7037738Y-8294690D01*
X7037738Y-8294690D02*
X7056786Y-8304214D01*
X7056786Y-8304214D02*
X7066310Y-8323262D01*
X7066310Y-8323262D02*
X7066310Y-8342309D01*
X7066310Y-8342309D02*
X6971072Y-8361357D01*
X7142500Y-8418500D02*
X7161548Y-8428024D01*
X7161548Y-8428024D02*
X7199643Y-8428024D01*
X7199643Y-8428024D02*
X7218691Y-8418500D01*
X7218691Y-8418500D02*
X7228215Y-8399452D01*
X7228215Y-8399452D02*
X7228215Y-8389929D01*
X7228215Y-8389929D02*
X7218691Y-8370881D01*
X7218691Y-8370881D02*
X7199643Y-8361357D01*
X7199643Y-8361357D02*
X7171072Y-8361357D01*
X7171072Y-8361357D02*
X7152024Y-8351833D01*
X7152024Y-8351833D02*
X7142500Y-8332786D01*
X7142500Y-8332786D02*
X7142500Y-8323262D01*
X7142500Y-8323262D02*
X7152024Y-8304214D01*
X7152024Y-8304214D02*
X7171072Y-8294690D01*
X7171072Y-8294690D02*
X7199643Y-8294690D01*
X7199643Y-8294690D02*
X7218691Y-8304214D01*
X7294881Y-8504214D02*
X7304405Y-8494690D01*
X7304405Y-8494690D02*
X7323453Y-8466119D01*
X7323453Y-8466119D02*
X7332977Y-8447071D01*
X7332977Y-8447071D02*
X7342500Y-8418500D01*
X7342500Y-8418500D02*
X7352024Y-8370881D01*
X7352024Y-8370881D02*
X7352024Y-8332786D01*
X7352024Y-8332786D02*
X7342500Y-8285167D01*
X7342500Y-8285167D02*
X7332977Y-8256595D01*
X7332977Y-8256595D02*
X7323453Y-8237548D01*
X7323453Y-8237548D02*
X7304405Y-8208976D01*
X7304405Y-8208976D02*
X7294881Y-8199452D01*
D14*
X2324927Y-8641927D02*
X2324927Y-8557073D01*
X2240073Y-8557073D01*
X2240073Y-8641927D01*
X2324927Y-8641927D01*
D11*
X2694881Y-8692024D02*
X2580595Y-8692024D01*
X2637738Y-8692024D02*
X2637738Y-8492024D01*
X2637738Y-8492024D02*
X2618690Y-8520595D01*
X2618690Y-8520595D02*
X2599643Y-8539643D01*
X2599643Y-8539643D02*
X2580595Y-8549167D01*
X2780595Y-8672976D02*
X2790119Y-8682500D01*
X2790119Y-8682500D02*
X2780595Y-8692024D01*
X2780595Y-8692024D02*
X2771071Y-8682500D01*
X2771071Y-8682500D02*
X2780595Y-8672976D01*
X2780595Y-8672976D02*
X2780595Y-8692024D01*
X2866309Y-8511071D02*
X2875833Y-8501548D01*
X2875833Y-8501548D02*
X2894881Y-8492024D01*
X2894881Y-8492024D02*
X2942500Y-8492024D01*
X2942500Y-8492024D02*
X2961548Y-8501548D01*
X2961548Y-8501548D02*
X2971071Y-8511071D01*
X2971071Y-8511071D02*
X2980595Y-8530119D01*
X2980595Y-8530119D02*
X2980595Y-8549167D01*
X2980595Y-8549167D02*
X2971071Y-8577738D01*
X2971071Y-8577738D02*
X2856786Y-8692024D01*
X2856786Y-8692024D02*
X2980595Y-8692024D01*
X3104405Y-8492024D02*
X3123452Y-8492024D01*
X3123452Y-8492024D02*
X3142500Y-8501548D01*
X3142500Y-8501548D02*
X3152024Y-8511071D01*
X3152024Y-8511071D02*
X3161548Y-8530119D01*
X3161548Y-8530119D02*
X3171071Y-8568214D01*
X3171071Y-8568214D02*
X3171071Y-8615833D01*
X3171071Y-8615833D02*
X3161548Y-8653929D01*
X3161548Y-8653929D02*
X3152024Y-8672976D01*
X3152024Y-8672976D02*
X3142500Y-8682500D01*
X3142500Y-8682500D02*
X3123452Y-8692024D01*
X3123452Y-8692024D02*
X3104405Y-8692024D01*
X3104405Y-8692024D02*
X3085357Y-8682500D01*
X3085357Y-8682500D02*
X3075833Y-8672976D01*
X3075833Y-8672976D02*
X3066309Y-8653929D01*
X3066309Y-8653929D02*
X3056786Y-8615833D01*
X3056786Y-8615833D02*
X3056786Y-8568214D01*
X3056786Y-8568214D02*
X3066309Y-8530119D01*
X3066309Y-8530119D02*
X3075833Y-8511071D01*
X3075833Y-8511071D02*
X3085357Y-8501548D01*
X3085357Y-8501548D02*
X3104405Y-8492024D01*
X3294881Y-8492024D02*
X3313929Y-8492024D01*
X3313929Y-8492024D02*
X3332976Y-8501548D01*
X3332976Y-8501548D02*
X3342500Y-8511071D01*
X3342500Y-8511071D02*
X3352024Y-8530119D01*
X3352024Y-8530119D02*
X3361548Y-8568214D01*
X3361548Y-8568214D02*
X3361548Y-8615833D01*
X3361548Y-8615833D02*
X3352024Y-8653929D01*
X3352024Y-8653929D02*
X3342500Y-8672976D01*
X3342500Y-8672976D02*
X3332976Y-8682500D01*
X3332976Y-8682500D02*
X3313929Y-8692024D01*
X3313929Y-8692024D02*
X3294881Y-8692024D01*
X3294881Y-8692024D02*
X3275833Y-8682500D01*
X3275833Y-8682500D02*
X3266309Y-8672976D01*
X3266309Y-8672976D02*
X3256786Y-8653929D01*
X3256786Y-8653929D02*
X3247262Y-8615833D01*
X3247262Y-8615833D02*
X3247262Y-8568214D01*
X3247262Y-8568214D02*
X3256786Y-8530119D01*
X3256786Y-8530119D02*
X3266309Y-8511071D01*
X3266309Y-8511071D02*
X3275833Y-8501548D01*
X3275833Y-8501548D02*
X3294881Y-8492024D01*
X3447262Y-8692024D02*
X3447262Y-8558690D01*
X3447262Y-8577738D02*
X3456786Y-8568214D01*
X3456786Y-8568214D02*
X3475833Y-8558690D01*
X3475833Y-8558690D02*
X3504405Y-8558690D01*
X3504405Y-8558690D02*
X3523452Y-8568214D01*
X3523452Y-8568214D02*
X3532976Y-8587262D01*
X3532976Y-8587262D02*
X3532976Y-8692024D01*
X3532976Y-8587262D02*
X3542500Y-8568214D01*
X3542500Y-8568214D02*
X3561548Y-8558690D01*
X3561548Y-8558690D02*
X3590119Y-8558690D01*
X3590119Y-8558690D02*
X3609167Y-8568214D01*
X3609167Y-8568214D02*
X3618690Y-8587262D01*
X3618690Y-8587262D02*
X3618690Y-8692024D01*
X3713929Y-8692024D02*
X3713929Y-8558690D01*
X3713929Y-8577738D02*
X3723452Y-8568214D01*
X3723452Y-8568214D02*
X3742500Y-8558690D01*
X3742500Y-8558690D02*
X3771071Y-8558690D01*
X3771071Y-8558690D02*
X3790119Y-8568214D01*
X3790119Y-8568214D02*
X3799643Y-8587262D01*
X3799643Y-8587262D02*
X3799643Y-8692024D01*
X3799643Y-8587262D02*
X3809167Y-8568214D01*
X3809167Y-8568214D02*
X3828214Y-8558690D01*
X3828214Y-8558690D02*
X3856786Y-8558690D01*
X3856786Y-8558690D02*
X3875833Y-8568214D01*
X3875833Y-8568214D02*
X3885357Y-8587262D01*
X3885357Y-8587262D02*
X3885357Y-8692024D01*
X4275833Y-8482500D02*
X4104405Y-8739643D01*
X4532976Y-8492024D02*
X4552024Y-8492024D01*
X4552024Y-8492024D02*
X4571072Y-8501548D01*
X4571072Y-8501548D02*
X4580595Y-8511071D01*
X4580595Y-8511071D02*
X4590119Y-8530119D01*
X4590119Y-8530119D02*
X4599643Y-8568214D01*
X4599643Y-8568214D02*
X4599643Y-8615833D01*
X4599643Y-8615833D02*
X4590119Y-8653929D01*
X4590119Y-8653929D02*
X4580595Y-8672976D01*
X4580595Y-8672976D02*
X4571072Y-8682500D01*
X4571072Y-8682500D02*
X4552024Y-8692024D01*
X4552024Y-8692024D02*
X4532976Y-8692024D01*
X4532976Y-8692024D02*
X4513929Y-8682500D01*
X4513929Y-8682500D02*
X4504405Y-8672976D01*
X4504405Y-8672976D02*
X4494881Y-8653929D01*
X4494881Y-8653929D02*
X4485357Y-8615833D01*
X4485357Y-8615833D02*
X4485357Y-8568214D01*
X4485357Y-8568214D02*
X4494881Y-8530119D01*
X4494881Y-8530119D02*
X4504405Y-8511071D01*
X4504405Y-8511071D02*
X4513929Y-8501548D01*
X4513929Y-8501548D02*
X4532976Y-8492024D01*
X4685357Y-8672976D02*
X4694881Y-8682500D01*
X4694881Y-8682500D02*
X4685357Y-8692024D01*
X4685357Y-8692024D02*
X4675834Y-8682500D01*
X4675834Y-8682500D02*
X4685357Y-8672976D01*
X4685357Y-8672976D02*
X4685357Y-8692024D01*
X4818691Y-8492024D02*
X4837738Y-8492024D01*
X4837738Y-8492024D02*
X4856786Y-8501548D01*
X4856786Y-8501548D02*
X4866310Y-8511071D01*
X4866310Y-8511071D02*
X4875834Y-8530119D01*
X4875834Y-8530119D02*
X4885357Y-8568214D01*
X4885357Y-8568214D02*
X4885357Y-8615833D01*
X4885357Y-8615833D02*
X4875834Y-8653929D01*
X4875834Y-8653929D02*
X4866310Y-8672976D01*
X4866310Y-8672976D02*
X4856786Y-8682500D01*
X4856786Y-8682500D02*
X4837738Y-8692024D01*
X4837738Y-8692024D02*
X4818691Y-8692024D01*
X4818691Y-8692024D02*
X4799643Y-8682500D01*
X4799643Y-8682500D02*
X4790119Y-8672976D01*
X4790119Y-8672976D02*
X4780595Y-8653929D01*
X4780595Y-8653929D02*
X4771072Y-8615833D01*
X4771072Y-8615833D02*
X4771072Y-8568214D01*
X4771072Y-8568214D02*
X4780595Y-8530119D01*
X4780595Y-8530119D02*
X4790119Y-8511071D01*
X4790119Y-8511071D02*
X4799643Y-8501548D01*
X4799643Y-8501548D02*
X4818691Y-8492024D01*
X5056786Y-8558690D02*
X5056786Y-8692024D01*
X5009167Y-8482500D02*
X4961548Y-8625357D01*
X4961548Y-8625357D02*
X5085357Y-8625357D01*
X5142500Y-8492024D02*
X5275834Y-8492024D01*
X5275834Y-8492024D02*
X5190119Y-8692024D01*
X5342500Y-8511071D02*
X5352024Y-8501548D01*
X5352024Y-8501548D02*
X5371072Y-8492024D01*
X5371072Y-8492024D02*
X5418691Y-8492024D01*
X5418691Y-8492024D02*
X5437738Y-8501548D01*
X5437738Y-8501548D02*
X5447262Y-8511071D01*
X5447262Y-8511071D02*
X5456786Y-8530119D01*
X5456786Y-8530119D02*
X5456786Y-8549167D01*
X5456786Y-8549167D02*
X5447262Y-8577738D01*
X5447262Y-8577738D02*
X5332976Y-8692024D01*
X5332976Y-8692024D02*
X5456786Y-8692024D01*
X5532976Y-8492024D02*
X5532976Y-8530119D01*
X5609167Y-8492024D02*
X5609167Y-8530119D01*
X5904405Y-8768214D02*
X5894881Y-8758690D01*
X5894881Y-8758690D02*
X5875834Y-8730119D01*
X5875834Y-8730119D02*
X5866310Y-8711071D01*
X5866310Y-8711071D02*
X5856786Y-8682500D01*
X5856786Y-8682500D02*
X5847262Y-8634881D01*
X5847262Y-8634881D02*
X5847262Y-8596786D01*
X5847262Y-8596786D02*
X5856786Y-8549167D01*
X5856786Y-8549167D02*
X5866310Y-8520595D01*
X5866310Y-8520595D02*
X5875834Y-8501548D01*
X5875834Y-8501548D02*
X5894881Y-8472976D01*
X5894881Y-8472976D02*
X5904405Y-8463452D01*
X6066310Y-8492024D02*
X6028214Y-8492024D01*
X6028214Y-8492024D02*
X6009167Y-8501548D01*
X6009167Y-8501548D02*
X5999643Y-8511071D01*
X5999643Y-8511071D02*
X5980595Y-8539643D01*
X5980595Y-8539643D02*
X5971072Y-8577738D01*
X5971072Y-8577738D02*
X5971072Y-8653929D01*
X5971072Y-8653929D02*
X5980595Y-8672976D01*
X5980595Y-8672976D02*
X5990119Y-8682500D01*
X5990119Y-8682500D02*
X6009167Y-8692024D01*
X6009167Y-8692024D02*
X6047262Y-8692024D01*
X6047262Y-8692024D02*
X6066310Y-8682500D01*
X6066310Y-8682500D02*
X6075834Y-8672976D01*
X6075834Y-8672976D02*
X6085357Y-8653929D01*
X6085357Y-8653929D02*
X6085357Y-8606310D01*
X6085357Y-8606310D02*
X6075834Y-8587262D01*
X6075834Y-8587262D02*
X6066310Y-8577738D01*
X6066310Y-8577738D02*
X6047262Y-8568214D01*
X6047262Y-8568214D02*
X6009167Y-8568214D01*
X6009167Y-8568214D02*
X5990119Y-8577738D01*
X5990119Y-8577738D02*
X5980595Y-8587262D01*
X5980595Y-8587262D02*
X5971072Y-8606310D01*
X6209167Y-8492024D02*
X6228215Y-8492024D01*
X6228215Y-8492024D02*
X6247262Y-8501548D01*
X6247262Y-8501548D02*
X6256786Y-8511071D01*
X6256786Y-8511071D02*
X6266310Y-8530119D01*
X6266310Y-8530119D02*
X6275834Y-8568214D01*
X6275834Y-8568214D02*
X6275834Y-8615833D01*
X6275834Y-8615833D02*
X6266310Y-8653929D01*
X6266310Y-8653929D02*
X6256786Y-8672976D01*
X6256786Y-8672976D02*
X6247262Y-8682500D01*
X6247262Y-8682500D02*
X6228215Y-8692024D01*
X6228215Y-8692024D02*
X6209167Y-8692024D01*
X6209167Y-8692024D02*
X6190119Y-8682500D01*
X6190119Y-8682500D02*
X6180595Y-8672976D01*
X6180595Y-8672976D02*
X6171072Y-8653929D01*
X6171072Y-8653929D02*
X6161548Y-8615833D01*
X6161548Y-8615833D02*
X6161548Y-8568214D01*
X6161548Y-8568214D02*
X6171072Y-8530119D01*
X6171072Y-8530119D02*
X6180595Y-8511071D01*
X6180595Y-8511071D02*
X6190119Y-8501548D01*
X6190119Y-8501548D02*
X6209167Y-8492024D01*
X6513929Y-8692024D02*
X6513929Y-8492024D01*
X6599643Y-8692024D02*
X6599643Y-8587262D01*
X6599643Y-8587262D02*
X6590119Y-8568214D01*
X6590119Y-8568214D02*
X6571072Y-8558690D01*
X6571072Y-8558690D02*
X6542500Y-8558690D01*
X6542500Y-8558690D02*
X6523453Y-8568214D01*
X6523453Y-8568214D02*
X6513929Y-8577738D01*
X6723453Y-8692024D02*
X6704405Y-8682500D01*
X6704405Y-8682500D02*
X6694881Y-8672976D01*
X6694881Y-8672976D02*
X6685357Y-8653929D01*
X6685357Y-8653929D02*
X6685357Y-8596786D01*
X6685357Y-8596786D02*
X6694881Y-8577738D01*
X6694881Y-8577738D02*
X6704405Y-8568214D01*
X6704405Y-8568214D02*
X6723453Y-8558690D01*
X6723453Y-8558690D02*
X6752024Y-8558690D01*
X6752024Y-8558690D02*
X6771072Y-8568214D01*
X6771072Y-8568214D02*
X6780596Y-8577738D01*
X6780596Y-8577738D02*
X6790119Y-8596786D01*
X6790119Y-8596786D02*
X6790119Y-8653929D01*
X6790119Y-8653929D02*
X6780596Y-8672976D01*
X6780596Y-8672976D02*
X6771072Y-8682500D01*
X6771072Y-8682500D02*
X6752024Y-8692024D01*
X6752024Y-8692024D02*
X6723453Y-8692024D01*
X6904405Y-8692024D02*
X6885357Y-8682500D01*
X6885357Y-8682500D02*
X6875834Y-8663452D01*
X6875834Y-8663452D02*
X6875834Y-8492024D01*
X7056786Y-8682500D02*
X7037738Y-8692024D01*
X7037738Y-8692024D02*
X6999643Y-8692024D01*
X6999643Y-8692024D02*
X6980596Y-8682500D01*
X6980596Y-8682500D02*
X6971072Y-8663452D01*
X6971072Y-8663452D02*
X6971072Y-8587262D01*
X6971072Y-8587262D02*
X6980596Y-8568214D01*
X6980596Y-8568214D02*
X6999643Y-8558690D01*
X6999643Y-8558690D02*
X7037738Y-8558690D01*
X7037738Y-8558690D02*
X7056786Y-8568214D01*
X7056786Y-8568214D02*
X7066310Y-8587262D01*
X7066310Y-8587262D02*
X7066310Y-8606310D01*
X7066310Y-8606310D02*
X6971072Y-8625357D01*
X7142500Y-8682500D02*
X7161548Y-8692024D01*
X7161548Y-8692024D02*
X7199643Y-8692024D01*
X7199643Y-8692024D02*
X7218691Y-8682500D01*
X7218691Y-8682500D02*
X7228215Y-8663452D01*
X7228215Y-8663452D02*
X7228215Y-8653929D01*
X7228215Y-8653929D02*
X7218691Y-8634881D01*
X7218691Y-8634881D02*
X7199643Y-8625357D01*
X7199643Y-8625357D02*
X7171072Y-8625357D01*
X7171072Y-8625357D02*
X7152024Y-8615833D01*
X7152024Y-8615833D02*
X7142500Y-8596786D01*
X7142500Y-8596786D02*
X7142500Y-8587262D01*
X7142500Y-8587262D02*
X7152024Y-8568214D01*
X7152024Y-8568214D02*
X7171072Y-8558690D01*
X7171072Y-8558690D02*
X7199643Y-8558690D01*
X7199643Y-8558690D02*
X7218691Y-8568214D01*
X7294881Y-8768214D02*
X7304405Y-8758690D01*
X7304405Y-8758690D02*
X7323453Y-8730119D01*
X7323453Y-8730119D02*
X7332977Y-8711071D01*
X7332977Y-8711071D02*
X7342500Y-8682500D01*
X7342500Y-8682500D02*
X7352024Y-8634881D01*
X7352024Y-8634881D02*
X7352024Y-8596786D01*
X7352024Y-8596786D02*
X7342500Y-8549167D01*
X7342500Y-8549167D02*
X7332977Y-8520595D01*
X7332977Y-8520595D02*
X7323453Y-8501548D01*
X7323453Y-8501548D02*
X7304405Y-8472976D01*
X7304405Y-8472976D02*
X7294881Y-8463452D01*
M02*
