%TF.GenerationSoftware,KiCad,Pcbnew,7.0.2*%
%TF.CreationDate,2023-06-15T14:07:21-05:00*%
%TF.ProjectId,Capsule,43617073-756c-4652-9e6b-696361645f70,1.0*%
%TF.SameCoordinates,Original*%
%TF.FileFunction,Paste,Bot*%
%TF.FilePolarity,Positive*%
%FSLAX46Y46*%
G04 Gerber Fmt 4.6, Leading zero omitted, Abs format (unit mm)*
G04 Created by KiCad (PCBNEW 7.0.2) date 2023-06-15 14:07:21*
%MOMM*%
%LPD*%
G01*
G04 APERTURE LIST*
G04 Aperture macros list*
%AMRoundRect*
0 Rectangle with rounded corners*
0 $1 Rounding radius*
0 $2 $3 $4 $5 $6 $7 $8 $9 X,Y pos of 4 corners*
0 Add a 4 corners polygon primitive as box body*
4,1,4,$2,$3,$4,$5,$6,$7,$8,$9,$2,$3,0*
0 Add four circle primitives for the rounded corners*
1,1,$1+$1,$2,$3*
1,1,$1+$1,$4,$5*
1,1,$1+$1,$6,$7*
1,1,$1+$1,$8,$9*
0 Add four rect primitives between the rounded corners*
20,1,$1+$1,$2,$3,$4,$5,0*
20,1,$1+$1,$4,$5,$6,$7,0*
20,1,$1+$1,$6,$7,$8,$9,0*
20,1,$1+$1,$8,$9,$2,$3,0*%
G04 Aperture macros list end*
%ADD10R,0.300000X1.275000*%
%ADD11RoundRect,0.225000X-0.375000X0.225000X-0.375000X-0.225000X0.375000X-0.225000X0.375000X0.225000X0*%
G04 APERTURE END LIST*
D10*
%TO.C,D19*%
X203200000Y-40162500D03*
D11*
X203200000Y-40750000D03*
X203200000Y-44050000D03*
%TD*%
D10*
%TO.C,D15*%
X104000000Y-39962500D03*
D11*
X104000000Y-40550000D03*
X104000000Y-43850000D03*
%TD*%
D10*
%TO.C,D13*%
X70000000Y-39962500D03*
D11*
X70000000Y-40550000D03*
X70000000Y-43850000D03*
%TD*%
D10*
%TO.C,D22*%
X53000000Y-56962500D03*
D11*
X53000000Y-57550000D03*
X53000000Y-60850000D03*
%TD*%
D10*
%TO.C,D27*%
X169200000Y-57162500D03*
D11*
X169200000Y-57750000D03*
X169200000Y-61050000D03*
%TD*%
D10*
%TO.C,D16*%
X152200000Y-40162500D03*
D11*
X152200000Y-40750000D03*
X152200000Y-44050000D03*
%TD*%
D10*
%TO.C,D6*%
X152200000Y-23162500D03*
D11*
X152200000Y-23750000D03*
X152200000Y-27050000D03*
%TD*%
D10*
%TO.C,D11*%
X36000000Y-39962500D03*
D11*
X36000000Y-40550000D03*
X36000000Y-43850000D03*
%TD*%
D10*
%TO.C,D26*%
X152200000Y-57162500D03*
D11*
X152200000Y-57750000D03*
X152200000Y-61050000D03*
%TD*%
D10*
%TO.C,D23*%
X70000000Y-56962500D03*
D11*
X70000000Y-57550000D03*
X70000000Y-60850000D03*
%TD*%
D10*
%TO.C,D12*%
X53000000Y-39962500D03*
D11*
X53000000Y-40550000D03*
X53000000Y-43850000D03*
%TD*%
D10*
%TO.C,D2*%
X53000000Y-22962500D03*
D11*
X53000000Y-23550000D03*
X53000000Y-26850000D03*
%TD*%
D10*
%TO.C,D17*%
X169200000Y-40162500D03*
D11*
X169200000Y-40750000D03*
X169200000Y-44050000D03*
%TD*%
D10*
%TO.C,D3*%
X70000000Y-22962500D03*
D11*
X70000000Y-23550000D03*
X70000000Y-26850000D03*
%TD*%
D10*
%TO.C,D29*%
X203200000Y-57162500D03*
D11*
X203200000Y-57750000D03*
X203200000Y-61050000D03*
%TD*%
D10*
%TO.C,D20*%
X220200000Y-40162500D03*
D11*
X220200000Y-40750000D03*
X220200000Y-44050000D03*
%TD*%
D10*
%TO.C,D18*%
X186200000Y-40162500D03*
D11*
X186200000Y-40750000D03*
X186200000Y-44050000D03*
%TD*%
D10*
%TO.C,D14*%
X87000000Y-39962500D03*
D11*
X87000000Y-40550000D03*
X87000000Y-43850000D03*
%TD*%
D10*
%TO.C,D5*%
X104000000Y-22962500D03*
D11*
X104000000Y-23550000D03*
X104000000Y-26850000D03*
%TD*%
D10*
%TO.C,D1*%
X36000000Y-22962500D03*
D11*
X36000000Y-23550000D03*
X36000000Y-26850000D03*
%TD*%
D10*
%TO.C,D30*%
X220200000Y-57162500D03*
D11*
X220200000Y-57750000D03*
X220200000Y-61050000D03*
%TD*%
D10*
%TO.C,D21*%
X36000000Y-56962500D03*
D11*
X36000000Y-57550000D03*
X36000000Y-60850000D03*
%TD*%
D10*
%TO.C,D25*%
X104000000Y-56962500D03*
D11*
X104000000Y-57550000D03*
X104000000Y-60850000D03*
%TD*%
D10*
%TO.C,D8*%
X186200000Y-23162500D03*
D11*
X186200000Y-23750000D03*
X186200000Y-27050000D03*
%TD*%
D10*
%TO.C,D28*%
X186200000Y-57162500D03*
D11*
X186200000Y-57750000D03*
X186200000Y-61050000D03*
%TD*%
D10*
%TO.C,D24*%
X87000000Y-56962500D03*
D11*
X87000000Y-57550000D03*
X87000000Y-60850000D03*
%TD*%
D10*
%TO.C,D7*%
X169200000Y-23162500D03*
D11*
X169200000Y-23750000D03*
X169200000Y-27050000D03*
%TD*%
D10*
%TO.C,D10*%
X220200000Y-23162500D03*
D11*
X220200000Y-23750000D03*
X220200000Y-27050000D03*
%TD*%
D10*
%TO.C,D9*%
X203200000Y-23162500D03*
D11*
X203200000Y-23750000D03*
X203200000Y-27050000D03*
%TD*%
D10*
%TO.C,D4*%
X87000000Y-22962500D03*
D11*
X87000000Y-23550000D03*
X87000000Y-26850000D03*
%TD*%
M02*
