M48
; DRILL file {KiCad 7.0.2} date Thu Jun 15 14:11:36 2023
; FORMAT={-:-/ absolute / metric / decimal}
; #@! TF.CreationDate,2023-06-15T14:11:36-05:00
; #@! TF.GenerationSoftware,Kicad,Pcbnew,7.0.2
; #@! TF.FileFunction,Plated,1,2,PTH
FMAT,2
METRIC
; #@! TA.AperFunction,Plated,PTH,ViaDrill
T1C0.300
; #@! TA.AperFunction,Plated,PTH,ComponentDrill
T2C0.300
; #@! TA.AperFunction,Plated,PTH,ComponentDrill
T3C1.000
; #@! TA.AperFunction,Plated,PTH,ComponentDrill
T4C1.200
%
G90
G05
T1
X28.5Y-36.6
X45.5Y-37.6
X62.5Y-38.6
X79.5Y-53.4
X96.5Y-54.4
X109.8Y-53.4
X110.6Y-54.4
X112.2Y-60.6
X132.2Y-63.0
X134.4Y-60.5
X144.5Y-43.2
X161.5Y-42.2
X178.5Y-38.826
X195.5Y-38.2
X212.5Y-37.2
T2
X36.0Y-22.3
X36.0Y-39.3
X36.0Y-56.3
X53.0Y-22.3
X53.0Y-39.3
X53.0Y-56.3
X70.0Y-22.3
X70.0Y-39.3
X70.0Y-56.3
X87.0Y-22.3
X87.0Y-39.3
X87.0Y-56.3
X104.0Y-22.3
X104.0Y-39.3
X104.0Y-56.3
X152.2Y-22.5
X152.2Y-39.5
X152.2Y-56.5
X169.2Y-22.5
X169.2Y-39.5
X169.2Y-56.5
X186.2Y-22.5
X186.2Y-39.5
X186.2Y-56.5
X203.2Y-22.5
X203.2Y-39.5
X203.2Y-56.5
X220.2Y-22.5
X220.2Y-39.5
X220.2Y-56.5
T3
X117.58Y-21.84
X117.58Y-24.38
X117.58Y-26.92
X117.58Y-29.46
X117.58Y-32.0
X117.58Y-34.54
X117.58Y-37.08
X117.58Y-39.62
X117.58Y-42.16
X119.46Y-60.5
X120.12Y-42.16
X122.0Y-60.5
X122.66Y-42.16
X124.54Y-60.5
X125.2Y-42.16
X127.08Y-60.5
X127.74Y-42.16
X129.62Y-60.5
X130.28Y-42.16
X132.82Y-21.84
X132.82Y-24.38
X132.82Y-26.92
X132.82Y-29.46
X132.82Y-32.0
X132.82Y-34.54
X132.82Y-37.08
X132.82Y-39.62
X132.82Y-42.16
T4
X27.5Y-32.4
X27.5Y-49.4
X27.5Y-66.4
X32.5Y-34.5
X32.5Y-51.5
X32.5Y-68.5
X44.5Y-32.4
X44.5Y-49.4
X44.5Y-66.4
X49.5Y-34.5
X49.5Y-51.5
X49.5Y-68.5
X61.5Y-32.4
X61.5Y-49.4
X61.5Y-66.4
X66.5Y-34.5
X66.5Y-51.5
X66.5Y-68.5
X78.5Y-32.4
X78.5Y-49.4
X78.5Y-66.4
X83.5Y-34.5
X83.5Y-51.5
X83.5Y-68.5
X95.5Y-32.4
X95.5Y-49.4
X95.5Y-66.4
X100.5Y-34.5
X100.5Y-51.5
X100.5Y-68.5
X143.5Y-32.4
X143.5Y-49.4
X143.5Y-66.4
X148.5Y-34.5
X148.5Y-51.5
X148.5Y-68.5
X160.5Y-32.4
X160.5Y-49.4
X160.5Y-66.4
X165.5Y-34.5
X165.5Y-51.5
X165.5Y-68.5
X177.5Y-32.4
X177.5Y-49.4
X177.5Y-66.4
X182.5Y-34.5
X182.5Y-51.5
X182.5Y-68.5
X194.5Y-32.4
X194.5Y-49.4
X194.5Y-66.4
X199.5Y-34.5
X199.5Y-51.5
X199.5Y-68.5
X211.5Y-32.4
X211.5Y-49.4
X211.5Y-66.4
X216.5Y-34.5
X216.5Y-51.5
X216.5Y-68.5
T0
M30
