%TF.GenerationSoftware,KiCad,Pcbnew,7.0.2*%
%TF.CreationDate,2023-06-15T14:11:53-05:00*%
%TF.ProjectId,Capsule,43617073-756c-4652-9e6b-696361645f70,1.0*%
%TF.SameCoordinates,Original*%
%TF.FileFunction,Drillmap*%
%TF.FilePolarity,Positive*%
%FSLAX45Y45*%
G04 Gerber Fmt 4.5, Leading zero omitted, Abs format (unit mm)*
G04 Created by KiCad (PCBNEW 7.0.2) date 2023-06-15 14:11:53*
%MOMM*%
%LPD*%
G01*
G04 APERTURE LIST*
%ADD10C,0.150000*%
%ADD11C,0.200000*%
%ADD12C,0.190000*%
%ADD13C,0.340000*%
G04 APERTURE END LIST*
D10*
X22500000Y-7160000D02*
G75*
G03*
X22550000Y-7110000I0J50000D01*
G01*
X22500000Y-1960000D02*
X13140000Y-1960000D01*
X11920000Y-1980000D02*
X11920000Y-2025000D01*
X11920000Y-1980000D02*
G75*
G03*
X11900000Y-1960000I-20000J0D01*
G01*
X13140000Y-1960000D02*
G75*
G03*
X13120000Y-1980000I0J-20000D01*
G01*
X22550000Y-2010000D02*
G75*
G03*
X22500000Y-1960000I-50000J0D01*
G01*
X2400000Y-1960000D02*
G75*
G03*
X2350000Y-2010000I0J-50000D01*
G01*
X22550000Y-7110000D02*
X22550000Y-2010000D01*
X2350000Y-7110000D02*
G75*
G03*
X2400000Y-7160000I50000J0D01*
G01*
X13120000Y-2025000D02*
X13120000Y-1980000D01*
X2400000Y-7160000D02*
X22500000Y-7160000D01*
X2350000Y-2010000D02*
X2350000Y-7110000D01*
X2400000Y-1960000D02*
X11900000Y-1960000D01*
D11*
D12*
X2605000Y-2765000D02*
X2795000Y-2955000D01*
X2795000Y-2765000D02*
X2605000Y-2955000D01*
X2605000Y-4465000D02*
X2795000Y-4655000D01*
X2795000Y-4465000D02*
X2605000Y-4655000D01*
X2605000Y-6165000D02*
X2795000Y-6355000D01*
X2795000Y-6165000D02*
X2605000Y-6355000D01*
X3705000Y-2765000D02*
X3895000Y-2955000D01*
X3895000Y-2765000D02*
X3705000Y-2955000D01*
X3705000Y-4465000D02*
X3895000Y-4655000D01*
X3895000Y-4465000D02*
X3705000Y-4655000D01*
X3705000Y-6165000D02*
X3895000Y-6355000D01*
X3895000Y-6165000D02*
X3705000Y-6355000D01*
X4305000Y-2765000D02*
X4495000Y-2955000D01*
X4495000Y-2765000D02*
X4305000Y-2955000D01*
X4305000Y-4465000D02*
X4495000Y-4655000D01*
X4495000Y-4465000D02*
X4305000Y-4655000D01*
X4305000Y-6165000D02*
X4495000Y-6355000D01*
X4495000Y-6165000D02*
X4305000Y-6355000D01*
X5405000Y-2765000D02*
X5595000Y-2955000D01*
X5595000Y-2765000D02*
X5405000Y-2955000D01*
X5405000Y-4465000D02*
X5595000Y-4655000D01*
X5595000Y-4465000D02*
X5405000Y-4655000D01*
X5405000Y-6165000D02*
X5595000Y-6355000D01*
X5595000Y-6165000D02*
X5405000Y-6355000D01*
X6005000Y-2765000D02*
X6195000Y-2955000D01*
X6195000Y-2765000D02*
X6005000Y-2955000D01*
X6005000Y-4465000D02*
X6195000Y-4655000D01*
X6195000Y-4465000D02*
X6005000Y-4655000D01*
X6005000Y-6165000D02*
X6195000Y-6355000D01*
X6195000Y-6165000D02*
X6005000Y-6355000D01*
X7105000Y-2765000D02*
X7295000Y-2955000D01*
X7295000Y-2765000D02*
X7105000Y-2955000D01*
X7105000Y-4465000D02*
X7295000Y-4655000D01*
X7295000Y-4465000D02*
X7105000Y-4655000D01*
X7105000Y-6165000D02*
X7295000Y-6355000D01*
X7295000Y-6165000D02*
X7105000Y-6355000D01*
X7705000Y-2765000D02*
X7895000Y-2955000D01*
X7895000Y-2765000D02*
X7705000Y-2955000D01*
X7705000Y-4465000D02*
X7895000Y-4655000D01*
X7895000Y-4465000D02*
X7705000Y-4655000D01*
X7705000Y-6165000D02*
X7895000Y-6355000D01*
X7895000Y-6165000D02*
X7705000Y-6355000D01*
X8805000Y-2765000D02*
X8995000Y-2955000D01*
X8995000Y-2765000D02*
X8805000Y-2955000D01*
X8805000Y-4465000D02*
X8995000Y-4655000D01*
X8995000Y-4465000D02*
X8805000Y-4655000D01*
X8805000Y-6165000D02*
X8995000Y-6355000D01*
X8995000Y-6165000D02*
X8805000Y-6355000D01*
X9405000Y-2765000D02*
X9595000Y-2955000D01*
X9595000Y-2765000D02*
X9405000Y-2955000D01*
X9405000Y-4465000D02*
X9595000Y-4655000D01*
X9595000Y-4465000D02*
X9405000Y-4655000D01*
X9405000Y-6165000D02*
X9595000Y-6355000D01*
X9595000Y-6165000D02*
X9405000Y-6355000D01*
X10505000Y-2765000D02*
X10695000Y-2955000D01*
X10695000Y-2765000D02*
X10505000Y-2955000D01*
X10505000Y-4465000D02*
X10695000Y-4655000D01*
X10695000Y-4465000D02*
X10505000Y-4655000D01*
X10505000Y-6165000D02*
X10695000Y-6355000D01*
X10695000Y-6165000D02*
X10505000Y-6355000D01*
X14205000Y-2765000D02*
X14395000Y-2955000D01*
X14395000Y-2765000D02*
X14205000Y-2955000D01*
X14205000Y-4465000D02*
X14395000Y-4655000D01*
X14395000Y-4465000D02*
X14205000Y-4655000D01*
X14205000Y-6165000D02*
X14395000Y-6355000D01*
X14395000Y-6165000D02*
X14205000Y-6355000D01*
X15305000Y-2765000D02*
X15495000Y-2955000D01*
X15495000Y-2765000D02*
X15305000Y-2955000D01*
X15305000Y-4465000D02*
X15495000Y-4655000D01*
X15495000Y-4465000D02*
X15305000Y-4655000D01*
X15305000Y-6165000D02*
X15495000Y-6355000D01*
X15495000Y-6165000D02*
X15305000Y-6355000D01*
X15905000Y-2765000D02*
X16095000Y-2955000D01*
X16095000Y-2765000D02*
X15905000Y-2955000D01*
X15905000Y-4465000D02*
X16095000Y-4655000D01*
X16095000Y-4465000D02*
X15905000Y-4655000D01*
X15905000Y-6165000D02*
X16095000Y-6355000D01*
X16095000Y-6165000D02*
X15905000Y-6355000D01*
X17005000Y-2765000D02*
X17195000Y-2955000D01*
X17195000Y-2765000D02*
X17005000Y-2955000D01*
X17005000Y-4465000D02*
X17195000Y-4655000D01*
X17195000Y-4465000D02*
X17005000Y-4655000D01*
X17005000Y-6165000D02*
X17195000Y-6355000D01*
X17195000Y-6165000D02*
X17005000Y-6355000D01*
X17605000Y-2765000D02*
X17795000Y-2955000D01*
X17795000Y-2765000D02*
X17605000Y-2955000D01*
X17605000Y-4465000D02*
X17795000Y-4655000D01*
X17795000Y-4465000D02*
X17605000Y-4655000D01*
X17605000Y-6165000D02*
X17795000Y-6355000D01*
X17795000Y-6165000D02*
X17605000Y-6355000D01*
X18705000Y-2765000D02*
X18895000Y-2955000D01*
X18895000Y-2765000D02*
X18705000Y-2955000D01*
X18705000Y-4465000D02*
X18895000Y-4655000D01*
X18895000Y-4465000D02*
X18705000Y-4655000D01*
X18705000Y-6165000D02*
X18895000Y-6355000D01*
X18895000Y-6165000D02*
X18705000Y-6355000D01*
X19305000Y-2765000D02*
X19495000Y-2955000D01*
X19495000Y-2765000D02*
X19305000Y-2955000D01*
X19305000Y-4465000D02*
X19495000Y-4655000D01*
X19495000Y-4465000D02*
X19305000Y-4655000D01*
X19305000Y-6165000D02*
X19495000Y-6355000D01*
X19495000Y-6165000D02*
X19305000Y-6355000D01*
X20405000Y-2765000D02*
X20595000Y-2955000D01*
X20595000Y-2765000D02*
X20405000Y-2955000D01*
X20405000Y-4465000D02*
X20595000Y-4655000D01*
X20595000Y-4465000D02*
X20405000Y-4655000D01*
X20405000Y-6165000D02*
X20595000Y-6355000D01*
X20595000Y-6165000D02*
X20405000Y-6355000D01*
X21005000Y-2765000D02*
X21195000Y-2955000D01*
X21195000Y-2765000D02*
X21005000Y-2955000D01*
X21005000Y-4465000D02*
X21195000Y-4655000D01*
X21195000Y-4465000D02*
X21005000Y-4655000D01*
X21005000Y-6165000D02*
X21195000Y-6355000D01*
X21195000Y-6165000D02*
X21005000Y-6355000D01*
X22105000Y-2765000D02*
X22295000Y-2955000D01*
X22295000Y-2765000D02*
X22105000Y-2955000D01*
X22105000Y-4465000D02*
X22295000Y-4655000D01*
X22295000Y-4465000D02*
X22105000Y-4655000D01*
X22105000Y-6165000D02*
X22295000Y-6355000D01*
X22295000Y-6165000D02*
X22105000Y-6355000D01*
D13*
X3420000Y-2860000D02*
G75*
G03*
X3420000Y-2860000I-170000J0D01*
G01*
X3420000Y-4560000D02*
G75*
G03*
X3420000Y-4560000I-170000J0D01*
G01*
X3420000Y-6260000D02*
G75*
G03*
X3420000Y-6260000I-170000J0D01*
G01*
X5120000Y-2860000D02*
G75*
G03*
X5120000Y-2860000I-170000J0D01*
G01*
X5120000Y-4560000D02*
G75*
G03*
X5120000Y-4560000I-170000J0D01*
G01*
X5120000Y-6260000D02*
G75*
G03*
X5120000Y-6260000I-170000J0D01*
G01*
X6820000Y-2860000D02*
G75*
G03*
X6820000Y-2860000I-170000J0D01*
G01*
X6820000Y-4560000D02*
G75*
G03*
X6820000Y-4560000I-170000J0D01*
G01*
X6820000Y-6260000D02*
G75*
G03*
X6820000Y-6260000I-170000J0D01*
G01*
X8520000Y-2860000D02*
G75*
G03*
X8520000Y-2860000I-170000J0D01*
G01*
X8520000Y-4560000D02*
G75*
G03*
X8520000Y-4560000I-170000J0D01*
G01*
X8520000Y-6260000D02*
G75*
G03*
X8520000Y-6260000I-170000J0D01*
G01*
X10220000Y-2860000D02*
G75*
G03*
X10220000Y-2860000I-170000J0D01*
G01*
X10220000Y-4560000D02*
G75*
G03*
X10220000Y-4560000I-170000J0D01*
G01*
X10220000Y-6260000D02*
G75*
G03*
X10220000Y-6260000I-170000J0D01*
G01*
X15020000Y-2860000D02*
G75*
G03*
X15020000Y-2860000I-170000J0D01*
G01*
X15020000Y-4560000D02*
G75*
G03*
X15020000Y-4560000I-170000J0D01*
G01*
X15020000Y-6260000D02*
G75*
G03*
X15020000Y-6260000I-170000J0D01*
G01*
X16720000Y-2860000D02*
G75*
G03*
X16720000Y-2860000I-170000J0D01*
G01*
X16720000Y-4560000D02*
G75*
G03*
X16720000Y-4560000I-170000J0D01*
G01*
X16720000Y-6260000D02*
G75*
G03*
X16720000Y-6260000I-170000J0D01*
G01*
X18420000Y-2860000D02*
G75*
G03*
X18420000Y-2860000I-170000J0D01*
G01*
X18420000Y-4560000D02*
G75*
G03*
X18420000Y-4560000I-170000J0D01*
G01*
X18420000Y-6260000D02*
G75*
G03*
X18420000Y-6260000I-170000J0D01*
G01*
X20120000Y-2860000D02*
G75*
G03*
X20120000Y-2860000I-170000J0D01*
G01*
X20120000Y-4560000D02*
G75*
G03*
X20120000Y-4560000I-170000J0D01*
G01*
X20120000Y-6260000D02*
G75*
G03*
X20120000Y-6260000I-170000J0D01*
G01*
X21820000Y-2860000D02*
G75*
G03*
X21820000Y-2860000I-170000J0D01*
G01*
X21820000Y-4560000D02*
G75*
G03*
X21820000Y-4560000I-170000J0D01*
G01*
X21820000Y-6260000D02*
G75*
G03*
X21820000Y-6260000I-170000J0D01*
G01*
D11*
X2590119Y-7480024D02*
X2590119Y-7280024D01*
X2590119Y-7280024D02*
X2637738Y-7280024D01*
X2637738Y-7280024D02*
X2666310Y-7289548D01*
X2666310Y-7289548D02*
X2685357Y-7308595D01*
X2685357Y-7308595D02*
X2694881Y-7327643D01*
X2694881Y-7327643D02*
X2704405Y-7365738D01*
X2704405Y-7365738D02*
X2704405Y-7394309D01*
X2704405Y-7394309D02*
X2694881Y-7432405D01*
X2694881Y-7432405D02*
X2685357Y-7451452D01*
X2685357Y-7451452D02*
X2666310Y-7470500D01*
X2666310Y-7470500D02*
X2637738Y-7480024D01*
X2637738Y-7480024D02*
X2590119Y-7480024D01*
X2790119Y-7480024D02*
X2790119Y-7346690D01*
X2790119Y-7384786D02*
X2799643Y-7365738D01*
X2799643Y-7365738D02*
X2809167Y-7356214D01*
X2809167Y-7356214D02*
X2828214Y-7346690D01*
X2828214Y-7346690D02*
X2847262Y-7346690D01*
X2913928Y-7480024D02*
X2913928Y-7346690D01*
X2913928Y-7280024D02*
X2904405Y-7289548D01*
X2904405Y-7289548D02*
X2913928Y-7299071D01*
X2913928Y-7299071D02*
X2923452Y-7289548D01*
X2923452Y-7289548D02*
X2913928Y-7280024D01*
X2913928Y-7280024D02*
X2913928Y-7299071D01*
X3037738Y-7480024D02*
X3018690Y-7470500D01*
X3018690Y-7470500D02*
X3009167Y-7451452D01*
X3009167Y-7451452D02*
X3009167Y-7280024D01*
X3142500Y-7480024D02*
X3123452Y-7470500D01*
X3123452Y-7470500D02*
X3113928Y-7451452D01*
X3113928Y-7451452D02*
X3113928Y-7280024D01*
X3371071Y-7480024D02*
X3371071Y-7280024D01*
X3371071Y-7280024D02*
X3437738Y-7422881D01*
X3437738Y-7422881D02*
X3504405Y-7280024D01*
X3504405Y-7280024D02*
X3504405Y-7480024D01*
X3685357Y-7480024D02*
X3685357Y-7375262D01*
X3685357Y-7375262D02*
X3675833Y-7356214D01*
X3675833Y-7356214D02*
X3656786Y-7346690D01*
X3656786Y-7346690D02*
X3618690Y-7346690D01*
X3618690Y-7346690D02*
X3599643Y-7356214D01*
X3685357Y-7470500D02*
X3666309Y-7480024D01*
X3666309Y-7480024D02*
X3618690Y-7480024D01*
X3618690Y-7480024D02*
X3599643Y-7470500D01*
X3599643Y-7470500D02*
X3590119Y-7451452D01*
X3590119Y-7451452D02*
X3590119Y-7432405D01*
X3590119Y-7432405D02*
X3599643Y-7413357D01*
X3599643Y-7413357D02*
X3618690Y-7403833D01*
X3618690Y-7403833D02*
X3666309Y-7403833D01*
X3666309Y-7403833D02*
X3685357Y-7394309D01*
X3780595Y-7346690D02*
X3780595Y-7546690D01*
X3780595Y-7356214D02*
X3799643Y-7346690D01*
X3799643Y-7346690D02*
X3837738Y-7346690D01*
X3837738Y-7346690D02*
X3856786Y-7356214D01*
X3856786Y-7356214D02*
X3866309Y-7365738D01*
X3866309Y-7365738D02*
X3875833Y-7384786D01*
X3875833Y-7384786D02*
X3875833Y-7441928D01*
X3875833Y-7441928D02*
X3866309Y-7460976D01*
X3866309Y-7460976D02*
X3856786Y-7470500D01*
X3856786Y-7470500D02*
X3837738Y-7480024D01*
X3837738Y-7480024D02*
X3799643Y-7480024D01*
X3799643Y-7480024D02*
X3780595Y-7470500D01*
X3961548Y-7460976D02*
X3971071Y-7470500D01*
X3971071Y-7470500D02*
X3961548Y-7480024D01*
X3961548Y-7480024D02*
X3952024Y-7470500D01*
X3952024Y-7470500D02*
X3961548Y-7460976D01*
X3961548Y-7460976D02*
X3961548Y-7480024D01*
X3961548Y-7356214D02*
X3971071Y-7365738D01*
X3971071Y-7365738D02*
X3961548Y-7375262D01*
X3961548Y-7375262D02*
X3952024Y-7365738D01*
X3952024Y-7365738D02*
X3961548Y-7356214D01*
X3961548Y-7356214D02*
X3961548Y-7375262D01*
D12*
X2152500Y-7712500D02*
X2342500Y-7902500D01*
X2342500Y-7712500D02*
X2152500Y-7902500D01*
D11*
X2694881Y-7900024D02*
X2580595Y-7900024D01*
X2637738Y-7900024D02*
X2637738Y-7700024D01*
X2637738Y-7700024D02*
X2618690Y-7728595D01*
X2618690Y-7728595D02*
X2599643Y-7747643D01*
X2599643Y-7747643D02*
X2580595Y-7757167D01*
X2780595Y-7880976D02*
X2790119Y-7890500D01*
X2790119Y-7890500D02*
X2780595Y-7900024D01*
X2780595Y-7900024D02*
X2771071Y-7890500D01*
X2771071Y-7890500D02*
X2780595Y-7880976D01*
X2780595Y-7880976D02*
X2780595Y-7900024D01*
X2885357Y-7900024D02*
X2923452Y-7900024D01*
X2923452Y-7900024D02*
X2942500Y-7890500D01*
X2942500Y-7890500D02*
X2952024Y-7880976D01*
X2952024Y-7880976D02*
X2971071Y-7852405D01*
X2971071Y-7852405D02*
X2980595Y-7814309D01*
X2980595Y-7814309D02*
X2980595Y-7738119D01*
X2980595Y-7738119D02*
X2971071Y-7719071D01*
X2971071Y-7719071D02*
X2961548Y-7709548D01*
X2961548Y-7709548D02*
X2942500Y-7700024D01*
X2942500Y-7700024D02*
X2904405Y-7700024D01*
X2904405Y-7700024D02*
X2885357Y-7709548D01*
X2885357Y-7709548D02*
X2875833Y-7719071D01*
X2875833Y-7719071D02*
X2866309Y-7738119D01*
X2866309Y-7738119D02*
X2866309Y-7785738D01*
X2866309Y-7785738D02*
X2875833Y-7804786D01*
X2875833Y-7804786D02*
X2885357Y-7814309D01*
X2885357Y-7814309D02*
X2904405Y-7823833D01*
X2904405Y-7823833D02*
X2942500Y-7823833D01*
X2942500Y-7823833D02*
X2961548Y-7814309D01*
X2961548Y-7814309D02*
X2971071Y-7804786D01*
X2971071Y-7804786D02*
X2980595Y-7785738D01*
X3104405Y-7700024D02*
X3123452Y-7700024D01*
X3123452Y-7700024D02*
X3142500Y-7709548D01*
X3142500Y-7709548D02*
X3152024Y-7719071D01*
X3152024Y-7719071D02*
X3161548Y-7738119D01*
X3161548Y-7738119D02*
X3171071Y-7776214D01*
X3171071Y-7776214D02*
X3171071Y-7823833D01*
X3171071Y-7823833D02*
X3161548Y-7861928D01*
X3161548Y-7861928D02*
X3152024Y-7880976D01*
X3152024Y-7880976D02*
X3142500Y-7890500D01*
X3142500Y-7890500D02*
X3123452Y-7900024D01*
X3123452Y-7900024D02*
X3104405Y-7900024D01*
X3104405Y-7900024D02*
X3085357Y-7890500D01*
X3085357Y-7890500D02*
X3075833Y-7880976D01*
X3075833Y-7880976D02*
X3066309Y-7861928D01*
X3066309Y-7861928D02*
X3056786Y-7823833D01*
X3056786Y-7823833D02*
X3056786Y-7776214D01*
X3056786Y-7776214D02*
X3066309Y-7738119D01*
X3066309Y-7738119D02*
X3075833Y-7719071D01*
X3075833Y-7719071D02*
X3085357Y-7709548D01*
X3085357Y-7709548D02*
X3104405Y-7700024D01*
X3294881Y-7700024D02*
X3313929Y-7700024D01*
X3313929Y-7700024D02*
X3332976Y-7709548D01*
X3332976Y-7709548D02*
X3342500Y-7719071D01*
X3342500Y-7719071D02*
X3352024Y-7738119D01*
X3352024Y-7738119D02*
X3361548Y-7776214D01*
X3361548Y-7776214D02*
X3361548Y-7823833D01*
X3361548Y-7823833D02*
X3352024Y-7861928D01*
X3352024Y-7861928D02*
X3342500Y-7880976D01*
X3342500Y-7880976D02*
X3332976Y-7890500D01*
X3332976Y-7890500D02*
X3313929Y-7900024D01*
X3313929Y-7900024D02*
X3294881Y-7900024D01*
X3294881Y-7900024D02*
X3275833Y-7890500D01*
X3275833Y-7890500D02*
X3266309Y-7880976D01*
X3266309Y-7880976D02*
X3256786Y-7861928D01*
X3256786Y-7861928D02*
X3247262Y-7823833D01*
X3247262Y-7823833D02*
X3247262Y-7776214D01*
X3247262Y-7776214D02*
X3256786Y-7738119D01*
X3256786Y-7738119D02*
X3266309Y-7719071D01*
X3266309Y-7719071D02*
X3275833Y-7709548D01*
X3275833Y-7709548D02*
X3294881Y-7700024D01*
X3447262Y-7900024D02*
X3447262Y-7766690D01*
X3447262Y-7785738D02*
X3456786Y-7776214D01*
X3456786Y-7776214D02*
X3475833Y-7766690D01*
X3475833Y-7766690D02*
X3504405Y-7766690D01*
X3504405Y-7766690D02*
X3523452Y-7776214D01*
X3523452Y-7776214D02*
X3532976Y-7795262D01*
X3532976Y-7795262D02*
X3532976Y-7900024D01*
X3532976Y-7795262D02*
X3542500Y-7776214D01*
X3542500Y-7776214D02*
X3561548Y-7766690D01*
X3561548Y-7766690D02*
X3590119Y-7766690D01*
X3590119Y-7766690D02*
X3609167Y-7776214D01*
X3609167Y-7776214D02*
X3618690Y-7795262D01*
X3618690Y-7795262D02*
X3618690Y-7900024D01*
X3713929Y-7900024D02*
X3713929Y-7766690D01*
X3713929Y-7785738D02*
X3723452Y-7776214D01*
X3723452Y-7776214D02*
X3742500Y-7766690D01*
X3742500Y-7766690D02*
X3771071Y-7766690D01*
X3771071Y-7766690D02*
X3790119Y-7776214D01*
X3790119Y-7776214D02*
X3799643Y-7795262D01*
X3799643Y-7795262D02*
X3799643Y-7900024D01*
X3799643Y-7795262D02*
X3809167Y-7776214D01*
X3809167Y-7776214D02*
X3828214Y-7766690D01*
X3828214Y-7766690D02*
X3856786Y-7766690D01*
X3856786Y-7766690D02*
X3875833Y-7776214D01*
X3875833Y-7776214D02*
X3885357Y-7795262D01*
X3885357Y-7795262D02*
X3885357Y-7900024D01*
X4275833Y-7690500D02*
X4104405Y-7947643D01*
X4532976Y-7700024D02*
X4552024Y-7700024D01*
X4552024Y-7700024D02*
X4571072Y-7709548D01*
X4571072Y-7709548D02*
X4580595Y-7719071D01*
X4580595Y-7719071D02*
X4590119Y-7738119D01*
X4590119Y-7738119D02*
X4599643Y-7776214D01*
X4599643Y-7776214D02*
X4599643Y-7823833D01*
X4599643Y-7823833D02*
X4590119Y-7861928D01*
X4590119Y-7861928D02*
X4580595Y-7880976D01*
X4580595Y-7880976D02*
X4571072Y-7890500D01*
X4571072Y-7890500D02*
X4552024Y-7900024D01*
X4552024Y-7900024D02*
X4532976Y-7900024D01*
X4532976Y-7900024D02*
X4513929Y-7890500D01*
X4513929Y-7890500D02*
X4504405Y-7880976D01*
X4504405Y-7880976D02*
X4494881Y-7861928D01*
X4494881Y-7861928D02*
X4485357Y-7823833D01*
X4485357Y-7823833D02*
X4485357Y-7776214D01*
X4485357Y-7776214D02*
X4494881Y-7738119D01*
X4494881Y-7738119D02*
X4504405Y-7719071D01*
X4504405Y-7719071D02*
X4513929Y-7709548D01*
X4513929Y-7709548D02*
X4532976Y-7700024D01*
X4685357Y-7880976D02*
X4694881Y-7890500D01*
X4694881Y-7890500D02*
X4685357Y-7900024D01*
X4685357Y-7900024D02*
X4675834Y-7890500D01*
X4675834Y-7890500D02*
X4685357Y-7880976D01*
X4685357Y-7880976D02*
X4685357Y-7900024D01*
X4818691Y-7700024D02*
X4837738Y-7700024D01*
X4837738Y-7700024D02*
X4856786Y-7709548D01*
X4856786Y-7709548D02*
X4866310Y-7719071D01*
X4866310Y-7719071D02*
X4875834Y-7738119D01*
X4875834Y-7738119D02*
X4885357Y-7776214D01*
X4885357Y-7776214D02*
X4885357Y-7823833D01*
X4885357Y-7823833D02*
X4875834Y-7861928D01*
X4875834Y-7861928D02*
X4866310Y-7880976D01*
X4866310Y-7880976D02*
X4856786Y-7890500D01*
X4856786Y-7890500D02*
X4837738Y-7900024D01*
X4837738Y-7900024D02*
X4818691Y-7900024D01*
X4818691Y-7900024D02*
X4799643Y-7890500D01*
X4799643Y-7890500D02*
X4790119Y-7880976D01*
X4790119Y-7880976D02*
X4780595Y-7861928D01*
X4780595Y-7861928D02*
X4771072Y-7823833D01*
X4771072Y-7823833D02*
X4771072Y-7776214D01*
X4771072Y-7776214D02*
X4780595Y-7738119D01*
X4780595Y-7738119D02*
X4790119Y-7719071D01*
X4790119Y-7719071D02*
X4799643Y-7709548D01*
X4799643Y-7709548D02*
X4818691Y-7700024D01*
X4952024Y-7700024D02*
X5085357Y-7700024D01*
X5085357Y-7700024D02*
X4999643Y-7900024D01*
X5247262Y-7766690D02*
X5247262Y-7900024D01*
X5199643Y-7690500D02*
X5152024Y-7833357D01*
X5152024Y-7833357D02*
X5275834Y-7833357D01*
X5380595Y-7785738D02*
X5361548Y-7776214D01*
X5361548Y-7776214D02*
X5352024Y-7766690D01*
X5352024Y-7766690D02*
X5342500Y-7747643D01*
X5342500Y-7747643D02*
X5342500Y-7738119D01*
X5342500Y-7738119D02*
X5352024Y-7719071D01*
X5352024Y-7719071D02*
X5361548Y-7709548D01*
X5361548Y-7709548D02*
X5380595Y-7700024D01*
X5380595Y-7700024D02*
X5418691Y-7700024D01*
X5418691Y-7700024D02*
X5437738Y-7709548D01*
X5437738Y-7709548D02*
X5447262Y-7719071D01*
X5447262Y-7719071D02*
X5456786Y-7738119D01*
X5456786Y-7738119D02*
X5456786Y-7747643D01*
X5456786Y-7747643D02*
X5447262Y-7766690D01*
X5447262Y-7766690D02*
X5437738Y-7776214D01*
X5437738Y-7776214D02*
X5418691Y-7785738D01*
X5418691Y-7785738D02*
X5380595Y-7785738D01*
X5380595Y-7785738D02*
X5361548Y-7795262D01*
X5361548Y-7795262D02*
X5352024Y-7804786D01*
X5352024Y-7804786D02*
X5342500Y-7823833D01*
X5342500Y-7823833D02*
X5342500Y-7861928D01*
X5342500Y-7861928D02*
X5352024Y-7880976D01*
X5352024Y-7880976D02*
X5361548Y-7890500D01*
X5361548Y-7890500D02*
X5380595Y-7900024D01*
X5380595Y-7900024D02*
X5418691Y-7900024D01*
X5418691Y-7900024D02*
X5437738Y-7890500D01*
X5437738Y-7890500D02*
X5447262Y-7880976D01*
X5447262Y-7880976D02*
X5456786Y-7861928D01*
X5456786Y-7861928D02*
X5456786Y-7823833D01*
X5456786Y-7823833D02*
X5447262Y-7804786D01*
X5447262Y-7804786D02*
X5437738Y-7795262D01*
X5437738Y-7795262D02*
X5418691Y-7785738D01*
X5532976Y-7700024D02*
X5532976Y-7738119D01*
X5609167Y-7700024D02*
X5609167Y-7738119D01*
X5904405Y-7976214D02*
X5894881Y-7966690D01*
X5894881Y-7966690D02*
X5875834Y-7938119D01*
X5875834Y-7938119D02*
X5866310Y-7919071D01*
X5866310Y-7919071D02*
X5856786Y-7890500D01*
X5856786Y-7890500D02*
X5847262Y-7842881D01*
X5847262Y-7842881D02*
X5847262Y-7804786D01*
X5847262Y-7804786D02*
X5856786Y-7757167D01*
X5856786Y-7757167D02*
X5866310Y-7728595D01*
X5866310Y-7728595D02*
X5875834Y-7709548D01*
X5875834Y-7709548D02*
X5894881Y-7680976D01*
X5894881Y-7680976D02*
X5904405Y-7671452D01*
X6066310Y-7700024D02*
X6028214Y-7700024D01*
X6028214Y-7700024D02*
X6009167Y-7709548D01*
X6009167Y-7709548D02*
X5999643Y-7719071D01*
X5999643Y-7719071D02*
X5980595Y-7747643D01*
X5980595Y-7747643D02*
X5971072Y-7785738D01*
X5971072Y-7785738D02*
X5971072Y-7861928D01*
X5971072Y-7861928D02*
X5980595Y-7880976D01*
X5980595Y-7880976D02*
X5990119Y-7890500D01*
X5990119Y-7890500D02*
X6009167Y-7900024D01*
X6009167Y-7900024D02*
X6047262Y-7900024D01*
X6047262Y-7900024D02*
X6066310Y-7890500D01*
X6066310Y-7890500D02*
X6075834Y-7880976D01*
X6075834Y-7880976D02*
X6085357Y-7861928D01*
X6085357Y-7861928D02*
X6085357Y-7814309D01*
X6085357Y-7814309D02*
X6075834Y-7795262D01*
X6075834Y-7795262D02*
X6066310Y-7785738D01*
X6066310Y-7785738D02*
X6047262Y-7776214D01*
X6047262Y-7776214D02*
X6009167Y-7776214D01*
X6009167Y-7776214D02*
X5990119Y-7785738D01*
X5990119Y-7785738D02*
X5980595Y-7795262D01*
X5980595Y-7795262D02*
X5971072Y-7814309D01*
X6209167Y-7700024D02*
X6228215Y-7700024D01*
X6228215Y-7700024D02*
X6247262Y-7709548D01*
X6247262Y-7709548D02*
X6256786Y-7719071D01*
X6256786Y-7719071D02*
X6266310Y-7738119D01*
X6266310Y-7738119D02*
X6275834Y-7776214D01*
X6275834Y-7776214D02*
X6275834Y-7823833D01*
X6275834Y-7823833D02*
X6266310Y-7861928D01*
X6266310Y-7861928D02*
X6256786Y-7880976D01*
X6256786Y-7880976D02*
X6247262Y-7890500D01*
X6247262Y-7890500D02*
X6228215Y-7900024D01*
X6228215Y-7900024D02*
X6209167Y-7900024D01*
X6209167Y-7900024D02*
X6190119Y-7890500D01*
X6190119Y-7890500D02*
X6180595Y-7880976D01*
X6180595Y-7880976D02*
X6171072Y-7861928D01*
X6171072Y-7861928D02*
X6161548Y-7823833D01*
X6161548Y-7823833D02*
X6161548Y-7776214D01*
X6161548Y-7776214D02*
X6171072Y-7738119D01*
X6171072Y-7738119D02*
X6180595Y-7719071D01*
X6180595Y-7719071D02*
X6190119Y-7709548D01*
X6190119Y-7709548D02*
X6209167Y-7700024D01*
X6513929Y-7900024D02*
X6513929Y-7700024D01*
X6599643Y-7900024D02*
X6599643Y-7795262D01*
X6599643Y-7795262D02*
X6590119Y-7776214D01*
X6590119Y-7776214D02*
X6571072Y-7766690D01*
X6571072Y-7766690D02*
X6542500Y-7766690D01*
X6542500Y-7766690D02*
X6523453Y-7776214D01*
X6523453Y-7776214D02*
X6513929Y-7785738D01*
X6723453Y-7900024D02*
X6704405Y-7890500D01*
X6704405Y-7890500D02*
X6694881Y-7880976D01*
X6694881Y-7880976D02*
X6685357Y-7861928D01*
X6685357Y-7861928D02*
X6685357Y-7804786D01*
X6685357Y-7804786D02*
X6694881Y-7785738D01*
X6694881Y-7785738D02*
X6704405Y-7776214D01*
X6704405Y-7776214D02*
X6723453Y-7766690D01*
X6723453Y-7766690D02*
X6752024Y-7766690D01*
X6752024Y-7766690D02*
X6771072Y-7776214D01*
X6771072Y-7776214D02*
X6780596Y-7785738D01*
X6780596Y-7785738D02*
X6790119Y-7804786D01*
X6790119Y-7804786D02*
X6790119Y-7861928D01*
X6790119Y-7861928D02*
X6780596Y-7880976D01*
X6780596Y-7880976D02*
X6771072Y-7890500D01*
X6771072Y-7890500D02*
X6752024Y-7900024D01*
X6752024Y-7900024D02*
X6723453Y-7900024D01*
X6904405Y-7900024D02*
X6885357Y-7890500D01*
X6885357Y-7890500D02*
X6875834Y-7871452D01*
X6875834Y-7871452D02*
X6875834Y-7700024D01*
X7056786Y-7890500D02*
X7037738Y-7900024D01*
X7037738Y-7900024D02*
X6999643Y-7900024D01*
X6999643Y-7900024D02*
X6980596Y-7890500D01*
X6980596Y-7890500D02*
X6971072Y-7871452D01*
X6971072Y-7871452D02*
X6971072Y-7795262D01*
X6971072Y-7795262D02*
X6980596Y-7776214D01*
X6980596Y-7776214D02*
X6999643Y-7766690D01*
X6999643Y-7766690D02*
X7037738Y-7766690D01*
X7037738Y-7766690D02*
X7056786Y-7776214D01*
X7056786Y-7776214D02*
X7066310Y-7795262D01*
X7066310Y-7795262D02*
X7066310Y-7814309D01*
X7066310Y-7814309D02*
X6971072Y-7833357D01*
X7142500Y-7890500D02*
X7161548Y-7900024D01*
X7161548Y-7900024D02*
X7199643Y-7900024D01*
X7199643Y-7900024D02*
X7218691Y-7890500D01*
X7218691Y-7890500D02*
X7228215Y-7871452D01*
X7228215Y-7871452D02*
X7228215Y-7861928D01*
X7228215Y-7861928D02*
X7218691Y-7842881D01*
X7218691Y-7842881D02*
X7199643Y-7833357D01*
X7199643Y-7833357D02*
X7171072Y-7833357D01*
X7171072Y-7833357D02*
X7152024Y-7823833D01*
X7152024Y-7823833D02*
X7142500Y-7804786D01*
X7142500Y-7804786D02*
X7142500Y-7795262D01*
X7142500Y-7795262D02*
X7152024Y-7776214D01*
X7152024Y-7776214D02*
X7171072Y-7766690D01*
X7171072Y-7766690D02*
X7199643Y-7766690D01*
X7199643Y-7766690D02*
X7218691Y-7776214D01*
X7294881Y-7976214D02*
X7304405Y-7966690D01*
X7304405Y-7966690D02*
X7323453Y-7938119D01*
X7323453Y-7938119D02*
X7332977Y-7919071D01*
X7332977Y-7919071D02*
X7342500Y-7890500D01*
X7342500Y-7890500D02*
X7352024Y-7842881D01*
X7352024Y-7842881D02*
X7352024Y-7804786D01*
X7352024Y-7804786D02*
X7342500Y-7757167D01*
X7342500Y-7757167D02*
X7332977Y-7728595D01*
X7332977Y-7728595D02*
X7323453Y-7709548D01*
X7323453Y-7709548D02*
X7304405Y-7680976D01*
X7304405Y-7680976D02*
X7294881Y-7671452D01*
X7656786Y-7976214D02*
X7647262Y-7966690D01*
X7647262Y-7966690D02*
X7628215Y-7938119D01*
X7628215Y-7938119D02*
X7618691Y-7919071D01*
X7618691Y-7919071D02*
X7609167Y-7890500D01*
X7609167Y-7890500D02*
X7599643Y-7842881D01*
X7599643Y-7842881D02*
X7599643Y-7804786D01*
X7599643Y-7804786D02*
X7609167Y-7757167D01*
X7609167Y-7757167D02*
X7618691Y-7728595D01*
X7618691Y-7728595D02*
X7628215Y-7709548D01*
X7628215Y-7709548D02*
X7647262Y-7680976D01*
X7647262Y-7680976D02*
X7656786Y-7671452D01*
X7732977Y-7766690D02*
X7732977Y-7900024D01*
X7732977Y-7785738D02*
X7742500Y-7776214D01*
X7742500Y-7776214D02*
X7761548Y-7766690D01*
X7761548Y-7766690D02*
X7790119Y-7766690D01*
X7790119Y-7766690D02*
X7809167Y-7776214D01*
X7809167Y-7776214D02*
X7818691Y-7795262D01*
X7818691Y-7795262D02*
X7818691Y-7900024D01*
X7942500Y-7900024D02*
X7923453Y-7890500D01*
X7923453Y-7890500D02*
X7913929Y-7880976D01*
X7913929Y-7880976D02*
X7904405Y-7861928D01*
X7904405Y-7861928D02*
X7904405Y-7804786D01*
X7904405Y-7804786D02*
X7913929Y-7785738D01*
X7913929Y-7785738D02*
X7923453Y-7776214D01*
X7923453Y-7776214D02*
X7942500Y-7766690D01*
X7942500Y-7766690D02*
X7971072Y-7766690D01*
X7971072Y-7766690D02*
X7990119Y-7776214D01*
X7990119Y-7776214D02*
X7999643Y-7785738D01*
X7999643Y-7785738D02*
X8009167Y-7804786D01*
X8009167Y-7804786D02*
X8009167Y-7861928D01*
X8009167Y-7861928D02*
X7999643Y-7880976D01*
X7999643Y-7880976D02*
X7990119Y-7890500D01*
X7990119Y-7890500D02*
X7971072Y-7900024D01*
X7971072Y-7900024D02*
X7942500Y-7900024D01*
X8066310Y-7766690D02*
X8142500Y-7766690D01*
X8094881Y-7700024D02*
X8094881Y-7871452D01*
X8094881Y-7871452D02*
X8104405Y-7890500D01*
X8104405Y-7890500D02*
X8123453Y-7900024D01*
X8123453Y-7900024D02*
X8142500Y-7900024D01*
X8361548Y-7766690D02*
X8361548Y-7966690D01*
X8361548Y-7776214D02*
X8380596Y-7766690D01*
X8380596Y-7766690D02*
X8418691Y-7766690D01*
X8418691Y-7766690D02*
X8437739Y-7776214D01*
X8437739Y-7776214D02*
X8447262Y-7785738D01*
X8447262Y-7785738D02*
X8456786Y-7804786D01*
X8456786Y-7804786D02*
X8456786Y-7861928D01*
X8456786Y-7861928D02*
X8447262Y-7880976D01*
X8447262Y-7880976D02*
X8437739Y-7890500D01*
X8437739Y-7890500D02*
X8418691Y-7900024D01*
X8418691Y-7900024D02*
X8380596Y-7900024D01*
X8380596Y-7900024D02*
X8361548Y-7890500D01*
X8571072Y-7900024D02*
X8552024Y-7890500D01*
X8552024Y-7890500D02*
X8542501Y-7871452D01*
X8542501Y-7871452D02*
X8542501Y-7700024D01*
X8732977Y-7900024D02*
X8732977Y-7795262D01*
X8732977Y-7795262D02*
X8723453Y-7776214D01*
X8723453Y-7776214D02*
X8704405Y-7766690D01*
X8704405Y-7766690D02*
X8666310Y-7766690D01*
X8666310Y-7766690D02*
X8647262Y-7776214D01*
X8732977Y-7890500D02*
X8713929Y-7900024D01*
X8713929Y-7900024D02*
X8666310Y-7900024D01*
X8666310Y-7900024D02*
X8647262Y-7890500D01*
X8647262Y-7890500D02*
X8637739Y-7871452D01*
X8637739Y-7871452D02*
X8637739Y-7852405D01*
X8637739Y-7852405D02*
X8647262Y-7833357D01*
X8647262Y-7833357D02*
X8666310Y-7823833D01*
X8666310Y-7823833D02*
X8713929Y-7823833D01*
X8713929Y-7823833D02*
X8732977Y-7814309D01*
X8799643Y-7766690D02*
X8875834Y-7766690D01*
X8828215Y-7700024D02*
X8828215Y-7871452D01*
X8828215Y-7871452D02*
X8837739Y-7890500D01*
X8837739Y-7890500D02*
X8856786Y-7900024D01*
X8856786Y-7900024D02*
X8875834Y-7900024D01*
X9018691Y-7890500D02*
X8999643Y-7900024D01*
X8999643Y-7900024D02*
X8961548Y-7900024D01*
X8961548Y-7900024D02*
X8942501Y-7890500D01*
X8942501Y-7890500D02*
X8932977Y-7871452D01*
X8932977Y-7871452D02*
X8932977Y-7795262D01*
X8932977Y-7795262D02*
X8942501Y-7776214D01*
X8942501Y-7776214D02*
X8961548Y-7766690D01*
X8961548Y-7766690D02*
X8999643Y-7766690D01*
X8999643Y-7766690D02*
X9018691Y-7776214D01*
X9018691Y-7776214D02*
X9028215Y-7795262D01*
X9028215Y-7795262D02*
X9028215Y-7814309D01*
X9028215Y-7814309D02*
X8932977Y-7833357D01*
X9199643Y-7900024D02*
X9199643Y-7700024D01*
X9199643Y-7890500D02*
X9180596Y-7900024D01*
X9180596Y-7900024D02*
X9142501Y-7900024D01*
X9142501Y-7900024D02*
X9123453Y-7890500D01*
X9123453Y-7890500D02*
X9113929Y-7880976D01*
X9113929Y-7880976D02*
X9104405Y-7861928D01*
X9104405Y-7861928D02*
X9104405Y-7804786D01*
X9104405Y-7804786D02*
X9113929Y-7785738D01*
X9113929Y-7785738D02*
X9123453Y-7776214D01*
X9123453Y-7776214D02*
X9142501Y-7766690D01*
X9142501Y-7766690D02*
X9180596Y-7766690D01*
X9180596Y-7766690D02*
X9199643Y-7776214D01*
X9275834Y-7976214D02*
X9285358Y-7966690D01*
X9285358Y-7966690D02*
X9304405Y-7938119D01*
X9304405Y-7938119D02*
X9313929Y-7919071D01*
X9313929Y-7919071D02*
X9323453Y-7890500D01*
X9323453Y-7890500D02*
X9332977Y-7842881D01*
X9332977Y-7842881D02*
X9332977Y-7804786D01*
X9332977Y-7804786D02*
X9323453Y-7757167D01*
X9323453Y-7757167D02*
X9313929Y-7728595D01*
X9313929Y-7728595D02*
X9304405Y-7709548D01*
X9304405Y-7709548D02*
X9285358Y-7680976D01*
X9285358Y-7680976D02*
X9275834Y-7671452D01*
X2342500Y-8117500D02*
G75*
G03*
X2342500Y-8117500I-100000J0D01*
G01*
X2571071Y-8010024D02*
X2694881Y-8010024D01*
X2694881Y-8010024D02*
X2628214Y-8086214D01*
X2628214Y-8086214D02*
X2656786Y-8086214D01*
X2656786Y-8086214D02*
X2675833Y-8095738D01*
X2675833Y-8095738D02*
X2685357Y-8105262D01*
X2685357Y-8105262D02*
X2694881Y-8124309D01*
X2694881Y-8124309D02*
X2694881Y-8171928D01*
X2694881Y-8171928D02*
X2685357Y-8190976D01*
X2685357Y-8190976D02*
X2675833Y-8200500D01*
X2675833Y-8200500D02*
X2656786Y-8210024D01*
X2656786Y-8210024D02*
X2599643Y-8210024D01*
X2599643Y-8210024D02*
X2580595Y-8200500D01*
X2580595Y-8200500D02*
X2571071Y-8190976D01*
X2780595Y-8190976D02*
X2790119Y-8200500D01*
X2790119Y-8200500D02*
X2780595Y-8210024D01*
X2780595Y-8210024D02*
X2771071Y-8200500D01*
X2771071Y-8200500D02*
X2780595Y-8190976D01*
X2780595Y-8190976D02*
X2780595Y-8210024D01*
X2961548Y-8076690D02*
X2961548Y-8210024D01*
X2913928Y-8000500D02*
X2866309Y-8143357D01*
X2866309Y-8143357D02*
X2990119Y-8143357D01*
X3104405Y-8010024D02*
X3123452Y-8010024D01*
X3123452Y-8010024D02*
X3142500Y-8019548D01*
X3142500Y-8019548D02*
X3152024Y-8029071D01*
X3152024Y-8029071D02*
X3161548Y-8048119D01*
X3161548Y-8048119D02*
X3171071Y-8086214D01*
X3171071Y-8086214D02*
X3171071Y-8133833D01*
X3171071Y-8133833D02*
X3161548Y-8171928D01*
X3161548Y-8171928D02*
X3152024Y-8190976D01*
X3152024Y-8190976D02*
X3142500Y-8200500D01*
X3142500Y-8200500D02*
X3123452Y-8210024D01*
X3123452Y-8210024D02*
X3104405Y-8210024D01*
X3104405Y-8210024D02*
X3085357Y-8200500D01*
X3085357Y-8200500D02*
X3075833Y-8190976D01*
X3075833Y-8190976D02*
X3066309Y-8171928D01*
X3066309Y-8171928D02*
X3056786Y-8133833D01*
X3056786Y-8133833D02*
X3056786Y-8086214D01*
X3056786Y-8086214D02*
X3066309Y-8048119D01*
X3066309Y-8048119D02*
X3075833Y-8029071D01*
X3075833Y-8029071D02*
X3085357Y-8019548D01*
X3085357Y-8019548D02*
X3104405Y-8010024D01*
X3294881Y-8010024D02*
X3313929Y-8010024D01*
X3313929Y-8010024D02*
X3332976Y-8019548D01*
X3332976Y-8019548D02*
X3342500Y-8029071D01*
X3342500Y-8029071D02*
X3352024Y-8048119D01*
X3352024Y-8048119D02*
X3361548Y-8086214D01*
X3361548Y-8086214D02*
X3361548Y-8133833D01*
X3361548Y-8133833D02*
X3352024Y-8171928D01*
X3352024Y-8171928D02*
X3342500Y-8190976D01*
X3342500Y-8190976D02*
X3332976Y-8200500D01*
X3332976Y-8200500D02*
X3313929Y-8210024D01*
X3313929Y-8210024D02*
X3294881Y-8210024D01*
X3294881Y-8210024D02*
X3275833Y-8200500D01*
X3275833Y-8200500D02*
X3266309Y-8190976D01*
X3266309Y-8190976D02*
X3256786Y-8171928D01*
X3256786Y-8171928D02*
X3247262Y-8133833D01*
X3247262Y-8133833D02*
X3247262Y-8086214D01*
X3247262Y-8086214D02*
X3256786Y-8048119D01*
X3256786Y-8048119D02*
X3266309Y-8029071D01*
X3266309Y-8029071D02*
X3275833Y-8019548D01*
X3275833Y-8019548D02*
X3294881Y-8010024D01*
X3447262Y-8210024D02*
X3447262Y-8076690D01*
X3447262Y-8095738D02*
X3456786Y-8086214D01*
X3456786Y-8086214D02*
X3475833Y-8076690D01*
X3475833Y-8076690D02*
X3504405Y-8076690D01*
X3504405Y-8076690D02*
X3523452Y-8086214D01*
X3523452Y-8086214D02*
X3532976Y-8105262D01*
X3532976Y-8105262D02*
X3532976Y-8210024D01*
X3532976Y-8105262D02*
X3542500Y-8086214D01*
X3542500Y-8086214D02*
X3561548Y-8076690D01*
X3561548Y-8076690D02*
X3590119Y-8076690D01*
X3590119Y-8076690D02*
X3609167Y-8086214D01*
X3609167Y-8086214D02*
X3618690Y-8105262D01*
X3618690Y-8105262D02*
X3618690Y-8210024D01*
X3713929Y-8210024D02*
X3713929Y-8076690D01*
X3713929Y-8095738D02*
X3723452Y-8086214D01*
X3723452Y-8086214D02*
X3742500Y-8076690D01*
X3742500Y-8076690D02*
X3771071Y-8076690D01*
X3771071Y-8076690D02*
X3790119Y-8086214D01*
X3790119Y-8086214D02*
X3799643Y-8105262D01*
X3799643Y-8105262D02*
X3799643Y-8210024D01*
X3799643Y-8105262D02*
X3809167Y-8086214D01*
X3809167Y-8086214D02*
X3828214Y-8076690D01*
X3828214Y-8076690D02*
X3856786Y-8076690D01*
X3856786Y-8076690D02*
X3875833Y-8086214D01*
X3875833Y-8086214D02*
X3885357Y-8105262D01*
X3885357Y-8105262D02*
X3885357Y-8210024D01*
X4275833Y-8000500D02*
X4104405Y-8257643D01*
X4532976Y-8010024D02*
X4552024Y-8010024D01*
X4552024Y-8010024D02*
X4571072Y-8019548D01*
X4571072Y-8019548D02*
X4580595Y-8029071D01*
X4580595Y-8029071D02*
X4590119Y-8048119D01*
X4590119Y-8048119D02*
X4599643Y-8086214D01*
X4599643Y-8086214D02*
X4599643Y-8133833D01*
X4599643Y-8133833D02*
X4590119Y-8171928D01*
X4590119Y-8171928D02*
X4580595Y-8190976D01*
X4580595Y-8190976D02*
X4571072Y-8200500D01*
X4571072Y-8200500D02*
X4552024Y-8210024D01*
X4552024Y-8210024D02*
X4532976Y-8210024D01*
X4532976Y-8210024D02*
X4513929Y-8200500D01*
X4513929Y-8200500D02*
X4504405Y-8190976D01*
X4504405Y-8190976D02*
X4494881Y-8171928D01*
X4494881Y-8171928D02*
X4485357Y-8133833D01*
X4485357Y-8133833D02*
X4485357Y-8086214D01*
X4485357Y-8086214D02*
X4494881Y-8048119D01*
X4494881Y-8048119D02*
X4504405Y-8029071D01*
X4504405Y-8029071D02*
X4513929Y-8019548D01*
X4513929Y-8019548D02*
X4532976Y-8010024D01*
X4685357Y-8190976D02*
X4694881Y-8200500D01*
X4694881Y-8200500D02*
X4685357Y-8210024D01*
X4685357Y-8210024D02*
X4675834Y-8200500D01*
X4675834Y-8200500D02*
X4685357Y-8190976D01*
X4685357Y-8190976D02*
X4685357Y-8210024D01*
X4885357Y-8210024D02*
X4771072Y-8210024D01*
X4828214Y-8210024D02*
X4828214Y-8010024D01*
X4828214Y-8010024D02*
X4809167Y-8038595D01*
X4809167Y-8038595D02*
X4790119Y-8057643D01*
X4790119Y-8057643D02*
X4771072Y-8067167D01*
X4952024Y-8010024D02*
X5075834Y-8010024D01*
X5075834Y-8010024D02*
X5009167Y-8086214D01*
X5009167Y-8086214D02*
X5037738Y-8086214D01*
X5037738Y-8086214D02*
X5056786Y-8095738D01*
X5056786Y-8095738D02*
X5066310Y-8105262D01*
X5066310Y-8105262D02*
X5075834Y-8124309D01*
X5075834Y-8124309D02*
X5075834Y-8171928D01*
X5075834Y-8171928D02*
X5066310Y-8190976D01*
X5066310Y-8190976D02*
X5056786Y-8200500D01*
X5056786Y-8200500D02*
X5037738Y-8210024D01*
X5037738Y-8210024D02*
X4980595Y-8210024D01*
X4980595Y-8210024D02*
X4961548Y-8200500D01*
X4961548Y-8200500D02*
X4952024Y-8190976D01*
X5142500Y-8010024D02*
X5266310Y-8010024D01*
X5266310Y-8010024D02*
X5199643Y-8086214D01*
X5199643Y-8086214D02*
X5228215Y-8086214D01*
X5228215Y-8086214D02*
X5247262Y-8095738D01*
X5247262Y-8095738D02*
X5256786Y-8105262D01*
X5256786Y-8105262D02*
X5266310Y-8124309D01*
X5266310Y-8124309D02*
X5266310Y-8171928D01*
X5266310Y-8171928D02*
X5256786Y-8190976D01*
X5256786Y-8190976D02*
X5247262Y-8200500D01*
X5247262Y-8200500D02*
X5228215Y-8210024D01*
X5228215Y-8210024D02*
X5171072Y-8210024D01*
X5171072Y-8210024D02*
X5152024Y-8200500D01*
X5152024Y-8200500D02*
X5142500Y-8190976D01*
X5361548Y-8210024D02*
X5399643Y-8210024D01*
X5399643Y-8210024D02*
X5418691Y-8200500D01*
X5418691Y-8200500D02*
X5428215Y-8190976D01*
X5428215Y-8190976D02*
X5447262Y-8162405D01*
X5447262Y-8162405D02*
X5456786Y-8124309D01*
X5456786Y-8124309D02*
X5456786Y-8048119D01*
X5456786Y-8048119D02*
X5447262Y-8029071D01*
X5447262Y-8029071D02*
X5437738Y-8019548D01*
X5437738Y-8019548D02*
X5418691Y-8010024D01*
X5418691Y-8010024D02*
X5380595Y-8010024D01*
X5380595Y-8010024D02*
X5361548Y-8019548D01*
X5361548Y-8019548D02*
X5352024Y-8029071D01*
X5352024Y-8029071D02*
X5342500Y-8048119D01*
X5342500Y-8048119D02*
X5342500Y-8095738D01*
X5342500Y-8095738D02*
X5352024Y-8114786D01*
X5352024Y-8114786D02*
X5361548Y-8124309D01*
X5361548Y-8124309D02*
X5380595Y-8133833D01*
X5380595Y-8133833D02*
X5418691Y-8133833D01*
X5418691Y-8133833D02*
X5437738Y-8124309D01*
X5437738Y-8124309D02*
X5447262Y-8114786D01*
X5447262Y-8114786D02*
X5456786Y-8095738D01*
X5532976Y-8010024D02*
X5532976Y-8048119D01*
X5609167Y-8010024D02*
X5609167Y-8048119D01*
X5904405Y-8286214D02*
X5894881Y-8276690D01*
X5894881Y-8276690D02*
X5875834Y-8248119D01*
X5875834Y-8248119D02*
X5866310Y-8229071D01*
X5866310Y-8229071D02*
X5856786Y-8200500D01*
X5856786Y-8200500D02*
X5847262Y-8152881D01*
X5847262Y-8152881D02*
X5847262Y-8114786D01*
X5847262Y-8114786D02*
X5856786Y-8067167D01*
X5856786Y-8067167D02*
X5866310Y-8038595D01*
X5866310Y-8038595D02*
X5875834Y-8019548D01*
X5875834Y-8019548D02*
X5894881Y-7990976D01*
X5894881Y-7990976D02*
X5904405Y-7981452D01*
X5961548Y-8010024D02*
X6085357Y-8010024D01*
X6085357Y-8010024D02*
X6018691Y-8086214D01*
X6018691Y-8086214D02*
X6047262Y-8086214D01*
X6047262Y-8086214D02*
X6066310Y-8095738D01*
X6066310Y-8095738D02*
X6075834Y-8105262D01*
X6075834Y-8105262D02*
X6085357Y-8124309D01*
X6085357Y-8124309D02*
X6085357Y-8171928D01*
X6085357Y-8171928D02*
X6075834Y-8190976D01*
X6075834Y-8190976D02*
X6066310Y-8200500D01*
X6066310Y-8200500D02*
X6047262Y-8210024D01*
X6047262Y-8210024D02*
X5990119Y-8210024D01*
X5990119Y-8210024D02*
X5971072Y-8200500D01*
X5971072Y-8200500D02*
X5961548Y-8190976D01*
X6209167Y-8010024D02*
X6228215Y-8010024D01*
X6228215Y-8010024D02*
X6247262Y-8019548D01*
X6247262Y-8019548D02*
X6256786Y-8029071D01*
X6256786Y-8029071D02*
X6266310Y-8048119D01*
X6266310Y-8048119D02*
X6275834Y-8086214D01*
X6275834Y-8086214D02*
X6275834Y-8133833D01*
X6275834Y-8133833D02*
X6266310Y-8171928D01*
X6266310Y-8171928D02*
X6256786Y-8190976D01*
X6256786Y-8190976D02*
X6247262Y-8200500D01*
X6247262Y-8200500D02*
X6228215Y-8210024D01*
X6228215Y-8210024D02*
X6209167Y-8210024D01*
X6209167Y-8210024D02*
X6190119Y-8200500D01*
X6190119Y-8200500D02*
X6180595Y-8190976D01*
X6180595Y-8190976D02*
X6171072Y-8171928D01*
X6171072Y-8171928D02*
X6161548Y-8133833D01*
X6161548Y-8133833D02*
X6161548Y-8086214D01*
X6161548Y-8086214D02*
X6171072Y-8048119D01*
X6171072Y-8048119D02*
X6180595Y-8029071D01*
X6180595Y-8029071D02*
X6190119Y-8019548D01*
X6190119Y-8019548D02*
X6209167Y-8010024D01*
X6513929Y-8210024D02*
X6513929Y-8010024D01*
X6599643Y-8210024D02*
X6599643Y-8105262D01*
X6599643Y-8105262D02*
X6590119Y-8086214D01*
X6590119Y-8086214D02*
X6571072Y-8076690D01*
X6571072Y-8076690D02*
X6542500Y-8076690D01*
X6542500Y-8076690D02*
X6523453Y-8086214D01*
X6523453Y-8086214D02*
X6513929Y-8095738D01*
X6723453Y-8210024D02*
X6704405Y-8200500D01*
X6704405Y-8200500D02*
X6694881Y-8190976D01*
X6694881Y-8190976D02*
X6685357Y-8171928D01*
X6685357Y-8171928D02*
X6685357Y-8114786D01*
X6685357Y-8114786D02*
X6694881Y-8095738D01*
X6694881Y-8095738D02*
X6704405Y-8086214D01*
X6704405Y-8086214D02*
X6723453Y-8076690D01*
X6723453Y-8076690D02*
X6752024Y-8076690D01*
X6752024Y-8076690D02*
X6771072Y-8086214D01*
X6771072Y-8086214D02*
X6780596Y-8095738D01*
X6780596Y-8095738D02*
X6790119Y-8114786D01*
X6790119Y-8114786D02*
X6790119Y-8171928D01*
X6790119Y-8171928D02*
X6780596Y-8190976D01*
X6780596Y-8190976D02*
X6771072Y-8200500D01*
X6771072Y-8200500D02*
X6752024Y-8210024D01*
X6752024Y-8210024D02*
X6723453Y-8210024D01*
X6904405Y-8210024D02*
X6885357Y-8200500D01*
X6885357Y-8200500D02*
X6875834Y-8181452D01*
X6875834Y-8181452D02*
X6875834Y-8010024D01*
X7056786Y-8200500D02*
X7037738Y-8210024D01*
X7037738Y-8210024D02*
X6999643Y-8210024D01*
X6999643Y-8210024D02*
X6980596Y-8200500D01*
X6980596Y-8200500D02*
X6971072Y-8181452D01*
X6971072Y-8181452D02*
X6971072Y-8105262D01*
X6971072Y-8105262D02*
X6980596Y-8086214D01*
X6980596Y-8086214D02*
X6999643Y-8076690D01*
X6999643Y-8076690D02*
X7037738Y-8076690D01*
X7037738Y-8076690D02*
X7056786Y-8086214D01*
X7056786Y-8086214D02*
X7066310Y-8105262D01*
X7066310Y-8105262D02*
X7066310Y-8124309D01*
X7066310Y-8124309D02*
X6971072Y-8143357D01*
X7142500Y-8200500D02*
X7161548Y-8210024D01*
X7161548Y-8210024D02*
X7199643Y-8210024D01*
X7199643Y-8210024D02*
X7218691Y-8200500D01*
X7218691Y-8200500D02*
X7228215Y-8181452D01*
X7228215Y-8181452D02*
X7228215Y-8171928D01*
X7228215Y-8171928D02*
X7218691Y-8152881D01*
X7218691Y-8152881D02*
X7199643Y-8143357D01*
X7199643Y-8143357D02*
X7171072Y-8143357D01*
X7171072Y-8143357D02*
X7152024Y-8133833D01*
X7152024Y-8133833D02*
X7142500Y-8114786D01*
X7142500Y-8114786D02*
X7142500Y-8105262D01*
X7142500Y-8105262D02*
X7152024Y-8086214D01*
X7152024Y-8086214D02*
X7171072Y-8076690D01*
X7171072Y-8076690D02*
X7199643Y-8076690D01*
X7199643Y-8076690D02*
X7218691Y-8086214D01*
X7294881Y-8286214D02*
X7304405Y-8276690D01*
X7304405Y-8276690D02*
X7323453Y-8248119D01*
X7323453Y-8248119D02*
X7332977Y-8229071D01*
X7332977Y-8229071D02*
X7342500Y-8200500D01*
X7342500Y-8200500D02*
X7352024Y-8152881D01*
X7352024Y-8152881D02*
X7352024Y-8114786D01*
X7352024Y-8114786D02*
X7342500Y-8067167D01*
X7342500Y-8067167D02*
X7332977Y-8038595D01*
X7332977Y-8038595D02*
X7323453Y-8019548D01*
X7323453Y-8019548D02*
X7304405Y-7990976D01*
X7304405Y-7990976D02*
X7294881Y-7981452D01*
X7656786Y-8286214D02*
X7647262Y-8276690D01*
X7647262Y-8276690D02*
X7628215Y-8248119D01*
X7628215Y-8248119D02*
X7618691Y-8229071D01*
X7618691Y-8229071D02*
X7609167Y-8200500D01*
X7609167Y-8200500D02*
X7599643Y-8152881D01*
X7599643Y-8152881D02*
X7599643Y-8114786D01*
X7599643Y-8114786D02*
X7609167Y-8067167D01*
X7609167Y-8067167D02*
X7618691Y-8038595D01*
X7618691Y-8038595D02*
X7628215Y-8019548D01*
X7628215Y-8019548D02*
X7647262Y-7990976D01*
X7647262Y-7990976D02*
X7656786Y-7981452D01*
X7732977Y-8076690D02*
X7732977Y-8210024D01*
X7732977Y-8095738D02*
X7742500Y-8086214D01*
X7742500Y-8086214D02*
X7761548Y-8076690D01*
X7761548Y-8076690D02*
X7790119Y-8076690D01*
X7790119Y-8076690D02*
X7809167Y-8086214D01*
X7809167Y-8086214D02*
X7818691Y-8105262D01*
X7818691Y-8105262D02*
X7818691Y-8210024D01*
X7942500Y-8210024D02*
X7923453Y-8200500D01*
X7923453Y-8200500D02*
X7913929Y-8190976D01*
X7913929Y-8190976D02*
X7904405Y-8171928D01*
X7904405Y-8171928D02*
X7904405Y-8114786D01*
X7904405Y-8114786D02*
X7913929Y-8095738D01*
X7913929Y-8095738D02*
X7923453Y-8086214D01*
X7923453Y-8086214D02*
X7942500Y-8076690D01*
X7942500Y-8076690D02*
X7971072Y-8076690D01*
X7971072Y-8076690D02*
X7990119Y-8086214D01*
X7990119Y-8086214D02*
X7999643Y-8095738D01*
X7999643Y-8095738D02*
X8009167Y-8114786D01*
X8009167Y-8114786D02*
X8009167Y-8171928D01*
X8009167Y-8171928D02*
X7999643Y-8190976D01*
X7999643Y-8190976D02*
X7990119Y-8200500D01*
X7990119Y-8200500D02*
X7971072Y-8210024D01*
X7971072Y-8210024D02*
X7942500Y-8210024D01*
X8066310Y-8076690D02*
X8142500Y-8076690D01*
X8094881Y-8010024D02*
X8094881Y-8181452D01*
X8094881Y-8181452D02*
X8104405Y-8200500D01*
X8104405Y-8200500D02*
X8123453Y-8210024D01*
X8123453Y-8210024D02*
X8142500Y-8210024D01*
X8361548Y-8076690D02*
X8361548Y-8276690D01*
X8361548Y-8086214D02*
X8380596Y-8076690D01*
X8380596Y-8076690D02*
X8418691Y-8076690D01*
X8418691Y-8076690D02*
X8437739Y-8086214D01*
X8437739Y-8086214D02*
X8447262Y-8095738D01*
X8447262Y-8095738D02*
X8456786Y-8114786D01*
X8456786Y-8114786D02*
X8456786Y-8171928D01*
X8456786Y-8171928D02*
X8447262Y-8190976D01*
X8447262Y-8190976D02*
X8437739Y-8200500D01*
X8437739Y-8200500D02*
X8418691Y-8210024D01*
X8418691Y-8210024D02*
X8380596Y-8210024D01*
X8380596Y-8210024D02*
X8361548Y-8200500D01*
X8571072Y-8210024D02*
X8552024Y-8200500D01*
X8552024Y-8200500D02*
X8542501Y-8181452D01*
X8542501Y-8181452D02*
X8542501Y-8010024D01*
X8732977Y-8210024D02*
X8732977Y-8105262D01*
X8732977Y-8105262D02*
X8723453Y-8086214D01*
X8723453Y-8086214D02*
X8704405Y-8076690D01*
X8704405Y-8076690D02*
X8666310Y-8076690D01*
X8666310Y-8076690D02*
X8647262Y-8086214D01*
X8732977Y-8200500D02*
X8713929Y-8210024D01*
X8713929Y-8210024D02*
X8666310Y-8210024D01*
X8666310Y-8210024D02*
X8647262Y-8200500D01*
X8647262Y-8200500D02*
X8637739Y-8181452D01*
X8637739Y-8181452D02*
X8637739Y-8162405D01*
X8637739Y-8162405D02*
X8647262Y-8143357D01*
X8647262Y-8143357D02*
X8666310Y-8133833D01*
X8666310Y-8133833D02*
X8713929Y-8133833D01*
X8713929Y-8133833D02*
X8732977Y-8124309D01*
X8799643Y-8076690D02*
X8875834Y-8076690D01*
X8828215Y-8010024D02*
X8828215Y-8181452D01*
X8828215Y-8181452D02*
X8837739Y-8200500D01*
X8837739Y-8200500D02*
X8856786Y-8210024D01*
X8856786Y-8210024D02*
X8875834Y-8210024D01*
X9018691Y-8200500D02*
X8999643Y-8210024D01*
X8999643Y-8210024D02*
X8961548Y-8210024D01*
X8961548Y-8210024D02*
X8942501Y-8200500D01*
X8942501Y-8200500D02*
X8932977Y-8181452D01*
X8932977Y-8181452D02*
X8932977Y-8105262D01*
X8932977Y-8105262D02*
X8942501Y-8086214D01*
X8942501Y-8086214D02*
X8961548Y-8076690D01*
X8961548Y-8076690D02*
X8999643Y-8076690D01*
X8999643Y-8076690D02*
X9018691Y-8086214D01*
X9018691Y-8086214D02*
X9028215Y-8105262D01*
X9028215Y-8105262D02*
X9028215Y-8124309D01*
X9028215Y-8124309D02*
X8932977Y-8143357D01*
X9199643Y-8210024D02*
X9199643Y-8010024D01*
X9199643Y-8200500D02*
X9180596Y-8210024D01*
X9180596Y-8210024D02*
X9142501Y-8210024D01*
X9142501Y-8210024D02*
X9123453Y-8200500D01*
X9123453Y-8200500D02*
X9113929Y-8190976D01*
X9113929Y-8190976D02*
X9104405Y-8171928D01*
X9104405Y-8171928D02*
X9104405Y-8114786D01*
X9104405Y-8114786D02*
X9113929Y-8095738D01*
X9113929Y-8095738D02*
X9123453Y-8086214D01*
X9123453Y-8086214D02*
X9142501Y-8076690D01*
X9142501Y-8076690D02*
X9180596Y-8076690D01*
X9180596Y-8076690D02*
X9199643Y-8086214D01*
X9275834Y-8286214D02*
X9285358Y-8276690D01*
X9285358Y-8276690D02*
X9304405Y-8248119D01*
X9304405Y-8248119D02*
X9313929Y-8229071D01*
X9313929Y-8229071D02*
X9323453Y-8200500D01*
X9323453Y-8200500D02*
X9332977Y-8152881D01*
X9332977Y-8152881D02*
X9332977Y-8114786D01*
X9332977Y-8114786D02*
X9323453Y-8067167D01*
X9323453Y-8067167D02*
X9313929Y-8038595D01*
X9313929Y-8038595D02*
X9304405Y-8019548D01*
X9304405Y-8019548D02*
X9285358Y-7990976D01*
X9285358Y-7990976D02*
X9275834Y-7981452D01*
M02*
