M48
; DRILL file {KiCad 7.0.2} date Thu Jun 15 14:11:36 2023
; FORMAT={-:-/ absolute / metric / decimal}
; #@! TF.CreationDate,2023-06-15T14:11:36-05:00
; #@! TF.GenerationSoftware,Kicad,Pcbnew,7.0.2
; #@! TF.FileFunction,NonPlated,1,2,NPTH
FMAT,2
METRIC
; #@! TA.AperFunction,NonPlated,NPTH,ComponentDrill
T1C1.900
; #@! TA.AperFunction,NonPlated,NPTH,ComponentDrill
T2C3.400
%
G90
G05
T1
X27.0Y-28.6
X27.0Y-45.6
X27.0Y-62.6
X38.0Y-28.6
X38.0Y-45.6
X38.0Y-62.6
X44.0Y-28.6
X44.0Y-45.6
X44.0Y-62.6
X55.0Y-28.6
X55.0Y-45.6
X55.0Y-62.6
X61.0Y-28.6
X61.0Y-45.6
X61.0Y-62.6
X72.0Y-28.6
X72.0Y-45.6
X72.0Y-62.6
X78.0Y-28.6
X78.0Y-45.6
X78.0Y-62.6
X89.0Y-28.6
X89.0Y-45.6
X89.0Y-62.6
X95.0Y-28.6
X95.0Y-45.6
X95.0Y-62.6
X106.0Y-28.6
X106.0Y-45.6
X106.0Y-62.6
X143.0Y-28.6
X143.0Y-45.6
X143.0Y-62.6
X154.0Y-28.6
X154.0Y-45.6
X154.0Y-62.6
X160.0Y-28.6
X160.0Y-45.6
X160.0Y-62.6
X171.0Y-28.6
X171.0Y-45.6
X171.0Y-62.6
X177.0Y-28.6
X177.0Y-45.6
X177.0Y-62.6
X188.0Y-28.6
X188.0Y-45.6
X188.0Y-62.6
X194.0Y-28.6
X194.0Y-45.6
X194.0Y-62.6
X205.0Y-28.6
X205.0Y-45.6
X205.0Y-62.6
X211.0Y-28.6
X211.0Y-45.6
X211.0Y-62.6
X222.0Y-28.6
X222.0Y-45.6
X222.0Y-62.6
T2
X32.5Y-28.6
X32.5Y-45.6
X32.5Y-62.6
X49.5Y-28.6
X49.5Y-45.6
X49.5Y-62.6
X66.5Y-28.6
X66.5Y-45.6
X66.5Y-62.6
X83.5Y-28.6
X83.5Y-45.6
X83.5Y-62.6
X100.5Y-28.6
X100.5Y-45.6
X100.5Y-62.6
X148.5Y-28.6
X148.5Y-45.6
X148.5Y-62.6
X165.5Y-28.6
X165.5Y-45.6
X165.5Y-62.6
X182.5Y-28.6
X182.5Y-45.6
X182.5Y-62.6
X199.5Y-28.6
X199.5Y-45.6
X199.5Y-62.6
X216.5Y-28.6
X216.5Y-45.6
X216.5Y-62.6
T0
M30
