%TF.GenerationSoftware,KiCad,Pcbnew,7.0.2*%
%TF.CreationDate,2023-06-15T14:07:21-05:00*%
%TF.ProjectId,Capsule,43617073-756c-4652-9e6b-696361645f70,1.0*%
%TF.SameCoordinates,Original*%
%TF.FileFunction,Legend,Top*%
%TF.FilePolarity,Positive*%
%FSLAX46Y46*%
G04 Gerber Fmt 4.6, Leading zero omitted, Abs format (unit mm)*
G04 Created by KiCad (PCBNEW 7.0.2) date 2023-06-15 14:07:21*
%MOMM*%
%LPD*%
G01*
G04 APERTURE LIST*
G04 Aperture macros list*
%AMRoundRect*
0 Rectangle with rounded corners*
0 $1 Rounding radius*
0 $2 $3 $4 $5 $6 $7 $8 $9 X,Y pos of 4 corners*
0 Add a 4 corners polygon primitive as box body*
4,1,4,$2,$3,$4,$5,$6,$7,$8,$9,$2,$3,0*
0 Add four circle primitives for the rounded corners*
1,1,$1+$1,$2,$3*
1,1,$1+$1,$4,$5*
1,1,$1+$1,$6,$7*
1,1,$1+$1,$8,$9*
0 Add four rect primitives between the rounded corners*
20,1,$1+$1,$2,$3,$4,$5,0*
20,1,$1+$1,$4,$5,$6,$7,0*
20,1,$1+$1,$6,$7,$8,$9,0*
20,1,$1+$1,$8,$9,$2,$3,0*%
%AMOutline5P*
0 Free polygon, 5 corners , with rotation*
0 The origin of the aperture is its center*
0 number of corners: always 5*
0 $1 to $10 corner X, Y*
0 $11 Rotation angle, in degrees counterclockwise*
0 create outline with 5 corners*
4,1,5,$1,$2,$3,$4,$5,$6,$7,$8,$9,$10,$1,$2,$11*%
%AMOutline6P*
0 Free polygon, 6 corners , with rotation*
0 The origin of the aperture is its center*
0 number of corners: always 6*
0 $1 to $12 corner X, Y*
0 $13 Rotation angle, in degrees counterclockwise*
0 create outline with 6 corners*
4,1,6,$1,$2,$3,$4,$5,$6,$7,$8,$9,$10,$11,$12,$1,$2,$13*%
%AMOutline7P*
0 Free polygon, 7 corners , with rotation*
0 The origin of the aperture is its center*
0 number of corners: always 7*
0 $1 to $14 corner X, Y*
0 $15 Rotation angle, in degrees counterclockwise*
0 create outline with 7 corners*
4,1,7,$1,$2,$3,$4,$5,$6,$7,$8,$9,$10,$11,$12,$13,$14,$1,$2,$15*%
%AMOutline8P*
0 Free polygon, 8 corners , with rotation*
0 The origin of the aperture is its center*
0 number of corners: always 8*
0 $1 to $16 corner X, Y*
0 $17 Rotation angle, in degrees counterclockwise*
0 create outline with 8 corners*
4,1,8,$1,$2,$3,$4,$5,$6,$7,$8,$9,$10,$11,$12,$13,$14,$15,$16,$1,$2,$17*%
G04 Aperture macros list end*
%ADD10C,0.150000*%
%ADD11C,0.120000*%
%ADD12C,1.900000*%
%ADD13C,3.400000*%
%ADD14RoundRect,0.425000X-0.425000X0.425000X-0.425000X-0.425000X0.425000X-0.425000X0.425000X0.425000X0*%
%ADD15Outline5P,-0.850000X0.510000X-0.510000X0.850000X0.850000X0.850000X0.850000X-0.850000X-0.850000X-0.850000X270.000000*%
%ADD16O,1.700000X1.700000*%
%ADD17R,1.700000X1.700000*%
%ADD18R,1.500000X0.900000*%
%ADD19O,2.500000X1.500000*%
%ADD20O,1.500000X2.500000*%
G04 APERTURE END LIST*
D10*
%TO.C,Connector1*%
G36*
X130082380Y-58464019D02*
G01*
X130044208Y-58578533D01*
X129970095Y-58652646D01*
X129893109Y-58691139D01*
X129719575Y-58734523D01*
X129595186Y-58734523D01*
X129421653Y-58691139D01*
X129344664Y-58652645D01*
X129270551Y-58578532D01*
X129232380Y-58464020D01*
X129232380Y-58313095D01*
X130082380Y-58313095D01*
X130082380Y-58464019D01*
G37*
G36*
X130675357Y-59367857D02*
G01*
X128564643Y-59367857D01*
X128564643Y-58479016D01*
X129079265Y-58479016D01*
X129085803Y-58498629D01*
X129091623Y-58518450D01*
X129092729Y-58519408D01*
X129132571Y-58638929D01*
X129136395Y-58656508D01*
X129147236Y-58667349D01*
X129155982Y-58679933D01*
X129162527Y-58682640D01*
X129240556Y-58760669D01*
X129247000Y-58771519D01*
X129265501Y-58780769D01*
X129283623Y-58790665D01*
X129285083Y-58790560D01*
X129349986Y-58823012D01*
X129355921Y-58829324D01*
X129369298Y-58832668D01*
X129371578Y-58833808D01*
X129379710Y-58835271D01*
X129555788Y-58879290D01*
X129563930Y-58884523D01*
X129576718Y-58884523D01*
X129578222Y-58884899D01*
X129587468Y-58884523D01*
X129716466Y-58884523D01*
X129725635Y-58887625D01*
X129738043Y-58884523D01*
X129739591Y-58884523D01*
X129748460Y-58881918D01*
X129924515Y-58837904D01*
X129933129Y-58838835D01*
X129945462Y-58832668D01*
X129947935Y-58832050D01*
X129955062Y-58827867D01*
X130039652Y-58785572D01*
X130051984Y-58782890D01*
X130066611Y-58768262D01*
X130081729Y-58754201D01*
X130082091Y-58752782D01*
X130159939Y-58674934D01*
X130173948Y-58663656D01*
X130178795Y-58649114D01*
X130186141Y-58635662D01*
X130185635Y-58628594D01*
X130225558Y-58508826D01*
X130232380Y-58498212D01*
X130232379Y-58477532D01*
X130233126Y-58456893D01*
X130232380Y-58455634D01*
X130232380Y-58243454D01*
X130234750Y-58226971D01*
X130227830Y-58211818D01*
X130223137Y-58195835D01*
X130218824Y-58192098D01*
X130216454Y-58186907D01*
X130202437Y-58177899D01*
X130189851Y-58166993D01*
X130184204Y-58166181D01*
X130179402Y-58163095D01*
X130162740Y-58163095D01*
X130146256Y-58160725D01*
X130141066Y-58163095D01*
X129162740Y-58163095D01*
X129146256Y-58160725D01*
X129131103Y-58167644D01*
X129115120Y-58172338D01*
X129111383Y-58176650D01*
X129106192Y-58179021D01*
X129097184Y-58193037D01*
X129086278Y-58205624D01*
X129085466Y-58211270D01*
X129082380Y-58216073D01*
X129082380Y-58232735D01*
X129080010Y-58249219D01*
X129082380Y-58254408D01*
X129082380Y-58466788D01*
X129079265Y-58479016D01*
X128564643Y-58479016D01*
X128564643Y-57768988D01*
X129079536Y-57768988D01*
X129080309Y-57770945D01*
X129080010Y-57773028D01*
X129088346Y-57791283D01*
X129095723Y-57809949D01*
X129097431Y-57811177D01*
X129098306Y-57813092D01*
X129115190Y-57823942D01*
X129131486Y-57835657D01*
X129133588Y-57835766D01*
X129135358Y-57836904D01*
X129155427Y-57836904D01*
X129175470Y-57837948D01*
X129177297Y-57836904D01*
X130168162Y-57836904D01*
X130199640Y-57827661D01*
X130228482Y-57794375D01*
X130234750Y-57750780D01*
X130216454Y-57710716D01*
X130179402Y-57686904D01*
X129439797Y-57686904D01*
X130186954Y-57259957D01*
X130199640Y-57256233D01*
X130212779Y-57241069D01*
X130226697Y-57226602D01*
X130227104Y-57224536D01*
X130228482Y-57222947D01*
X130231337Y-57203086D01*
X130235224Y-57183392D01*
X130234450Y-57181434D01*
X130234750Y-57179352D01*
X130226413Y-57161096D01*
X130219037Y-57142431D01*
X130217328Y-57141202D01*
X130216454Y-57139288D01*
X130199569Y-57128437D01*
X130183274Y-57116723D01*
X130181171Y-57116613D01*
X130179402Y-57115476D01*
X130159333Y-57115476D01*
X130139290Y-57114432D01*
X130137463Y-57115476D01*
X129146598Y-57115476D01*
X129115120Y-57124719D01*
X129086278Y-57158005D01*
X129080010Y-57201600D01*
X129098306Y-57241664D01*
X129135358Y-57265476D01*
X129874963Y-57265476D01*
X129127805Y-57692422D01*
X129115120Y-57696147D01*
X129101980Y-57711310D01*
X129088063Y-57725778D01*
X129087655Y-57727843D01*
X129086278Y-57729433D01*
X129083422Y-57749293D01*
X129079536Y-57768988D01*
X128564643Y-57768988D01*
X128564643Y-56574254D01*
X129079265Y-56574254D01*
X129085803Y-56593867D01*
X129091623Y-56613688D01*
X129092729Y-56614646D01*
X129132571Y-56734167D01*
X129136395Y-56751746D01*
X129147236Y-56762587D01*
X129155982Y-56775171D01*
X129162527Y-56777878D01*
X129190018Y-56805369D01*
X129193545Y-56813092D01*
X129205287Y-56820638D01*
X129207210Y-56822561D01*
X129214318Y-56826442D01*
X129230597Y-56836904D01*
X129233478Y-56836904D01*
X129236004Y-56838283D01*
X129255285Y-56836904D01*
X129580592Y-56836904D01*
X129597076Y-56839274D01*
X129612228Y-56832354D01*
X129628212Y-56827661D01*
X129631948Y-56823348D01*
X129637140Y-56820978D01*
X129646147Y-56806961D01*
X129657054Y-56794375D01*
X129657865Y-56788728D01*
X129660952Y-56783926D01*
X129660952Y-56767263D01*
X129663322Y-56750780D01*
X129660952Y-56745590D01*
X129660952Y-56560646D01*
X129651709Y-56529168D01*
X129618423Y-56500326D01*
X129574828Y-56494058D01*
X129534764Y-56512354D01*
X129510952Y-56549406D01*
X129510952Y-56686904D01*
X129283685Y-56686904D01*
X129270551Y-56673770D01*
X129232380Y-56559258D01*
X129232380Y-56488360D01*
X129270552Y-56373846D01*
X129344664Y-56299734D01*
X129421650Y-56261240D01*
X129595186Y-56217857D01*
X129719574Y-56217857D01*
X129893107Y-56261240D01*
X129970097Y-56299735D01*
X130044208Y-56373846D01*
X130082380Y-56488360D01*
X130082380Y-56601341D01*
X130037857Y-56690388D01*
X130032047Y-56722676D01*
X130048920Y-56763359D01*
X130085110Y-56788462D01*
X130129126Y-56790014D01*
X130166995Y-56767523D01*
X130222658Y-56656195D01*
X130232380Y-56641069D01*
X130232380Y-56625739D01*
X130235094Y-56610656D01*
X130232380Y-56604112D01*
X130232380Y-56485591D01*
X130235495Y-56473364D01*
X130228955Y-56453744D01*
X130223137Y-56433930D01*
X130222030Y-56432971D01*
X130182188Y-56313442D01*
X130178366Y-56295872D01*
X130167527Y-56285033D01*
X130158780Y-56272447D01*
X130152232Y-56269738D01*
X130074204Y-56191710D01*
X130067761Y-56180861D01*
X130049260Y-56171610D01*
X130031138Y-56161715D01*
X130029677Y-56161819D01*
X129964773Y-56129367D01*
X129958839Y-56123056D01*
X129945461Y-56119711D01*
X129943182Y-56118572D01*
X129935049Y-56117108D01*
X129758972Y-56073089D01*
X129750831Y-56067857D01*
X129738043Y-56067857D01*
X129736539Y-56067481D01*
X129727293Y-56067857D01*
X129598295Y-56067857D01*
X129589126Y-56064755D01*
X129576718Y-56067857D01*
X129575170Y-56067857D01*
X129566300Y-56070461D01*
X129390243Y-56114475D01*
X129381632Y-56113546D01*
X129369301Y-56119711D01*
X129366826Y-56120330D01*
X129359687Y-56124517D01*
X129275107Y-56166807D01*
X129262777Y-56169490D01*
X129248157Y-56184109D01*
X129233032Y-56198179D01*
X129232669Y-56199597D01*
X129154824Y-56277442D01*
X129140813Y-56288723D01*
X129135964Y-56303267D01*
X129128620Y-56316718D01*
X129129125Y-56323784D01*
X129089201Y-56443553D01*
X129082380Y-56454168D01*
X129082380Y-56474847D01*
X129081634Y-56495487D01*
X129082380Y-56496745D01*
X129082380Y-56562026D01*
X129079265Y-56574254D01*
X128564643Y-56574254D01*
X128564643Y-55409524D01*
X130675357Y-55409524D01*
X130675357Y-59367857D01*
G37*
G36*
X122300208Y-58571428D02*
G01*
X121898095Y-58705465D01*
X121898095Y-58437390D01*
X122300208Y-58571428D01*
G37*
G36*
X122462380Y-57606876D02*
G01*
X122424208Y-57721390D01*
X122350095Y-57795503D01*
X122273109Y-57833996D01*
X122099575Y-57877380D01*
X121975186Y-57877380D01*
X121801653Y-57833996D01*
X121724664Y-57795502D01*
X121650551Y-57721389D01*
X121612380Y-57606877D01*
X121612380Y-57455952D01*
X122462380Y-57455952D01*
X122462380Y-57606876D01*
G37*
G36*
X123055357Y-59367857D02*
G01*
X120944643Y-59367857D01*
X120944643Y-58896441D01*
X121459658Y-58896441D01*
X121467498Y-58939781D01*
X121497525Y-58972003D01*
X121540205Y-58982876D01*
X121829982Y-58886283D01*
X121834219Y-58886893D01*
X121850608Y-58879408D01*
X122548228Y-58646868D01*
X122556677Y-58647174D01*
X122568710Y-58640041D01*
X122571325Y-58639170D01*
X122577956Y-58634561D01*
X122594565Y-58624717D01*
X122595871Y-58622110D01*
X122598265Y-58620447D01*
X122605645Y-58602604D01*
X122614297Y-58585341D01*
X122613986Y-58582441D01*
X122615101Y-58579748D01*
X122611664Y-58560753D01*
X122609609Y-58541547D01*
X122607779Y-58539274D01*
X122607261Y-58536408D01*
X122594104Y-58522289D01*
X122581989Y-58507241D01*
X122579222Y-58506318D01*
X122577235Y-58504186D01*
X122558524Y-58499419D01*
X121860947Y-58266893D01*
X121855566Y-58262231D01*
X121840430Y-58260054D01*
X121550868Y-58163534D01*
X121518083Y-58162349D01*
X121480195Y-58184806D01*
X121460463Y-58224182D01*
X121465150Y-58267975D01*
X121492771Y-58302282D01*
X121748095Y-58387390D01*
X121748095Y-58755465D01*
X121503434Y-58837019D01*
X121476494Y-58855742D01*
X121459658Y-58896441D01*
X120944643Y-58896441D01*
X120944643Y-57621873D01*
X121459265Y-57621873D01*
X121465803Y-57641486D01*
X121471623Y-57661307D01*
X121472729Y-57662265D01*
X121512571Y-57781786D01*
X121516395Y-57799365D01*
X121527236Y-57810206D01*
X121535982Y-57822790D01*
X121542527Y-57825497D01*
X121620556Y-57903526D01*
X121627000Y-57914376D01*
X121645501Y-57923626D01*
X121663623Y-57933522D01*
X121665083Y-57933417D01*
X121729986Y-57965869D01*
X121735921Y-57972181D01*
X121749298Y-57975525D01*
X121751578Y-57976665D01*
X121759710Y-57978128D01*
X121935788Y-58022147D01*
X121943930Y-58027380D01*
X121956718Y-58027380D01*
X121958222Y-58027756D01*
X121967468Y-58027380D01*
X122096466Y-58027380D01*
X122105635Y-58030482D01*
X122118043Y-58027380D01*
X122119591Y-58027380D01*
X122128460Y-58024775D01*
X122304515Y-57980761D01*
X122313129Y-57981692D01*
X122325462Y-57975525D01*
X122327935Y-57974907D01*
X122335062Y-57970724D01*
X122419652Y-57928429D01*
X122431984Y-57925747D01*
X122446611Y-57911119D01*
X122461729Y-57897058D01*
X122462091Y-57895639D01*
X122539939Y-57817791D01*
X122553948Y-57806513D01*
X122558795Y-57791971D01*
X122566141Y-57778519D01*
X122565635Y-57771451D01*
X122605558Y-57651683D01*
X122612380Y-57641069D01*
X122612379Y-57620389D01*
X122613126Y-57599750D01*
X122612380Y-57598491D01*
X122612380Y-57386311D01*
X122614750Y-57369828D01*
X122607830Y-57354675D01*
X122603137Y-57338692D01*
X122598824Y-57334955D01*
X122596454Y-57329764D01*
X122582437Y-57320756D01*
X122569851Y-57309850D01*
X122564204Y-57309038D01*
X122559402Y-57305952D01*
X122542740Y-57305952D01*
X122526256Y-57303582D01*
X122521066Y-57305952D01*
X121542740Y-57305952D01*
X121526256Y-57303582D01*
X121511103Y-57310501D01*
X121495120Y-57315195D01*
X121491383Y-57319507D01*
X121486192Y-57321878D01*
X121477184Y-57335894D01*
X121466278Y-57348481D01*
X121465466Y-57354127D01*
X121462380Y-57358930D01*
X121462380Y-57375592D01*
X121460010Y-57392076D01*
X121462380Y-57397265D01*
X121462380Y-57609645D01*
X121459265Y-57621873D01*
X120944643Y-57621873D01*
X120944643Y-56775749D01*
X121460450Y-56775749D01*
X121467305Y-56789459D01*
X121471623Y-56804164D01*
X121476977Y-56808803D01*
X121513712Y-56882272D01*
X121516395Y-56894603D01*
X121531019Y-56909227D01*
X121545085Y-56924348D01*
X121546502Y-56924710D01*
X121572937Y-56951145D01*
X121579381Y-56961995D01*
X121597890Y-56971249D01*
X121616004Y-56981140D01*
X121617462Y-56981035D01*
X121690708Y-57017658D01*
X121705835Y-57027380D01*
X121721165Y-57027380D01*
X121736248Y-57030094D01*
X121742792Y-57027380D01*
X121819055Y-57027380D01*
X121836939Y-57029311D01*
X121850652Y-57022454D01*
X121865355Y-57018137D01*
X121869993Y-57012783D01*
X121943462Y-56976048D01*
X121955794Y-56973366D01*
X121970421Y-56958738D01*
X121985539Y-56944677D01*
X121985901Y-56943258D01*
X122012336Y-56916823D01*
X122023186Y-56910380D01*
X122032440Y-56891870D01*
X122042331Y-56873757D01*
X122042226Y-56872298D01*
X122074679Y-56807393D01*
X122080991Y-56801459D01*
X122084335Y-56788081D01*
X122085475Y-56785802D01*
X122086938Y-56777669D01*
X122131954Y-56597605D01*
X122170449Y-56520616D01*
X122200854Y-56490210D01*
X122269370Y-56455952D01*
X122329198Y-56455952D01*
X122397715Y-56490211D01*
X122428121Y-56520616D01*
X122462380Y-56589132D01*
X122462380Y-56797352D01*
X122415200Y-56938892D01*
X122414015Y-56971677D01*
X122436472Y-57009565D01*
X122475848Y-57029297D01*
X122519641Y-57024610D01*
X122553948Y-56996989D01*
X122605558Y-56842159D01*
X122612380Y-56831545D01*
X122612379Y-56810865D01*
X122613126Y-56790226D01*
X122612380Y-56788967D01*
X122612380Y-56575458D01*
X122614310Y-56557584D01*
X122607455Y-56543874D01*
X122603137Y-56529168D01*
X122597782Y-56524528D01*
X122561048Y-56451059D01*
X122558366Y-56438729D01*
X122543746Y-56424109D01*
X122529677Y-56408984D01*
X122528258Y-56408621D01*
X122501823Y-56382186D01*
X122495380Y-56371337D01*
X122476879Y-56362086D01*
X122458757Y-56352191D01*
X122457296Y-56352295D01*
X122384055Y-56315675D01*
X122368926Y-56305952D01*
X122353596Y-56305952D01*
X122338513Y-56303238D01*
X122331969Y-56305952D01*
X122255697Y-56305952D01*
X122237822Y-56304022D01*
X122224112Y-56310876D01*
X122209406Y-56315195D01*
X122204766Y-56320549D01*
X122131297Y-56357283D01*
X122118967Y-56359966D01*
X122104347Y-56374585D01*
X122089222Y-56388655D01*
X122088859Y-56390073D01*
X122062424Y-56416508D01*
X122051575Y-56422952D01*
X122042324Y-56441452D01*
X122032429Y-56459575D01*
X122032533Y-56461035D01*
X122000081Y-56525939D01*
X121993770Y-56531874D01*
X121990425Y-56545251D01*
X121989286Y-56547531D01*
X121987822Y-56555663D01*
X121942806Y-56735726D01*
X121904312Y-56812715D01*
X121873905Y-56843122D01*
X121805390Y-56877380D01*
X121745563Y-56877380D01*
X121677045Y-56843121D01*
X121646639Y-56812715D01*
X121612380Y-56744198D01*
X121612380Y-56535979D01*
X121659561Y-56394441D01*
X121660747Y-56361655D01*
X121638290Y-56323767D01*
X121598914Y-56304035D01*
X121555120Y-56308722D01*
X121520813Y-56336342D01*
X121469201Y-56491172D01*
X121462380Y-56501787D01*
X121462379Y-56522466D01*
X121461634Y-56543106D01*
X121462380Y-56544364D01*
X121462380Y-56757869D01*
X121460450Y-56775749D01*
X120944643Y-56775749D01*
X120944643Y-55647619D01*
X123055357Y-55647619D01*
X123055357Y-59367857D01*
G37*
G36*
X127365726Y-58431478D02*
G01*
X127442716Y-58469973D01*
X127473121Y-58500378D01*
X127507380Y-58568894D01*
X127507380Y-58628722D01*
X127473121Y-58697239D01*
X127442714Y-58727646D01*
X127365728Y-58766139D01*
X127192194Y-58809523D01*
X126972567Y-58809523D01*
X126799034Y-58766139D01*
X126722045Y-58727645D01*
X126691639Y-58697239D01*
X126657380Y-58628722D01*
X126657380Y-58568895D01*
X126691639Y-58500378D01*
X126722045Y-58469972D01*
X126799031Y-58431478D01*
X126972567Y-58388095D01*
X127192193Y-58388095D01*
X127365726Y-58431478D01*
G37*
G36*
X128100357Y-59442857D02*
G01*
X125989643Y-59442857D01*
X125989643Y-58559580D01*
X126504666Y-58559580D01*
X126507380Y-58566123D01*
X126507380Y-58642393D01*
X126505450Y-58660273D01*
X126512305Y-58673983D01*
X126516623Y-58688688D01*
X126521977Y-58693327D01*
X126558712Y-58766796D01*
X126561395Y-58779127D01*
X126576019Y-58793751D01*
X126590085Y-58808872D01*
X126591502Y-58809234D01*
X126617937Y-58835669D01*
X126624381Y-58846519D01*
X126642890Y-58855773D01*
X126661004Y-58865664D01*
X126662462Y-58865559D01*
X126727367Y-58898012D01*
X126733302Y-58904324D01*
X126746679Y-58907668D01*
X126748959Y-58908808D01*
X126757091Y-58910271D01*
X126933169Y-58954290D01*
X126941311Y-58959523D01*
X126954099Y-58959523D01*
X126955603Y-58959899D01*
X126964849Y-58959523D01*
X127189085Y-58959523D01*
X127198254Y-58962625D01*
X127210662Y-58959523D01*
X127212210Y-58959523D01*
X127221079Y-58956918D01*
X127397134Y-58912904D01*
X127405748Y-58913835D01*
X127418081Y-58907668D01*
X127420554Y-58907050D01*
X127427681Y-58902867D01*
X127512271Y-58860572D01*
X127524603Y-58857890D01*
X127539230Y-58843262D01*
X127554348Y-58829201D01*
X127554710Y-58827782D01*
X127581145Y-58801347D01*
X127591995Y-58794904D01*
X127601249Y-58776394D01*
X127611140Y-58758281D01*
X127611035Y-58756822D01*
X127647658Y-58683576D01*
X127657380Y-58668450D01*
X127657380Y-58653120D01*
X127660094Y-58638037D01*
X127657380Y-58631493D01*
X127657380Y-58555220D01*
X127659310Y-58537346D01*
X127652455Y-58523636D01*
X127648137Y-58508930D01*
X127642782Y-58504290D01*
X127606048Y-58430821D01*
X127603366Y-58418491D01*
X127588746Y-58403871D01*
X127574677Y-58388746D01*
X127573258Y-58388383D01*
X127546823Y-58361948D01*
X127540380Y-58351099D01*
X127521879Y-58341848D01*
X127503757Y-58331953D01*
X127502296Y-58332057D01*
X127437392Y-58299605D01*
X127431458Y-58293294D01*
X127418080Y-58289949D01*
X127415801Y-58288810D01*
X127407668Y-58287346D01*
X127231591Y-58243327D01*
X127223450Y-58238095D01*
X127210662Y-58238095D01*
X127209158Y-58237719D01*
X127199912Y-58238095D01*
X126975676Y-58238095D01*
X126966507Y-58234993D01*
X126954099Y-58238095D01*
X126952551Y-58238095D01*
X126943681Y-58240699D01*
X126767624Y-58284713D01*
X126759013Y-58283784D01*
X126746682Y-58289949D01*
X126744207Y-58290568D01*
X126737068Y-58294755D01*
X126652488Y-58337045D01*
X126640158Y-58339728D01*
X126625538Y-58354347D01*
X126610413Y-58368417D01*
X126610050Y-58369835D01*
X126583617Y-58396268D01*
X126572767Y-58402713D01*
X126563518Y-58421209D01*
X126553620Y-58439337D01*
X126553724Y-58440797D01*
X126517101Y-58514040D01*
X126507380Y-58529168D01*
X126507380Y-58544497D01*
X126504666Y-58559580D01*
X125989643Y-58559580D01*
X125989643Y-57579762D01*
X128100357Y-57579762D01*
X128100357Y-59442857D01*
G37*
G36*
X120475357Y-59367857D02*
G01*
X118364643Y-59367857D01*
X118364643Y-58621873D01*
X118879265Y-58621873D01*
X118885803Y-58641486D01*
X118891623Y-58661307D01*
X118892729Y-58662265D01*
X118932571Y-58781786D01*
X118936395Y-58799365D01*
X118947236Y-58810206D01*
X118955982Y-58822790D01*
X118962527Y-58825497D01*
X119007210Y-58870180D01*
X119036004Y-58885902D01*
X119079935Y-58882760D01*
X119115193Y-58856366D01*
X119130586Y-58815099D01*
X119121224Y-58772062D01*
X119070551Y-58721389D01*
X119032380Y-58606877D01*
X119032380Y-58535979D01*
X119070552Y-58421465D01*
X119144664Y-58347353D01*
X119221650Y-58308859D01*
X119395186Y-58265476D01*
X119519574Y-58265476D01*
X119693107Y-58308859D01*
X119770097Y-58347354D01*
X119844208Y-58421465D01*
X119882380Y-58535979D01*
X119882379Y-58606876D01*
X119844208Y-58721390D01*
X119801485Y-58764114D01*
X119785762Y-58792908D01*
X119788905Y-58836839D01*
X119815299Y-58872098D01*
X119856566Y-58887490D01*
X119899603Y-58878128D01*
X119959939Y-58817791D01*
X119973948Y-58806513D01*
X119978796Y-58791969D01*
X119986140Y-58778519D01*
X119985634Y-58771453D01*
X120025558Y-58651683D01*
X120032380Y-58641069D01*
X120032380Y-58620389D01*
X120033126Y-58599750D01*
X120032379Y-58598491D01*
X120032380Y-58533210D01*
X120035495Y-58520983D01*
X120028955Y-58501363D01*
X120023137Y-58481549D01*
X120022030Y-58480590D01*
X119982188Y-58361061D01*
X119978366Y-58343491D01*
X119967527Y-58332652D01*
X119958780Y-58320066D01*
X119952232Y-58317357D01*
X119874204Y-58239329D01*
X119867761Y-58228480D01*
X119849260Y-58219229D01*
X119831138Y-58209334D01*
X119829677Y-58209438D01*
X119764773Y-58176986D01*
X119758839Y-58170675D01*
X119745461Y-58167330D01*
X119743182Y-58166191D01*
X119735049Y-58164727D01*
X119558972Y-58120708D01*
X119550831Y-58115476D01*
X119538043Y-58115476D01*
X119536539Y-58115100D01*
X119527293Y-58115476D01*
X119398295Y-58115476D01*
X119389126Y-58112374D01*
X119376718Y-58115476D01*
X119375170Y-58115476D01*
X119366300Y-58118080D01*
X119190243Y-58162094D01*
X119181632Y-58161165D01*
X119169301Y-58167330D01*
X119166826Y-58167949D01*
X119159687Y-58172136D01*
X119075107Y-58214426D01*
X119062777Y-58217109D01*
X119048157Y-58231728D01*
X119033032Y-58245798D01*
X119032669Y-58247216D01*
X118954824Y-58325061D01*
X118940813Y-58336342D01*
X118935964Y-58350886D01*
X118928620Y-58364337D01*
X118929125Y-58371403D01*
X118889201Y-58491172D01*
X118882380Y-58501787D01*
X118882380Y-58522466D01*
X118881634Y-58543106D01*
X118882380Y-58544364D01*
X118882380Y-58609645D01*
X118879265Y-58621873D01*
X118364643Y-58621873D01*
X118364643Y-57621873D01*
X118879265Y-57621873D01*
X118885803Y-57641486D01*
X118891623Y-57661307D01*
X118892729Y-57662265D01*
X118932571Y-57781786D01*
X118936395Y-57799365D01*
X118947236Y-57810206D01*
X118955982Y-57822790D01*
X118962527Y-57825497D01*
X119007210Y-57870180D01*
X119036004Y-57885902D01*
X119079935Y-57882760D01*
X119115193Y-57856366D01*
X119130586Y-57815099D01*
X119121224Y-57772062D01*
X119070551Y-57721389D01*
X119032380Y-57606877D01*
X119032380Y-57535979D01*
X119070552Y-57421465D01*
X119144664Y-57347353D01*
X119221650Y-57308859D01*
X119395186Y-57265476D01*
X119519574Y-57265476D01*
X119693107Y-57308859D01*
X119770097Y-57347354D01*
X119844208Y-57421465D01*
X119882380Y-57535979D01*
X119882379Y-57606876D01*
X119844208Y-57721390D01*
X119801485Y-57764114D01*
X119785762Y-57792908D01*
X119788905Y-57836839D01*
X119815299Y-57872098D01*
X119856566Y-57887490D01*
X119899603Y-57878128D01*
X119959939Y-57817791D01*
X119973948Y-57806513D01*
X119978796Y-57791969D01*
X119986140Y-57778519D01*
X119985634Y-57771453D01*
X120025558Y-57651683D01*
X120032380Y-57641069D01*
X120032380Y-57620389D01*
X120033126Y-57599750D01*
X120032379Y-57598491D01*
X120032380Y-57533210D01*
X120035495Y-57520983D01*
X120028955Y-57501363D01*
X120023137Y-57481549D01*
X120022030Y-57480590D01*
X119982188Y-57361061D01*
X119978366Y-57343491D01*
X119967527Y-57332652D01*
X119958780Y-57320066D01*
X119952232Y-57317357D01*
X119874204Y-57239329D01*
X119867761Y-57228480D01*
X119849260Y-57219229D01*
X119831138Y-57209334D01*
X119829677Y-57209438D01*
X119764773Y-57176986D01*
X119758839Y-57170675D01*
X119745461Y-57167330D01*
X119743182Y-57166191D01*
X119735049Y-57164727D01*
X119558972Y-57120708D01*
X119550831Y-57115476D01*
X119538043Y-57115476D01*
X119536539Y-57115100D01*
X119527293Y-57115476D01*
X119398295Y-57115476D01*
X119389126Y-57112374D01*
X119376718Y-57115476D01*
X119375170Y-57115476D01*
X119366300Y-57118080D01*
X119190243Y-57162094D01*
X119181632Y-57161165D01*
X119169301Y-57167330D01*
X119166826Y-57167949D01*
X119159687Y-57172136D01*
X119075107Y-57214426D01*
X119062777Y-57217109D01*
X119048157Y-57231728D01*
X119033032Y-57245798D01*
X119032669Y-57247216D01*
X118954824Y-57325061D01*
X118940813Y-57336342D01*
X118935964Y-57350886D01*
X118928620Y-57364337D01*
X118929125Y-57371403D01*
X118889201Y-57491172D01*
X118882380Y-57501787D01*
X118882380Y-57522466D01*
X118881634Y-57543106D01*
X118882380Y-57544364D01*
X118882380Y-57609645D01*
X118879265Y-57621873D01*
X118364643Y-57621873D01*
X118364643Y-56563108D01*
X118879658Y-56563108D01*
X118883095Y-56582109D01*
X118885150Y-56601308D01*
X118886979Y-56603579D01*
X118887498Y-56606448D01*
X118900658Y-56620570D01*
X118912771Y-56635615D01*
X118915537Y-56636537D01*
X118917525Y-56638670D01*
X118936236Y-56643436D01*
X119943891Y-56979322D01*
X119976677Y-56980507D01*
X120014565Y-56958050D01*
X120034297Y-56918674D01*
X120029609Y-56874880D01*
X120001989Y-56840574D01*
X119194550Y-56571427D01*
X119991325Y-56305837D01*
X120018265Y-56287114D01*
X120035101Y-56246415D01*
X120027261Y-56203075D01*
X119997235Y-56170853D01*
X119954554Y-56159980D01*
X118946530Y-56495987D01*
X118938083Y-56495682D01*
X118926050Y-56502813D01*
X118923434Y-56503686D01*
X118916796Y-56508298D01*
X118900195Y-56518139D01*
X118898889Y-56520744D01*
X118896494Y-56522409D01*
X118889108Y-56540262D01*
X118880463Y-56557515D01*
X118880773Y-56560412D01*
X118879658Y-56563108D01*
X118364643Y-56563108D01*
X118364643Y-55600000D01*
X120475357Y-55600000D01*
X120475357Y-59367857D01*
G37*
G36*
X125595357Y-59367857D02*
G01*
X123484643Y-59367857D01*
X123484643Y-58439695D01*
X124000010Y-58439695D01*
X124002380Y-58444884D01*
X124002380Y-58915543D01*
X124011623Y-58947021D01*
X124044909Y-58975863D01*
X124088504Y-58982131D01*
X124128568Y-58963835D01*
X124152380Y-58926783D01*
X124152380Y-58503571D01*
X125088162Y-58503571D01*
X125119640Y-58494328D01*
X125148482Y-58461042D01*
X125154750Y-58417447D01*
X125136454Y-58377383D01*
X125099402Y-58353571D01*
X124082740Y-58353571D01*
X124066256Y-58351201D01*
X124051103Y-58358120D01*
X124035120Y-58362814D01*
X124031383Y-58367126D01*
X124026192Y-58369497D01*
X124017184Y-58383513D01*
X124006278Y-58396100D01*
X124005466Y-58401746D01*
X124002380Y-58406549D01*
X124002379Y-58423211D01*
X124000010Y-58439695D01*
X123484643Y-58439695D01*
X123484643Y-57812349D01*
X123999265Y-57812349D01*
X124005803Y-57831962D01*
X124011623Y-57851783D01*
X124012729Y-57852741D01*
X124052571Y-57972262D01*
X124056395Y-57989841D01*
X124067236Y-58000682D01*
X124075982Y-58013266D01*
X124082527Y-58015973D01*
X124127210Y-58060656D01*
X124156004Y-58076378D01*
X124199935Y-58073236D01*
X124235193Y-58046842D01*
X124250586Y-58005575D01*
X124241224Y-57962538D01*
X124190551Y-57911865D01*
X124152380Y-57797353D01*
X124152380Y-57726455D01*
X124190552Y-57611941D01*
X124264664Y-57537829D01*
X124341650Y-57499335D01*
X124515186Y-57455952D01*
X124639574Y-57455952D01*
X124813107Y-57499335D01*
X124890097Y-57537830D01*
X124964208Y-57611941D01*
X125002380Y-57726455D01*
X125002379Y-57797352D01*
X124964208Y-57911866D01*
X124921485Y-57954590D01*
X124905762Y-57983384D01*
X124908905Y-58027315D01*
X124935299Y-58062574D01*
X124976566Y-58077966D01*
X125019603Y-58068604D01*
X125079939Y-58008267D01*
X125093948Y-57996989D01*
X125098796Y-57982445D01*
X125106140Y-57968995D01*
X125105634Y-57961929D01*
X125145558Y-57842159D01*
X125152380Y-57831545D01*
X125152380Y-57810865D01*
X125153126Y-57790226D01*
X125152379Y-57788967D01*
X125152380Y-57723686D01*
X125155495Y-57711459D01*
X125148955Y-57691839D01*
X125143137Y-57672025D01*
X125142030Y-57671066D01*
X125102188Y-57551537D01*
X125098366Y-57533967D01*
X125087527Y-57523128D01*
X125078780Y-57510542D01*
X125072232Y-57507833D01*
X124994204Y-57429805D01*
X124987761Y-57418956D01*
X124969260Y-57409705D01*
X124951138Y-57399810D01*
X124949677Y-57399914D01*
X124884773Y-57367462D01*
X124878839Y-57361151D01*
X124865461Y-57357806D01*
X124863182Y-57356667D01*
X124855049Y-57355203D01*
X124678972Y-57311184D01*
X124670831Y-57305952D01*
X124658043Y-57305952D01*
X124656539Y-57305576D01*
X124647293Y-57305952D01*
X124518295Y-57305952D01*
X124509126Y-57302850D01*
X124496718Y-57305952D01*
X124495170Y-57305952D01*
X124486300Y-57308556D01*
X124310243Y-57352570D01*
X124301632Y-57351641D01*
X124289301Y-57357806D01*
X124286826Y-57358425D01*
X124279687Y-57362612D01*
X124195107Y-57404902D01*
X124182777Y-57407585D01*
X124168157Y-57422204D01*
X124153032Y-57436274D01*
X124152669Y-57437692D01*
X124074824Y-57515537D01*
X124060813Y-57526818D01*
X124055964Y-57541362D01*
X124048620Y-57554813D01*
X124049125Y-57561879D01*
X124009201Y-57681648D01*
X124002380Y-57692263D01*
X124002380Y-57712942D01*
X124001634Y-57733582D01*
X124002380Y-57734840D01*
X124002380Y-57800121D01*
X123999265Y-57812349D01*
X123484643Y-57812349D01*
X123484643Y-56823368D01*
X124000450Y-56823368D01*
X124007305Y-56837078D01*
X124011623Y-56851783D01*
X124016977Y-56856422D01*
X124053712Y-56929891D01*
X124056395Y-56942222D01*
X124071019Y-56956846D01*
X124085085Y-56971967D01*
X124086502Y-56972329D01*
X124112937Y-56998764D01*
X124119381Y-57009614D01*
X124137890Y-57018868D01*
X124156004Y-57028759D01*
X124157462Y-57028654D01*
X124230708Y-57065277D01*
X124245835Y-57074999D01*
X124261165Y-57074999D01*
X124276248Y-57077713D01*
X124282792Y-57074999D01*
X124359055Y-57074999D01*
X124376939Y-57076930D01*
X124390652Y-57070073D01*
X124405355Y-57065756D01*
X124409993Y-57060402D01*
X124483462Y-57023667D01*
X124495794Y-57020985D01*
X124510421Y-57006357D01*
X124525539Y-56992296D01*
X124525901Y-56990877D01*
X124552336Y-56964442D01*
X124563186Y-56957999D01*
X124572440Y-56939489D01*
X124582331Y-56921376D01*
X124582226Y-56919917D01*
X124614679Y-56855012D01*
X124620991Y-56849078D01*
X124624335Y-56835700D01*
X124625475Y-56833421D01*
X124626938Y-56825288D01*
X124671954Y-56645224D01*
X124710449Y-56568235D01*
X124740854Y-56537829D01*
X124809370Y-56503571D01*
X124869198Y-56503571D01*
X124937716Y-56537829D01*
X124968121Y-56568235D01*
X125002380Y-56636751D01*
X125002380Y-56844971D01*
X124955200Y-56986511D01*
X124954015Y-57019296D01*
X124976472Y-57057184D01*
X125015848Y-57076916D01*
X125059641Y-57072229D01*
X125093948Y-57044608D01*
X125145558Y-56889778D01*
X125152380Y-56879164D01*
X125152379Y-56858484D01*
X125153126Y-56837845D01*
X125152380Y-56836586D01*
X125152380Y-56623077D01*
X125154310Y-56605203D01*
X125147455Y-56591493D01*
X125143137Y-56576787D01*
X125137782Y-56572147D01*
X125101048Y-56498678D01*
X125098366Y-56486348D01*
X125083746Y-56471728D01*
X125069677Y-56456603D01*
X125068258Y-56456240D01*
X125041823Y-56429805D01*
X125035380Y-56418956D01*
X125016879Y-56409705D01*
X124998757Y-56399810D01*
X124997296Y-56399914D01*
X124924055Y-56363294D01*
X124908926Y-56353571D01*
X124893596Y-56353571D01*
X124878513Y-56350857D01*
X124871969Y-56353571D01*
X124795697Y-56353571D01*
X124777822Y-56351641D01*
X124764112Y-56358495D01*
X124749406Y-56362814D01*
X124744766Y-56368168D01*
X124671297Y-56404902D01*
X124658967Y-56407585D01*
X124644347Y-56422204D01*
X124629222Y-56436274D01*
X124628859Y-56437692D01*
X124602424Y-56464127D01*
X124591575Y-56470571D01*
X124582324Y-56489071D01*
X124572429Y-56507194D01*
X124572533Y-56508654D01*
X124540081Y-56573558D01*
X124533770Y-56579493D01*
X124530425Y-56592870D01*
X124529286Y-56595150D01*
X124527822Y-56603282D01*
X124482806Y-56783345D01*
X124444312Y-56860334D01*
X124413905Y-56890741D01*
X124345390Y-56924999D01*
X124285563Y-56924999D01*
X124217045Y-56890740D01*
X124186639Y-56860334D01*
X124152380Y-56791817D01*
X124152380Y-56583598D01*
X124199561Y-56442060D01*
X124200747Y-56409274D01*
X124178290Y-56371386D01*
X124138914Y-56351654D01*
X124095120Y-56356341D01*
X124060813Y-56383961D01*
X124009201Y-56538791D01*
X124002380Y-56549406D01*
X124002379Y-56570085D01*
X124001634Y-56590725D01*
X124002380Y-56591983D01*
X124002380Y-56805488D01*
X124000450Y-56823368D01*
X123484643Y-56823368D01*
X123484643Y-55695238D01*
X125595357Y-55695238D01*
X125595357Y-59367857D01*
G37*
%TO.C,LED02*%
X133054761Y-64712619D02*
X132578571Y-64712619D01*
X132578571Y-64712619D02*
X132578571Y-63712619D01*
X133388095Y-64188809D02*
X133721428Y-64188809D01*
X133864285Y-64712619D02*
X133388095Y-64712619D01*
X133388095Y-64712619D02*
X133388095Y-63712619D01*
X133388095Y-63712619D02*
X133864285Y-63712619D01*
X134292857Y-64712619D02*
X134292857Y-63712619D01*
X134292857Y-63712619D02*
X134530952Y-63712619D01*
X134530952Y-63712619D02*
X134673809Y-63760238D01*
X134673809Y-63760238D02*
X134769047Y-63855476D01*
X134769047Y-63855476D02*
X134816666Y-63950714D01*
X134816666Y-63950714D02*
X134864285Y-64141190D01*
X134864285Y-64141190D02*
X134864285Y-64284047D01*
X134864285Y-64284047D02*
X134816666Y-64474523D01*
X134816666Y-64474523D02*
X134769047Y-64569761D01*
X134769047Y-64569761D02*
X134673809Y-64665000D01*
X134673809Y-64665000D02*
X134530952Y-64712619D01*
X134530952Y-64712619D02*
X134292857Y-64712619D01*
X135483333Y-63712619D02*
X135578571Y-63712619D01*
X135578571Y-63712619D02*
X135673809Y-63760238D01*
X135673809Y-63760238D02*
X135721428Y-63807857D01*
X135721428Y-63807857D02*
X135769047Y-63903095D01*
X135769047Y-63903095D02*
X135816666Y-64093571D01*
X135816666Y-64093571D02*
X135816666Y-64331666D01*
X135816666Y-64331666D02*
X135769047Y-64522142D01*
X135769047Y-64522142D02*
X135721428Y-64617380D01*
X135721428Y-64617380D02*
X135673809Y-64665000D01*
X135673809Y-64665000D02*
X135578571Y-64712619D01*
X135578571Y-64712619D02*
X135483333Y-64712619D01*
X135483333Y-64712619D02*
X135388095Y-64665000D01*
X135388095Y-64665000D02*
X135340476Y-64617380D01*
X135340476Y-64617380D02*
X135292857Y-64522142D01*
X135292857Y-64522142D02*
X135245238Y-64331666D01*
X135245238Y-64331666D02*
X135245238Y-64093571D01*
X135245238Y-64093571D02*
X135292857Y-63903095D01*
X135292857Y-63903095D02*
X135340476Y-63807857D01*
X135340476Y-63807857D02*
X135388095Y-63760238D01*
X135388095Y-63760238D02*
X135483333Y-63712619D01*
X136197619Y-63807857D02*
X136245238Y-63760238D01*
X136245238Y-63760238D02*
X136340476Y-63712619D01*
X136340476Y-63712619D02*
X136578571Y-63712619D01*
X136578571Y-63712619D02*
X136673809Y-63760238D01*
X136673809Y-63760238D02*
X136721428Y-63807857D01*
X136721428Y-63807857D02*
X136769047Y-63903095D01*
X136769047Y-63903095D02*
X136769047Y-63998333D01*
X136769047Y-63998333D02*
X136721428Y-64141190D01*
X136721428Y-64141190D02*
X136150000Y-64712619D01*
X136150000Y-64712619D02*
X136769047Y-64712619D01*
X130785714Y-66612619D02*
X130214286Y-66612619D01*
X130500000Y-66612619D02*
X130500000Y-65612619D01*
X130500000Y-65612619D02*
X130404762Y-65755476D01*
X130404762Y-65755476D02*
X130309524Y-65850714D01*
X130309524Y-65850714D02*
X130214286Y-65898333D01*
%TO.C,LED01*%
X112904761Y-64862619D02*
X112428571Y-64862619D01*
X112428571Y-64862619D02*
X112428571Y-63862619D01*
X113238095Y-64338809D02*
X113571428Y-64338809D01*
X113714285Y-64862619D02*
X113238095Y-64862619D01*
X113238095Y-64862619D02*
X113238095Y-63862619D01*
X113238095Y-63862619D02*
X113714285Y-63862619D01*
X114142857Y-64862619D02*
X114142857Y-63862619D01*
X114142857Y-63862619D02*
X114380952Y-63862619D01*
X114380952Y-63862619D02*
X114523809Y-63910238D01*
X114523809Y-63910238D02*
X114619047Y-64005476D01*
X114619047Y-64005476D02*
X114666666Y-64100714D01*
X114666666Y-64100714D02*
X114714285Y-64291190D01*
X114714285Y-64291190D02*
X114714285Y-64434047D01*
X114714285Y-64434047D02*
X114666666Y-64624523D01*
X114666666Y-64624523D02*
X114619047Y-64719761D01*
X114619047Y-64719761D02*
X114523809Y-64815000D01*
X114523809Y-64815000D02*
X114380952Y-64862619D01*
X114380952Y-64862619D02*
X114142857Y-64862619D01*
X115333333Y-63862619D02*
X115428571Y-63862619D01*
X115428571Y-63862619D02*
X115523809Y-63910238D01*
X115523809Y-63910238D02*
X115571428Y-63957857D01*
X115571428Y-63957857D02*
X115619047Y-64053095D01*
X115619047Y-64053095D02*
X115666666Y-64243571D01*
X115666666Y-64243571D02*
X115666666Y-64481666D01*
X115666666Y-64481666D02*
X115619047Y-64672142D01*
X115619047Y-64672142D02*
X115571428Y-64767380D01*
X115571428Y-64767380D02*
X115523809Y-64815000D01*
X115523809Y-64815000D02*
X115428571Y-64862619D01*
X115428571Y-64862619D02*
X115333333Y-64862619D01*
X115333333Y-64862619D02*
X115238095Y-64815000D01*
X115238095Y-64815000D02*
X115190476Y-64767380D01*
X115190476Y-64767380D02*
X115142857Y-64672142D01*
X115142857Y-64672142D02*
X115095238Y-64481666D01*
X115095238Y-64481666D02*
X115095238Y-64243571D01*
X115095238Y-64243571D02*
X115142857Y-64053095D01*
X115142857Y-64053095D02*
X115190476Y-63957857D01*
X115190476Y-63957857D02*
X115238095Y-63910238D01*
X115238095Y-63910238D02*
X115333333Y-63862619D01*
X116619047Y-64862619D02*
X116047619Y-64862619D01*
X116333333Y-64862619D02*
X116333333Y-63862619D01*
X116333333Y-63862619D02*
X116238095Y-64005476D01*
X116238095Y-64005476D02*
X116142857Y-64100714D01*
X116142857Y-64100714D02*
X116047619Y-64148333D01*
X110635714Y-66762619D02*
X110064286Y-66762619D01*
X110350000Y-66762619D02*
X110350000Y-65762619D01*
X110350000Y-65762619D02*
X110254762Y-65905476D01*
X110254762Y-65905476D02*
X110159524Y-66000714D01*
X110159524Y-66000714D02*
X110064286Y-66048333D01*
D11*
%TO.C,LED02*%
X131000000Y-65000000D02*
X138300000Y-65000000D01*
X131000000Y-70500000D02*
X138300000Y-70500000D01*
X138300000Y-70500000D02*
X138300000Y-69350000D01*
%TO.C,LED01*%
X110850000Y-65150000D02*
X118150000Y-65150000D01*
X110850000Y-70650000D02*
X118150000Y-70650000D01*
X118150000Y-70650000D02*
X118150000Y-69500000D01*
%TD*%
%LPC*%
D12*
%TO.C,SW15*%
X95000000Y-45600000D03*
D13*
X100500000Y-45600000D03*
D12*
X106000000Y-45600000D03*
%TD*%
%TO.C,SW19*%
X194000000Y-45600000D03*
D13*
X199500000Y-45600000D03*
D12*
X205000000Y-45600000D03*
%TD*%
D14*
%TO.C,Connector1*%
X129620000Y-60500000D03*
D15*
X127080000Y-60500000D03*
D16*
X124540000Y-60500000D03*
X122000000Y-60500000D03*
D17*
X119460000Y-60500000D03*
%TD*%
D12*
%TO.C,SW11*%
X27000000Y-45600000D03*
D13*
X32500000Y-45600000D03*
D12*
X38000000Y-45600000D03*
%TD*%
%TO.C,SW10*%
X211000000Y-28600000D03*
D13*
X216500000Y-28600000D03*
D12*
X222000000Y-28600000D03*
%TD*%
%TO.C,SW22*%
X44000000Y-62600000D03*
D13*
X49500000Y-62600000D03*
D12*
X55000000Y-62600000D03*
%TD*%
%TO.C,SW17*%
X160000000Y-45600000D03*
D13*
X165500000Y-45600000D03*
D12*
X171000000Y-45600000D03*
%TD*%
%TO.C,SW16*%
X143000000Y-45600000D03*
D13*
X148500000Y-45600000D03*
D12*
X154000000Y-45600000D03*
%TD*%
%TO.C,SW24*%
X78000000Y-62600000D03*
D13*
X83500000Y-62600000D03*
D12*
X89000000Y-62600000D03*
%TD*%
%TO.C,SW29*%
X194000000Y-62600000D03*
D13*
X199500000Y-62600000D03*
D12*
X205000000Y-62600000D03*
%TD*%
%TO.C,SW14*%
X78000000Y-45600000D03*
D13*
X83500000Y-45600000D03*
D12*
X89000000Y-45600000D03*
%TD*%
%TO.C,SW5*%
X95000000Y-28600000D03*
D13*
X100500000Y-28600000D03*
D12*
X106000000Y-28600000D03*
%TD*%
%TO.C,SW27*%
X160000000Y-62600000D03*
D13*
X165500000Y-62600000D03*
D12*
X171000000Y-62600000D03*
%TD*%
%TO.C,SW1*%
X27000000Y-28600000D03*
D13*
X32500000Y-28600000D03*
D12*
X38000000Y-28600000D03*
%TD*%
%TO.C,SW28*%
X177000000Y-62600000D03*
D13*
X182500000Y-62600000D03*
D12*
X188000000Y-62600000D03*
%TD*%
%TO.C,SW21*%
X27000000Y-62600000D03*
D13*
X32500000Y-62600000D03*
D12*
X38000000Y-62600000D03*
%TD*%
%TO.C,SW26*%
X143000000Y-62600000D03*
D13*
X148500000Y-62600000D03*
D12*
X154000000Y-62600000D03*
%TD*%
%TO.C,SW20*%
X211000000Y-45600000D03*
D13*
X216500000Y-45600000D03*
D12*
X222000000Y-45600000D03*
%TD*%
%TO.C,SW25*%
X95000000Y-62600000D03*
D13*
X100500000Y-62600000D03*
D12*
X106000000Y-62600000D03*
%TD*%
%TO.C,SW3*%
X61000000Y-28600000D03*
D13*
X66500000Y-28600000D03*
D12*
X72000000Y-28600000D03*
%TD*%
%TO.C,SW12*%
X44000000Y-45600000D03*
D13*
X49500000Y-45600000D03*
D12*
X55000000Y-45600000D03*
%TD*%
%TO.C,SW4*%
X78000000Y-28600000D03*
D13*
X83500000Y-28600000D03*
D12*
X89000000Y-28600000D03*
%TD*%
%TO.C,SW18*%
X177000000Y-45600000D03*
D13*
X182500000Y-45600000D03*
D12*
X188000000Y-45600000D03*
%TD*%
%TO.C,SW23*%
X61000000Y-62600000D03*
D13*
X66500000Y-62600000D03*
D12*
X72000000Y-62600000D03*
%TD*%
%TO.C,SW30*%
X211000000Y-62600000D03*
D13*
X216500000Y-62600000D03*
D12*
X222000000Y-62600000D03*
%TD*%
%TO.C,SW2*%
X44000000Y-28600000D03*
D13*
X49500000Y-28600000D03*
D12*
X55000000Y-28600000D03*
%TD*%
%TO.C,SW8*%
X177000000Y-28600000D03*
D13*
X182500000Y-28600000D03*
D12*
X188000000Y-28600000D03*
%TD*%
%TO.C,SW13*%
X61000000Y-45600000D03*
D13*
X66500000Y-45600000D03*
D12*
X72000000Y-45600000D03*
%TD*%
D18*
%TO.C,LED02*%
X132200000Y-66100000D03*
X132200000Y-69400000D03*
X137100000Y-69400000D03*
X137100000Y-66100000D03*
%TD*%
%TO.C,LED01*%
X112050000Y-66250000D03*
X112050000Y-69550000D03*
X116950000Y-69550000D03*
X116950000Y-66250000D03*
%TD*%
D12*
%TO.C,SW6*%
X143000000Y-28600000D03*
D13*
X148500000Y-28600000D03*
D12*
X154000000Y-28600000D03*
%TD*%
%TO.C,SW7*%
X160000000Y-28600000D03*
D13*
X165500000Y-28600000D03*
D12*
X171000000Y-28600000D03*
%TD*%
%TO.C,SW9*%
X194000000Y-28600000D03*
D13*
X199500000Y-28600000D03*
D12*
X205000000Y-28600000D03*
%TD*%
D19*
%TO.C,U1*%
X117080000Y-21840000D03*
X117080000Y-24380000D03*
X117080000Y-26920000D03*
X117080000Y-29460000D03*
X117080000Y-32000000D03*
X117080000Y-34540000D03*
X117080000Y-37080000D03*
X117080000Y-39620000D03*
X117080000Y-42160000D03*
D20*
X120120000Y-42660000D03*
X122660000Y-42660000D03*
X125200000Y-42660000D03*
X127740000Y-42660000D03*
X130280000Y-42660000D03*
D19*
X133320000Y-42160000D03*
X133320000Y-39620000D03*
X133320000Y-37080000D03*
X133320000Y-34540000D03*
X133320000Y-32000000D03*
X133320000Y-29460000D03*
X133320000Y-26920000D03*
X133320000Y-24380000D03*
X133320000Y-21840000D03*
%TD*%
%LPD*%
M02*
