M48
; DRILL file {KiCad 7.0.2} date Wed Jun 21 18:27:06 2023
; FORMAT={-:-/ absolute / inch / decimal}
; #@! TF.CreationDate,2023-06-21T18:27:06-05:00
; #@! TF.GenerationSoftware,Kicad,Pcbnew,7.0.2
; #@! TF.FileFunction,Plated,1,2,PTH
FMAT,2
INCH
; #@! TA.AperFunction,Plated,PTH,ViaDrill
T1C0.0157
; #@! TA.AperFunction,Plated,PTH,ComponentDrill
T2C0.0236
; #@! TA.AperFunction,Plated,PTH,ComponentDrill
T3C0.0394
; #@! TA.AperFunction,Plated,PTH,ComponentDrill
T4C0.0472
%
G90
G05
T1
X4.1762Y-3.5896
X4.1841Y-3.9085
X4.2618Y-2.7835
X4.3012Y-2.7835
X4.3366Y-3.3337
X4.4134Y-2.7313
X4.56Y-2.7313
X4.6348Y-3.9045
X4.9715Y-3.8602
X5.0778Y-3.5748
X5.2476Y-2.8171
X5.2776Y-3.44
X5.3169Y-3.0453
X5.3169Y-3.378
X5.9488Y-3.2008
X5.9488Y-3.437
X6.1358Y-3.1614
T3
X4.4508Y-2.3031
X4.4508Y-2.6102
X4.5295Y-2.3031
X4.5295Y-2.6102
T4
X4.7461Y-2.437
X4.8287Y-2.2402
X5.4154Y-2.437
X5.498Y-2.2402
T2
X6.267Y-3.0902G85X6.2237Y-3.0902
G05
X6.267Y-3.4303G85X6.2237Y-3.4303
G05
X6.4218Y-3.0902G85X6.3981Y-3.0902
G05
X6.4218Y-3.4303G85X6.3981Y-3.4303
G05
T0
M30
