%TF.GenerationSoftware,KiCad,Pcbnew,7.0.2*%
%TF.CreationDate,2023-06-21T18:27:12-05:00*%
%TF.ProjectId,MXB_INTMCU.kicad_pro,4d58425f-494e-4544-9d43-552e6b696361,rev?*%
%TF.SameCoordinates,Original*%
%TF.FileFunction,Legend,Bot*%
%TF.FilePolarity,Positive*%
%FSLAX46Y46*%
G04 Gerber Fmt 4.6, Leading zero omitted, Abs format (unit mm)*
G04 Created by KiCad (PCBNEW 7.0.2) date 2023-06-21 18:27:12*
%MOMM*%
%LPD*%
G01*
G04 APERTURE LIST*
%ADD10C,0.150000*%
%ADD11C,0.120000*%
%ADD12C,0.200000*%
G04 APERTURE END LIST*
D10*
%TO.C,X1*%
X120859523Y-95512619D02*
X120192857Y-96512619D01*
X120192857Y-95512619D02*
X120859523Y-96512619D01*
X119288095Y-96512619D02*
X119859523Y-96512619D01*
X119573809Y-96512619D02*
X119573809Y-95512619D01*
X119573809Y-95512619D02*
X119669047Y-95655476D01*
X119669047Y-95655476D02*
X119764285Y-95750714D01*
X119764285Y-95750714D02*
X119859523Y-95798333D01*
%TO.C,D2*%
X116894095Y-61819524D02*
X116094095Y-61819524D01*
X116094095Y-61819524D02*
X116094095Y-62010000D01*
X116094095Y-62010000D02*
X116132190Y-62124286D01*
X116132190Y-62124286D02*
X116208380Y-62200476D01*
X116208380Y-62200476D02*
X116284571Y-62238571D01*
X116284571Y-62238571D02*
X116436952Y-62276667D01*
X116436952Y-62276667D02*
X116551238Y-62276667D01*
X116551238Y-62276667D02*
X116703619Y-62238571D01*
X116703619Y-62238571D02*
X116779809Y-62200476D01*
X116779809Y-62200476D02*
X116856000Y-62124286D01*
X116856000Y-62124286D02*
X116894095Y-62010000D01*
X116894095Y-62010000D02*
X116894095Y-61819524D01*
X116170285Y-62581428D02*
X116132190Y-62619524D01*
X116132190Y-62619524D02*
X116094095Y-62695714D01*
X116094095Y-62695714D02*
X116094095Y-62886190D01*
X116094095Y-62886190D02*
X116132190Y-62962381D01*
X116132190Y-62962381D02*
X116170285Y-63000476D01*
X116170285Y-63000476D02*
X116246476Y-63038571D01*
X116246476Y-63038571D02*
X116322666Y-63038571D01*
X116322666Y-63038571D02*
X116436952Y-63000476D01*
X116436952Y-63000476D02*
X116894095Y-62543333D01*
X116894095Y-62543333D02*
X116894095Y-63038571D01*
%TO.C,D1*%
X111814095Y-61784124D02*
X111014095Y-61784124D01*
X111014095Y-61784124D02*
X111014095Y-61974600D01*
X111014095Y-61974600D02*
X111052190Y-62088886D01*
X111052190Y-62088886D02*
X111128380Y-62165076D01*
X111128380Y-62165076D02*
X111204571Y-62203171D01*
X111204571Y-62203171D02*
X111356952Y-62241267D01*
X111356952Y-62241267D02*
X111471238Y-62241267D01*
X111471238Y-62241267D02*
X111623619Y-62203171D01*
X111623619Y-62203171D02*
X111699809Y-62165076D01*
X111699809Y-62165076D02*
X111776000Y-62088886D01*
X111776000Y-62088886D02*
X111814095Y-61974600D01*
X111814095Y-61974600D02*
X111814095Y-61784124D01*
X111814095Y-63003171D02*
X111814095Y-62546028D01*
X111814095Y-62774600D02*
X111014095Y-62774600D01*
X111014095Y-62774600D02*
X111128380Y-62698409D01*
X111128380Y-62698409D02*
X111204571Y-62622219D01*
X111204571Y-62622219D02*
X111242666Y-62546028D01*
%TO.C,C9*%
X157566666Y-70597380D02*
X157614285Y-70645000D01*
X157614285Y-70645000D02*
X157757142Y-70692619D01*
X157757142Y-70692619D02*
X157852380Y-70692619D01*
X157852380Y-70692619D02*
X157995237Y-70645000D01*
X157995237Y-70645000D02*
X158090475Y-70549761D01*
X158090475Y-70549761D02*
X158138094Y-70454523D01*
X158138094Y-70454523D02*
X158185713Y-70264047D01*
X158185713Y-70264047D02*
X158185713Y-70121190D01*
X158185713Y-70121190D02*
X158138094Y-69930714D01*
X158138094Y-69930714D02*
X158090475Y-69835476D01*
X158090475Y-69835476D02*
X157995237Y-69740238D01*
X157995237Y-69740238D02*
X157852380Y-69692619D01*
X157852380Y-69692619D02*
X157757142Y-69692619D01*
X157757142Y-69692619D02*
X157614285Y-69740238D01*
X157614285Y-69740238D02*
X157566666Y-69787857D01*
X157090475Y-70692619D02*
X156899999Y-70692619D01*
X156899999Y-70692619D02*
X156804761Y-70645000D01*
X156804761Y-70645000D02*
X156757142Y-70597380D01*
X156757142Y-70597380D02*
X156661904Y-70454523D01*
X156661904Y-70454523D02*
X156614285Y-70264047D01*
X156614285Y-70264047D02*
X156614285Y-69883095D01*
X156614285Y-69883095D02*
X156661904Y-69787857D01*
X156661904Y-69787857D02*
X156709523Y-69740238D01*
X156709523Y-69740238D02*
X156804761Y-69692619D01*
X156804761Y-69692619D02*
X156995237Y-69692619D01*
X156995237Y-69692619D02*
X157090475Y-69740238D01*
X157090475Y-69740238D02*
X157138094Y-69787857D01*
X157138094Y-69787857D02*
X157185713Y-69883095D01*
X157185713Y-69883095D02*
X157185713Y-70121190D01*
X157185713Y-70121190D02*
X157138094Y-70216428D01*
X157138094Y-70216428D02*
X157090475Y-70264047D01*
X157090475Y-70264047D02*
X156995237Y-70311666D01*
X156995237Y-70311666D02*
X156804761Y-70311666D01*
X156804761Y-70311666D02*
X156709523Y-70264047D01*
X156709523Y-70264047D02*
X156661904Y-70216428D01*
X156661904Y-70216428D02*
X156614285Y-70121190D01*
%TO.C,UR4*%
X145357833Y-80266666D02*
X145924500Y-80266666D01*
X145924500Y-80266666D02*
X145991166Y-80300000D01*
X145991166Y-80300000D02*
X146024500Y-80333333D01*
X146024500Y-80333333D02*
X146057833Y-80400000D01*
X146057833Y-80400000D02*
X146057833Y-80533333D01*
X146057833Y-80533333D02*
X146024500Y-80600000D01*
X146024500Y-80600000D02*
X145991166Y-80633333D01*
X145991166Y-80633333D02*
X145924500Y-80666666D01*
X145924500Y-80666666D02*
X145357833Y-80666666D01*
X146057833Y-81399999D02*
X145724500Y-81166666D01*
X146057833Y-80999999D02*
X145357833Y-80999999D01*
X145357833Y-80999999D02*
X145357833Y-81266666D01*
X145357833Y-81266666D02*
X145391166Y-81333333D01*
X145391166Y-81333333D02*
X145424500Y-81366666D01*
X145424500Y-81366666D02*
X145491166Y-81399999D01*
X145491166Y-81399999D02*
X145591166Y-81399999D01*
X145591166Y-81399999D02*
X145657833Y-81366666D01*
X145657833Y-81366666D02*
X145691166Y-81333333D01*
X145691166Y-81333333D02*
X145724500Y-81266666D01*
X145724500Y-81266666D02*
X145724500Y-80999999D01*
X145591166Y-81999999D02*
X146057833Y-81999999D01*
X145324500Y-81833333D02*
X145824500Y-81666666D01*
X145824500Y-81666666D02*
X145824500Y-82099999D01*
X144083333Y-79372500D02*
X144050000Y-79339166D01*
X144050000Y-79339166D02*
X143983333Y-79305833D01*
X143983333Y-79305833D02*
X143816667Y-79305833D01*
X143816667Y-79305833D02*
X143750000Y-79339166D01*
X143750000Y-79339166D02*
X143716667Y-79372500D01*
X143716667Y-79372500D02*
X143683333Y-79439166D01*
X143683333Y-79439166D02*
X143683333Y-79505833D01*
X143683333Y-79505833D02*
X143716667Y-79605833D01*
X143716667Y-79605833D02*
X144116667Y-80005833D01*
X144116667Y-80005833D02*
X143683333Y-80005833D01*
X143416666Y-79372500D02*
X143383333Y-79339166D01*
X143383333Y-79339166D02*
X143316666Y-79305833D01*
X143316666Y-79305833D02*
X143150000Y-79305833D01*
X143150000Y-79305833D02*
X143083333Y-79339166D01*
X143083333Y-79339166D02*
X143050000Y-79372500D01*
X143050000Y-79372500D02*
X143016666Y-79439166D01*
X143016666Y-79439166D02*
X143016666Y-79505833D01*
X143016666Y-79505833D02*
X143050000Y-79605833D01*
X143050000Y-79605833D02*
X143450000Y-80005833D01*
X143450000Y-80005833D02*
X143016666Y-80005833D01*
%TO.C,C7*%
X127916666Y-70412380D02*
X127964285Y-70460000D01*
X127964285Y-70460000D02*
X128107142Y-70507619D01*
X128107142Y-70507619D02*
X128202380Y-70507619D01*
X128202380Y-70507619D02*
X128345237Y-70460000D01*
X128345237Y-70460000D02*
X128440475Y-70364761D01*
X128440475Y-70364761D02*
X128488094Y-70269523D01*
X128488094Y-70269523D02*
X128535713Y-70079047D01*
X128535713Y-70079047D02*
X128535713Y-69936190D01*
X128535713Y-69936190D02*
X128488094Y-69745714D01*
X128488094Y-69745714D02*
X128440475Y-69650476D01*
X128440475Y-69650476D02*
X128345237Y-69555238D01*
X128345237Y-69555238D02*
X128202380Y-69507619D01*
X128202380Y-69507619D02*
X128107142Y-69507619D01*
X128107142Y-69507619D02*
X127964285Y-69555238D01*
X127964285Y-69555238D02*
X127916666Y-69602857D01*
X127583332Y-69507619D02*
X126916666Y-69507619D01*
X126916666Y-69507619D02*
X127345237Y-70507619D01*
%TO.C,UR1*%
X159298833Y-72826666D02*
X159865500Y-72826666D01*
X159865500Y-72826666D02*
X159932166Y-72860000D01*
X159932166Y-72860000D02*
X159965500Y-72893333D01*
X159965500Y-72893333D02*
X159998833Y-72960000D01*
X159998833Y-72960000D02*
X159998833Y-73093333D01*
X159998833Y-73093333D02*
X159965500Y-73160000D01*
X159965500Y-73160000D02*
X159932166Y-73193333D01*
X159932166Y-73193333D02*
X159865500Y-73226666D01*
X159865500Y-73226666D02*
X159298833Y-73226666D01*
X159998833Y-73959999D02*
X159665500Y-73726666D01*
X159998833Y-73559999D02*
X159298833Y-73559999D01*
X159298833Y-73559999D02*
X159298833Y-73826666D01*
X159298833Y-73826666D02*
X159332166Y-73893333D01*
X159332166Y-73893333D02*
X159365500Y-73926666D01*
X159365500Y-73926666D02*
X159432166Y-73959999D01*
X159432166Y-73959999D02*
X159532166Y-73959999D01*
X159532166Y-73959999D02*
X159598833Y-73926666D01*
X159598833Y-73926666D02*
X159632166Y-73893333D01*
X159632166Y-73893333D02*
X159665500Y-73826666D01*
X159665500Y-73826666D02*
X159665500Y-73559999D01*
X159998833Y-74626666D02*
X159998833Y-74226666D01*
X159998833Y-74426666D02*
X159298833Y-74426666D01*
X159298833Y-74426666D02*
X159398833Y-74359999D01*
X159398833Y-74359999D02*
X159465500Y-74293333D01*
X159465500Y-74293333D02*
X159498833Y-74226666D01*
X157524999Y-72433833D02*
X157924999Y-72433833D01*
X157724999Y-72433833D02*
X157724999Y-71733833D01*
X157724999Y-71733833D02*
X157791666Y-71833833D01*
X157791666Y-71833833D02*
X157858333Y-71900500D01*
X157858333Y-71900500D02*
X157924999Y-71933833D01*
X157224999Y-72433833D02*
X157224999Y-71733833D01*
X157224999Y-71733833D02*
X156991666Y-72233833D01*
X156991666Y-72233833D02*
X156758332Y-71733833D01*
X156758332Y-71733833D02*
X156758332Y-72433833D01*
%TO.C,R2*%
X113962619Y-76333333D02*
X113486428Y-76000000D01*
X113962619Y-75761905D02*
X112962619Y-75761905D01*
X112962619Y-75761905D02*
X112962619Y-76142857D01*
X112962619Y-76142857D02*
X113010238Y-76238095D01*
X113010238Y-76238095D02*
X113057857Y-76285714D01*
X113057857Y-76285714D02*
X113153095Y-76333333D01*
X113153095Y-76333333D02*
X113295952Y-76333333D01*
X113295952Y-76333333D02*
X113391190Y-76285714D01*
X113391190Y-76285714D02*
X113438809Y-76238095D01*
X113438809Y-76238095D02*
X113486428Y-76142857D01*
X113486428Y-76142857D02*
X113486428Y-75761905D01*
X113057857Y-76714286D02*
X113010238Y-76761905D01*
X113010238Y-76761905D02*
X112962619Y-76857143D01*
X112962619Y-76857143D02*
X112962619Y-77095238D01*
X112962619Y-77095238D02*
X113010238Y-77190476D01*
X113010238Y-77190476D02*
X113057857Y-77238095D01*
X113057857Y-77238095D02*
X113153095Y-77285714D01*
X113153095Y-77285714D02*
X113248333Y-77285714D01*
X113248333Y-77285714D02*
X113391190Y-77238095D01*
X113391190Y-77238095D02*
X113962619Y-76666667D01*
X113962619Y-76666667D02*
X113962619Y-77285714D01*
%TO.C,R1*%
X105612619Y-70408333D02*
X105136428Y-70075000D01*
X105612619Y-69836905D02*
X104612619Y-69836905D01*
X104612619Y-69836905D02*
X104612619Y-70217857D01*
X104612619Y-70217857D02*
X104660238Y-70313095D01*
X104660238Y-70313095D02*
X104707857Y-70360714D01*
X104707857Y-70360714D02*
X104803095Y-70408333D01*
X104803095Y-70408333D02*
X104945952Y-70408333D01*
X104945952Y-70408333D02*
X105041190Y-70360714D01*
X105041190Y-70360714D02*
X105088809Y-70313095D01*
X105088809Y-70313095D02*
X105136428Y-70217857D01*
X105136428Y-70217857D02*
X105136428Y-69836905D01*
X105612619Y-71360714D02*
X105612619Y-70789286D01*
X105612619Y-71075000D02*
X104612619Y-71075000D01*
X104612619Y-71075000D02*
X104755476Y-70979762D01*
X104755476Y-70979762D02*
X104850714Y-70884524D01*
X104850714Y-70884524D02*
X104898333Y-70789286D01*
%TO.C,C3*%
X113892380Y-85358333D02*
X113940000Y-85310714D01*
X113940000Y-85310714D02*
X113987619Y-85167857D01*
X113987619Y-85167857D02*
X113987619Y-85072619D01*
X113987619Y-85072619D02*
X113940000Y-84929762D01*
X113940000Y-84929762D02*
X113844761Y-84834524D01*
X113844761Y-84834524D02*
X113749523Y-84786905D01*
X113749523Y-84786905D02*
X113559047Y-84739286D01*
X113559047Y-84739286D02*
X113416190Y-84739286D01*
X113416190Y-84739286D02*
X113225714Y-84786905D01*
X113225714Y-84786905D02*
X113130476Y-84834524D01*
X113130476Y-84834524D02*
X113035238Y-84929762D01*
X113035238Y-84929762D02*
X112987619Y-85072619D01*
X112987619Y-85072619D02*
X112987619Y-85167857D01*
X112987619Y-85167857D02*
X113035238Y-85310714D01*
X113035238Y-85310714D02*
X113082857Y-85358333D01*
X112987619Y-85691667D02*
X112987619Y-86310714D01*
X112987619Y-86310714D02*
X113368571Y-85977381D01*
X113368571Y-85977381D02*
X113368571Y-86120238D01*
X113368571Y-86120238D02*
X113416190Y-86215476D01*
X113416190Y-86215476D02*
X113463809Y-86263095D01*
X113463809Y-86263095D02*
X113559047Y-86310714D01*
X113559047Y-86310714D02*
X113797142Y-86310714D01*
X113797142Y-86310714D02*
X113892380Y-86263095D01*
X113892380Y-86263095D02*
X113940000Y-86215476D01*
X113940000Y-86215476D02*
X113987619Y-86120238D01*
X113987619Y-86120238D02*
X113987619Y-85834524D01*
X113987619Y-85834524D02*
X113940000Y-85739286D01*
X113940000Y-85739286D02*
X113892380Y-85691667D01*
%TO.C,SW50*%
X109554000Y-80215476D02*
X109601619Y-80358333D01*
X109601619Y-80358333D02*
X109601619Y-80596428D01*
X109601619Y-80596428D02*
X109554000Y-80691666D01*
X109554000Y-80691666D02*
X109506380Y-80739285D01*
X109506380Y-80739285D02*
X109411142Y-80786904D01*
X109411142Y-80786904D02*
X109315904Y-80786904D01*
X109315904Y-80786904D02*
X109220666Y-80739285D01*
X109220666Y-80739285D02*
X109173047Y-80691666D01*
X109173047Y-80691666D02*
X109125428Y-80596428D01*
X109125428Y-80596428D02*
X109077809Y-80405952D01*
X109077809Y-80405952D02*
X109030190Y-80310714D01*
X109030190Y-80310714D02*
X108982571Y-80263095D01*
X108982571Y-80263095D02*
X108887333Y-80215476D01*
X108887333Y-80215476D02*
X108792095Y-80215476D01*
X108792095Y-80215476D02*
X108696857Y-80263095D01*
X108696857Y-80263095D02*
X108649238Y-80310714D01*
X108649238Y-80310714D02*
X108601619Y-80405952D01*
X108601619Y-80405952D02*
X108601619Y-80644047D01*
X108601619Y-80644047D02*
X108649238Y-80786904D01*
X108601619Y-81120238D02*
X109601619Y-81358333D01*
X109601619Y-81358333D02*
X108887333Y-81548809D01*
X108887333Y-81548809D02*
X109601619Y-81739285D01*
X109601619Y-81739285D02*
X108601619Y-81977381D01*
X108601619Y-82834523D02*
X108601619Y-82358333D01*
X108601619Y-82358333D02*
X109077809Y-82310714D01*
X109077809Y-82310714D02*
X109030190Y-82358333D01*
X109030190Y-82358333D02*
X108982571Y-82453571D01*
X108982571Y-82453571D02*
X108982571Y-82691666D01*
X108982571Y-82691666D02*
X109030190Y-82786904D01*
X109030190Y-82786904D02*
X109077809Y-82834523D01*
X109077809Y-82834523D02*
X109173047Y-82882142D01*
X109173047Y-82882142D02*
X109411142Y-82882142D01*
X109411142Y-82882142D02*
X109506380Y-82834523D01*
X109506380Y-82834523D02*
X109554000Y-82786904D01*
X109554000Y-82786904D02*
X109601619Y-82691666D01*
X109601619Y-82691666D02*
X109601619Y-82453571D01*
X109601619Y-82453571D02*
X109554000Y-82358333D01*
X109554000Y-82358333D02*
X109506380Y-82310714D01*
X108601619Y-83501190D02*
X108601619Y-83596428D01*
X108601619Y-83596428D02*
X108649238Y-83691666D01*
X108649238Y-83691666D02*
X108696857Y-83739285D01*
X108696857Y-83739285D02*
X108792095Y-83786904D01*
X108792095Y-83786904D02*
X108982571Y-83834523D01*
X108982571Y-83834523D02*
X109220666Y-83834523D01*
X109220666Y-83834523D02*
X109411142Y-83786904D01*
X109411142Y-83786904D02*
X109506380Y-83739285D01*
X109506380Y-83739285D02*
X109554000Y-83691666D01*
X109554000Y-83691666D02*
X109601619Y-83596428D01*
X109601619Y-83596428D02*
X109601619Y-83501190D01*
X109601619Y-83501190D02*
X109554000Y-83405952D01*
X109554000Y-83405952D02*
X109506380Y-83358333D01*
X109506380Y-83358333D02*
X109411142Y-83310714D01*
X109411142Y-83310714D02*
X109220666Y-83263095D01*
X109220666Y-83263095D02*
X108982571Y-83263095D01*
X108982571Y-83263095D02*
X108792095Y-83310714D01*
X108792095Y-83310714D02*
X108696857Y-83358333D01*
X108696857Y-83358333D02*
X108649238Y-83405952D01*
X108649238Y-83405952D02*
X108601619Y-83501190D01*
%TO.C,F1*%
X148433333Y-85418809D02*
X148766666Y-85418809D01*
X148766666Y-85942619D02*
X148766666Y-84942619D01*
X148766666Y-84942619D02*
X148290476Y-84942619D01*
X147385714Y-85942619D02*
X147957142Y-85942619D01*
X147671428Y-85942619D02*
X147671428Y-84942619D01*
X147671428Y-84942619D02*
X147766666Y-85085476D01*
X147766666Y-85085476D02*
X147861904Y-85180714D01*
X147861904Y-85180714D02*
X147957142Y-85228333D01*
%TO.C,C8*%
X128829380Y-82309333D02*
X128877000Y-82261714D01*
X128877000Y-82261714D02*
X128924619Y-82118857D01*
X128924619Y-82118857D02*
X128924619Y-82023619D01*
X128924619Y-82023619D02*
X128877000Y-81880762D01*
X128877000Y-81880762D02*
X128781761Y-81785524D01*
X128781761Y-81785524D02*
X128686523Y-81737905D01*
X128686523Y-81737905D02*
X128496047Y-81690286D01*
X128496047Y-81690286D02*
X128353190Y-81690286D01*
X128353190Y-81690286D02*
X128162714Y-81737905D01*
X128162714Y-81737905D02*
X128067476Y-81785524D01*
X128067476Y-81785524D02*
X127972238Y-81880762D01*
X127972238Y-81880762D02*
X127924619Y-82023619D01*
X127924619Y-82023619D02*
X127924619Y-82118857D01*
X127924619Y-82118857D02*
X127972238Y-82261714D01*
X127972238Y-82261714D02*
X128019857Y-82309333D01*
X128353190Y-82880762D02*
X128305571Y-82785524D01*
X128305571Y-82785524D02*
X128257952Y-82737905D01*
X128257952Y-82737905D02*
X128162714Y-82690286D01*
X128162714Y-82690286D02*
X128115095Y-82690286D01*
X128115095Y-82690286D02*
X128019857Y-82737905D01*
X128019857Y-82737905D02*
X127972238Y-82785524D01*
X127972238Y-82785524D02*
X127924619Y-82880762D01*
X127924619Y-82880762D02*
X127924619Y-83071238D01*
X127924619Y-83071238D02*
X127972238Y-83166476D01*
X127972238Y-83166476D02*
X128019857Y-83214095D01*
X128019857Y-83214095D02*
X128115095Y-83261714D01*
X128115095Y-83261714D02*
X128162714Y-83261714D01*
X128162714Y-83261714D02*
X128257952Y-83214095D01*
X128257952Y-83214095D02*
X128305571Y-83166476D01*
X128305571Y-83166476D02*
X128353190Y-83071238D01*
X128353190Y-83071238D02*
X128353190Y-82880762D01*
X128353190Y-82880762D02*
X128400809Y-82785524D01*
X128400809Y-82785524D02*
X128448428Y-82737905D01*
X128448428Y-82737905D02*
X128543666Y-82690286D01*
X128543666Y-82690286D02*
X128734142Y-82690286D01*
X128734142Y-82690286D02*
X128829380Y-82737905D01*
X128829380Y-82737905D02*
X128877000Y-82785524D01*
X128877000Y-82785524D02*
X128924619Y-82880762D01*
X128924619Y-82880762D02*
X128924619Y-83071238D01*
X128924619Y-83071238D02*
X128877000Y-83166476D01*
X128877000Y-83166476D02*
X128829380Y-83214095D01*
X128829380Y-83214095D02*
X128734142Y-83261714D01*
X128734142Y-83261714D02*
X128543666Y-83261714D01*
X128543666Y-83261714D02*
X128448428Y-83214095D01*
X128448428Y-83214095D02*
X128400809Y-83166476D01*
X128400809Y-83166476D02*
X128353190Y-83071238D01*
%TO.C,UR3*%
X153971833Y-89110269D02*
X153971833Y-89829936D01*
X153971833Y-89829936D02*
X153929500Y-89914602D01*
X153929500Y-89914602D02*
X153887166Y-89956936D01*
X153887166Y-89956936D02*
X153802500Y-89999269D01*
X153802500Y-89999269D02*
X153633166Y-89999269D01*
X153633166Y-89999269D02*
X153548500Y-89956936D01*
X153548500Y-89956936D02*
X153506166Y-89914602D01*
X153506166Y-89914602D02*
X153463833Y-89829936D01*
X153463833Y-89829936D02*
X153463833Y-89110269D01*
X152532500Y-89999269D02*
X152828833Y-89575936D01*
X153040500Y-89999269D02*
X153040500Y-89110269D01*
X153040500Y-89110269D02*
X152701833Y-89110269D01*
X152701833Y-89110269D02*
X152617167Y-89152602D01*
X152617167Y-89152602D02*
X152574833Y-89194936D01*
X152574833Y-89194936D02*
X152532500Y-89279602D01*
X152532500Y-89279602D02*
X152532500Y-89406602D01*
X152532500Y-89406602D02*
X152574833Y-89491269D01*
X152574833Y-89491269D02*
X152617167Y-89533602D01*
X152617167Y-89533602D02*
X152701833Y-89575936D01*
X152701833Y-89575936D02*
X153040500Y-89575936D01*
X152236167Y-89110269D02*
X151685833Y-89110269D01*
X151685833Y-89110269D02*
X151982167Y-89448936D01*
X151982167Y-89448936D02*
X151855167Y-89448936D01*
X151855167Y-89448936D02*
X151770500Y-89491269D01*
X151770500Y-89491269D02*
X151728167Y-89533602D01*
X151728167Y-89533602D02*
X151685833Y-89618269D01*
X151685833Y-89618269D02*
X151685833Y-89829936D01*
X151685833Y-89829936D02*
X151728167Y-89914602D01*
X151728167Y-89914602D02*
X151770500Y-89956936D01*
X151770500Y-89956936D02*
X151855167Y-89999269D01*
X151855167Y-89999269D02*
X152109167Y-89999269D01*
X152109167Y-89999269D02*
X152193833Y-89956936D01*
X152193833Y-89956936D02*
X152236167Y-89914602D01*
X150923833Y-86683333D02*
X150923833Y-86349999D01*
X150923833Y-86349999D02*
X151257166Y-86316666D01*
X151257166Y-86316666D02*
X151223833Y-86349999D01*
X151223833Y-86349999D02*
X151190500Y-86416666D01*
X151190500Y-86416666D02*
X151190500Y-86583333D01*
X151190500Y-86583333D02*
X151223833Y-86649999D01*
X151223833Y-86649999D02*
X151257166Y-86683333D01*
X151257166Y-86683333D02*
X151323833Y-86716666D01*
X151323833Y-86716666D02*
X151490500Y-86716666D01*
X151490500Y-86716666D02*
X151557166Y-86683333D01*
X151557166Y-86683333D02*
X151590500Y-86649999D01*
X151590500Y-86649999D02*
X151623833Y-86583333D01*
X151623833Y-86583333D02*
X151623833Y-86416666D01*
X151623833Y-86416666D02*
X151590500Y-86349999D01*
X151590500Y-86349999D02*
X151557166Y-86316666D01*
X151557166Y-87016666D02*
X151590500Y-87050000D01*
X151590500Y-87050000D02*
X151623833Y-87016666D01*
X151623833Y-87016666D02*
X151590500Y-86983333D01*
X151590500Y-86983333D02*
X151557166Y-87016666D01*
X151557166Y-87016666D02*
X151623833Y-87016666D01*
X151623833Y-87716666D02*
X151623833Y-87316666D01*
X151623833Y-87516666D02*
X150923833Y-87516666D01*
X150923833Y-87516666D02*
X151023833Y-87449999D01*
X151023833Y-87449999D02*
X151090500Y-87383333D01*
X151090500Y-87383333D02*
X151123833Y-87316666D01*
X151623833Y-88016666D02*
X150923833Y-88016666D01*
X151357166Y-88083333D02*
X151623833Y-88283333D01*
X151157166Y-88283333D02*
X151423833Y-88016666D01*
%TO.C,U2*%
X148833333Y-79923833D02*
X148833333Y-80490500D01*
X148833333Y-80490500D02*
X148800000Y-80557166D01*
X148800000Y-80557166D02*
X148766666Y-80590500D01*
X148766666Y-80590500D02*
X148700000Y-80623833D01*
X148700000Y-80623833D02*
X148566666Y-80623833D01*
X148566666Y-80623833D02*
X148500000Y-80590500D01*
X148500000Y-80590500D02*
X148466666Y-80557166D01*
X148466666Y-80557166D02*
X148433333Y-80490500D01*
X148433333Y-80490500D02*
X148433333Y-79923833D01*
X148133333Y-79990500D02*
X148100000Y-79957166D01*
X148100000Y-79957166D02*
X148033333Y-79923833D01*
X148033333Y-79923833D02*
X147866667Y-79923833D01*
X147866667Y-79923833D02*
X147800000Y-79957166D01*
X147800000Y-79957166D02*
X147766667Y-79990500D01*
X147766667Y-79990500D02*
X147733333Y-80057166D01*
X147733333Y-80057166D02*
X147733333Y-80123833D01*
X147733333Y-80123833D02*
X147766667Y-80223833D01*
X147766667Y-80223833D02*
X148166667Y-80623833D01*
X148166667Y-80623833D02*
X147733333Y-80623833D01*
X149107333Y-84357166D02*
X148874000Y-84357166D01*
X148774000Y-84723833D02*
X149107333Y-84723833D01*
X149107333Y-84723833D02*
X149107333Y-84023833D01*
X149107333Y-84023833D02*
X148774000Y-84023833D01*
X148507333Y-84690500D02*
X148407333Y-84723833D01*
X148407333Y-84723833D02*
X148240667Y-84723833D01*
X148240667Y-84723833D02*
X148174000Y-84690500D01*
X148174000Y-84690500D02*
X148140667Y-84657166D01*
X148140667Y-84657166D02*
X148107333Y-84590500D01*
X148107333Y-84590500D02*
X148107333Y-84523833D01*
X148107333Y-84523833D02*
X148140667Y-84457166D01*
X148140667Y-84457166D02*
X148174000Y-84423833D01*
X148174000Y-84423833D02*
X148240667Y-84390500D01*
X148240667Y-84390500D02*
X148374000Y-84357166D01*
X148374000Y-84357166D02*
X148440667Y-84323833D01*
X148440667Y-84323833D02*
X148474000Y-84290500D01*
X148474000Y-84290500D02*
X148507333Y-84223833D01*
X148507333Y-84223833D02*
X148507333Y-84157166D01*
X148507333Y-84157166D02*
X148474000Y-84090500D01*
X148474000Y-84090500D02*
X148440667Y-84057166D01*
X148440667Y-84057166D02*
X148374000Y-84023833D01*
X148374000Y-84023833D02*
X148207333Y-84023833D01*
X148207333Y-84023833D02*
X148107333Y-84057166D01*
X147807333Y-84723833D02*
X147807333Y-84023833D01*
X147807333Y-84023833D02*
X147640666Y-84023833D01*
X147640666Y-84023833D02*
X147540666Y-84057166D01*
X147540666Y-84057166D02*
X147474000Y-84123833D01*
X147474000Y-84123833D02*
X147440666Y-84190500D01*
X147440666Y-84190500D02*
X147407333Y-84323833D01*
X147407333Y-84323833D02*
X147407333Y-84423833D01*
X147407333Y-84423833D02*
X147440666Y-84557166D01*
X147440666Y-84557166D02*
X147474000Y-84623833D01*
X147474000Y-84623833D02*
X147540666Y-84690500D01*
X147540666Y-84690500D02*
X147640666Y-84723833D01*
X147640666Y-84723833D02*
X147807333Y-84723833D01*
%TO.C,C6*%
X114117380Y-72408333D02*
X114165000Y-72360714D01*
X114165000Y-72360714D02*
X114212619Y-72217857D01*
X114212619Y-72217857D02*
X114212619Y-72122619D01*
X114212619Y-72122619D02*
X114165000Y-71979762D01*
X114165000Y-71979762D02*
X114069761Y-71884524D01*
X114069761Y-71884524D02*
X113974523Y-71836905D01*
X113974523Y-71836905D02*
X113784047Y-71789286D01*
X113784047Y-71789286D02*
X113641190Y-71789286D01*
X113641190Y-71789286D02*
X113450714Y-71836905D01*
X113450714Y-71836905D02*
X113355476Y-71884524D01*
X113355476Y-71884524D02*
X113260238Y-71979762D01*
X113260238Y-71979762D02*
X113212619Y-72122619D01*
X113212619Y-72122619D02*
X113212619Y-72217857D01*
X113212619Y-72217857D02*
X113260238Y-72360714D01*
X113260238Y-72360714D02*
X113307857Y-72408333D01*
X113212619Y-73265476D02*
X113212619Y-73075000D01*
X113212619Y-73075000D02*
X113260238Y-72979762D01*
X113260238Y-72979762D02*
X113307857Y-72932143D01*
X113307857Y-72932143D02*
X113450714Y-72836905D01*
X113450714Y-72836905D02*
X113641190Y-72789286D01*
X113641190Y-72789286D02*
X114022142Y-72789286D01*
X114022142Y-72789286D02*
X114117380Y-72836905D01*
X114117380Y-72836905D02*
X114165000Y-72884524D01*
X114165000Y-72884524D02*
X114212619Y-72979762D01*
X114212619Y-72979762D02*
X114212619Y-73170238D01*
X114212619Y-73170238D02*
X114165000Y-73265476D01*
X114165000Y-73265476D02*
X114117380Y-73313095D01*
X114117380Y-73313095D02*
X114022142Y-73360714D01*
X114022142Y-73360714D02*
X113784047Y-73360714D01*
X113784047Y-73360714D02*
X113688809Y-73313095D01*
X113688809Y-73313095D02*
X113641190Y-73265476D01*
X113641190Y-73265476D02*
X113593571Y-73170238D01*
X113593571Y-73170238D02*
X113593571Y-72979762D01*
X113593571Y-72979762D02*
X113641190Y-72884524D01*
X113641190Y-72884524D02*
X113688809Y-72836905D01*
X113688809Y-72836905D02*
X113784047Y-72789286D01*
%TO.C,C2*%
X116798630Y-96339581D02*
X116846250Y-96291962D01*
X116846250Y-96291962D02*
X116893869Y-96149105D01*
X116893869Y-96149105D02*
X116893869Y-96053867D01*
X116893869Y-96053867D02*
X116846250Y-95911010D01*
X116846250Y-95911010D02*
X116751011Y-95815772D01*
X116751011Y-95815772D02*
X116655773Y-95768153D01*
X116655773Y-95768153D02*
X116465297Y-95720534D01*
X116465297Y-95720534D02*
X116322440Y-95720534D01*
X116322440Y-95720534D02*
X116131964Y-95768153D01*
X116131964Y-95768153D02*
X116036726Y-95815772D01*
X116036726Y-95815772D02*
X115941488Y-95911010D01*
X115941488Y-95911010D02*
X115893869Y-96053867D01*
X115893869Y-96053867D02*
X115893869Y-96149105D01*
X115893869Y-96149105D02*
X115941488Y-96291962D01*
X115941488Y-96291962D02*
X115989107Y-96339581D01*
X115989107Y-96720534D02*
X115941488Y-96768153D01*
X115941488Y-96768153D02*
X115893869Y-96863391D01*
X115893869Y-96863391D02*
X115893869Y-97101486D01*
X115893869Y-97101486D02*
X115941488Y-97196724D01*
X115941488Y-97196724D02*
X115989107Y-97244343D01*
X115989107Y-97244343D02*
X116084345Y-97291962D01*
X116084345Y-97291962D02*
X116179583Y-97291962D01*
X116179583Y-97291962D02*
X116322440Y-97244343D01*
X116322440Y-97244343D02*
X116893869Y-96672915D01*
X116893869Y-96672915D02*
X116893869Y-97291962D01*
%TO.C,C5*%
X116966666Y-74147380D02*
X117014285Y-74195000D01*
X117014285Y-74195000D02*
X117157142Y-74242619D01*
X117157142Y-74242619D02*
X117252380Y-74242619D01*
X117252380Y-74242619D02*
X117395237Y-74195000D01*
X117395237Y-74195000D02*
X117490475Y-74099761D01*
X117490475Y-74099761D02*
X117538094Y-74004523D01*
X117538094Y-74004523D02*
X117585713Y-73814047D01*
X117585713Y-73814047D02*
X117585713Y-73671190D01*
X117585713Y-73671190D02*
X117538094Y-73480714D01*
X117538094Y-73480714D02*
X117490475Y-73385476D01*
X117490475Y-73385476D02*
X117395237Y-73290238D01*
X117395237Y-73290238D02*
X117252380Y-73242619D01*
X117252380Y-73242619D02*
X117157142Y-73242619D01*
X117157142Y-73242619D02*
X117014285Y-73290238D01*
X117014285Y-73290238D02*
X116966666Y-73337857D01*
X116061904Y-73242619D02*
X116538094Y-73242619D01*
X116538094Y-73242619D02*
X116585713Y-73718809D01*
X116585713Y-73718809D02*
X116538094Y-73671190D01*
X116538094Y-73671190D02*
X116442856Y-73623571D01*
X116442856Y-73623571D02*
X116204761Y-73623571D01*
X116204761Y-73623571D02*
X116109523Y-73671190D01*
X116109523Y-73671190D02*
X116061904Y-73718809D01*
X116061904Y-73718809D02*
X116014285Y-73814047D01*
X116014285Y-73814047D02*
X116014285Y-74052142D01*
X116014285Y-74052142D02*
X116061904Y-74147380D01*
X116061904Y-74147380D02*
X116109523Y-74195000D01*
X116109523Y-74195000D02*
X116204761Y-74242619D01*
X116204761Y-74242619D02*
X116442856Y-74242619D01*
X116442856Y-74242619D02*
X116538094Y-74195000D01*
X116538094Y-74195000D02*
X116585713Y-74147380D01*
%TO.C,U1*%
X121730654Y-73466369D02*
X121730654Y-74275892D01*
X121730654Y-74275892D02*
X121683035Y-74371130D01*
X121683035Y-74371130D02*
X121635416Y-74418750D01*
X121635416Y-74418750D02*
X121540178Y-74466369D01*
X121540178Y-74466369D02*
X121349702Y-74466369D01*
X121349702Y-74466369D02*
X121254464Y-74418750D01*
X121254464Y-74418750D02*
X121206845Y-74371130D01*
X121206845Y-74371130D02*
X121159226Y-74275892D01*
X121159226Y-74275892D02*
X121159226Y-73466369D01*
X120159226Y-74466369D02*
X120730654Y-74466369D01*
X120444940Y-74466369D02*
X120444940Y-73466369D01*
X120444940Y-73466369D02*
X120540178Y-73609226D01*
X120540178Y-73609226D02*
X120635416Y-73704464D01*
X120635416Y-73704464D02*
X120730654Y-73752083D01*
%TO.C,C1*%
X124017380Y-96233333D02*
X124065000Y-96185714D01*
X124065000Y-96185714D02*
X124112619Y-96042857D01*
X124112619Y-96042857D02*
X124112619Y-95947619D01*
X124112619Y-95947619D02*
X124065000Y-95804762D01*
X124065000Y-95804762D02*
X123969761Y-95709524D01*
X123969761Y-95709524D02*
X123874523Y-95661905D01*
X123874523Y-95661905D02*
X123684047Y-95614286D01*
X123684047Y-95614286D02*
X123541190Y-95614286D01*
X123541190Y-95614286D02*
X123350714Y-95661905D01*
X123350714Y-95661905D02*
X123255476Y-95709524D01*
X123255476Y-95709524D02*
X123160238Y-95804762D01*
X123160238Y-95804762D02*
X123112619Y-95947619D01*
X123112619Y-95947619D02*
X123112619Y-96042857D01*
X123112619Y-96042857D02*
X123160238Y-96185714D01*
X123160238Y-96185714D02*
X123207857Y-96233333D01*
X124112619Y-97185714D02*
X124112619Y-96614286D01*
X124112619Y-96900000D02*
X123112619Y-96900000D01*
X123112619Y-96900000D02*
X123255476Y-96804762D01*
X123255476Y-96804762D02*
X123350714Y-96709524D01*
X123350714Y-96709524D02*
X123398333Y-96614286D01*
%TO.C,C4*%
X128877380Y-86453333D02*
X128925000Y-86405714D01*
X128925000Y-86405714D02*
X128972619Y-86262857D01*
X128972619Y-86262857D02*
X128972619Y-86167619D01*
X128972619Y-86167619D02*
X128925000Y-86024762D01*
X128925000Y-86024762D02*
X128829761Y-85929524D01*
X128829761Y-85929524D02*
X128734523Y-85881905D01*
X128734523Y-85881905D02*
X128544047Y-85834286D01*
X128544047Y-85834286D02*
X128401190Y-85834286D01*
X128401190Y-85834286D02*
X128210714Y-85881905D01*
X128210714Y-85881905D02*
X128115476Y-85929524D01*
X128115476Y-85929524D02*
X128020238Y-86024762D01*
X128020238Y-86024762D02*
X127972619Y-86167619D01*
X127972619Y-86167619D02*
X127972619Y-86262857D01*
X127972619Y-86262857D02*
X128020238Y-86405714D01*
X128020238Y-86405714D02*
X128067857Y-86453333D01*
X128305952Y-87310476D02*
X128972619Y-87310476D01*
X127925000Y-87072381D02*
X128639285Y-86834286D01*
X128639285Y-86834286D02*
X128639285Y-87453333D01*
%TO.C,UR5*%
X145357833Y-82766666D02*
X145924500Y-82766666D01*
X145924500Y-82766666D02*
X145991166Y-82800000D01*
X145991166Y-82800000D02*
X146024500Y-82833333D01*
X146024500Y-82833333D02*
X146057833Y-82900000D01*
X146057833Y-82900000D02*
X146057833Y-83033333D01*
X146057833Y-83033333D02*
X146024500Y-83100000D01*
X146024500Y-83100000D02*
X145991166Y-83133333D01*
X145991166Y-83133333D02*
X145924500Y-83166666D01*
X145924500Y-83166666D02*
X145357833Y-83166666D01*
X146057833Y-83899999D02*
X145724500Y-83666666D01*
X146057833Y-83499999D02*
X145357833Y-83499999D01*
X145357833Y-83499999D02*
X145357833Y-83766666D01*
X145357833Y-83766666D02*
X145391166Y-83833333D01*
X145391166Y-83833333D02*
X145424500Y-83866666D01*
X145424500Y-83866666D02*
X145491166Y-83899999D01*
X145491166Y-83899999D02*
X145591166Y-83899999D01*
X145591166Y-83899999D02*
X145657833Y-83866666D01*
X145657833Y-83866666D02*
X145691166Y-83833333D01*
X145691166Y-83833333D02*
X145724500Y-83766666D01*
X145724500Y-83766666D02*
X145724500Y-83499999D01*
X145357833Y-84533333D02*
X145357833Y-84199999D01*
X145357833Y-84199999D02*
X145691166Y-84166666D01*
X145691166Y-84166666D02*
X145657833Y-84199999D01*
X145657833Y-84199999D02*
X145624500Y-84266666D01*
X145624500Y-84266666D02*
X145624500Y-84433333D01*
X145624500Y-84433333D02*
X145657833Y-84499999D01*
X145657833Y-84499999D02*
X145691166Y-84533333D01*
X145691166Y-84533333D02*
X145757833Y-84566666D01*
X145757833Y-84566666D02*
X145924500Y-84566666D01*
X145924500Y-84566666D02*
X145991166Y-84533333D01*
X145991166Y-84533333D02*
X146024500Y-84499999D01*
X146024500Y-84499999D02*
X146057833Y-84433333D01*
X146057833Y-84433333D02*
X146057833Y-84266666D01*
X146057833Y-84266666D02*
X146024500Y-84199999D01*
X146024500Y-84199999D02*
X145991166Y-84166666D01*
X144083333Y-84960500D02*
X144050000Y-84927166D01*
X144050000Y-84927166D02*
X143983333Y-84893833D01*
X143983333Y-84893833D02*
X143816667Y-84893833D01*
X143816667Y-84893833D02*
X143750000Y-84927166D01*
X143750000Y-84927166D02*
X143716667Y-84960500D01*
X143716667Y-84960500D02*
X143683333Y-85027166D01*
X143683333Y-85027166D02*
X143683333Y-85093833D01*
X143683333Y-85093833D02*
X143716667Y-85193833D01*
X143716667Y-85193833D02*
X144116667Y-85593833D01*
X144116667Y-85593833D02*
X143683333Y-85593833D01*
X143416666Y-84960500D02*
X143383333Y-84927166D01*
X143383333Y-84927166D02*
X143316666Y-84893833D01*
X143316666Y-84893833D02*
X143150000Y-84893833D01*
X143150000Y-84893833D02*
X143083333Y-84927166D01*
X143083333Y-84927166D02*
X143050000Y-84960500D01*
X143050000Y-84960500D02*
X143016666Y-85027166D01*
X143016666Y-85027166D02*
X143016666Y-85093833D01*
X143016666Y-85093833D02*
X143050000Y-85193833D01*
X143050000Y-85193833D02*
X143450000Y-85593833D01*
X143450000Y-85593833D02*
X143016666Y-85593833D01*
%TO.C,UR2*%
X154475833Y-80220269D02*
X154475833Y-80939936D01*
X154475833Y-80939936D02*
X154433500Y-81024602D01*
X154433500Y-81024602D02*
X154391166Y-81066936D01*
X154391166Y-81066936D02*
X154306500Y-81109269D01*
X154306500Y-81109269D02*
X154137166Y-81109269D01*
X154137166Y-81109269D02*
X154052500Y-81066936D01*
X154052500Y-81066936D02*
X154010166Y-81024602D01*
X154010166Y-81024602D02*
X153967833Y-80939936D01*
X153967833Y-80939936D02*
X153967833Y-80220269D01*
X153036500Y-81109269D02*
X153332833Y-80685936D01*
X153544500Y-81109269D02*
X153544500Y-80220269D01*
X153544500Y-80220269D02*
X153205833Y-80220269D01*
X153205833Y-80220269D02*
X153121167Y-80262602D01*
X153121167Y-80262602D02*
X153078833Y-80304936D01*
X153078833Y-80304936D02*
X153036500Y-80389602D01*
X153036500Y-80389602D02*
X153036500Y-80516602D01*
X153036500Y-80516602D02*
X153078833Y-80601269D01*
X153078833Y-80601269D02*
X153121167Y-80643602D01*
X153121167Y-80643602D02*
X153205833Y-80685936D01*
X153205833Y-80685936D02*
X153544500Y-80685936D01*
X152697833Y-80304936D02*
X152655500Y-80262602D01*
X152655500Y-80262602D02*
X152570833Y-80220269D01*
X152570833Y-80220269D02*
X152359167Y-80220269D01*
X152359167Y-80220269D02*
X152274500Y-80262602D01*
X152274500Y-80262602D02*
X152232167Y-80304936D01*
X152232167Y-80304936D02*
X152189833Y-80389602D01*
X152189833Y-80389602D02*
X152189833Y-80474269D01*
X152189833Y-80474269D02*
X152232167Y-80601269D01*
X152232167Y-80601269D02*
X152740167Y-81109269D01*
X152740167Y-81109269D02*
X152189833Y-81109269D01*
X151098269Y-77516833D02*
X151098269Y-77093499D01*
X151098269Y-77093499D02*
X151521602Y-77051166D01*
X151521602Y-77051166D02*
X151479269Y-77093499D01*
X151479269Y-77093499D02*
X151436936Y-77178166D01*
X151436936Y-77178166D02*
X151436936Y-77389833D01*
X151436936Y-77389833D02*
X151479269Y-77474499D01*
X151479269Y-77474499D02*
X151521602Y-77516833D01*
X151521602Y-77516833D02*
X151606269Y-77559166D01*
X151606269Y-77559166D02*
X151817936Y-77559166D01*
X151817936Y-77559166D02*
X151902602Y-77516833D01*
X151902602Y-77516833D02*
X151944936Y-77474499D01*
X151944936Y-77474499D02*
X151987269Y-77389833D01*
X151987269Y-77389833D02*
X151987269Y-77178166D01*
X151987269Y-77178166D02*
X151944936Y-77093499D01*
X151944936Y-77093499D02*
X151902602Y-77051166D01*
X151902602Y-77940166D02*
X151944936Y-77982500D01*
X151944936Y-77982500D02*
X151987269Y-77940166D01*
X151987269Y-77940166D02*
X151944936Y-77897833D01*
X151944936Y-77897833D02*
X151902602Y-77940166D01*
X151902602Y-77940166D02*
X151987269Y-77940166D01*
X151987269Y-78829166D02*
X151987269Y-78321166D01*
X151987269Y-78575166D02*
X151098269Y-78575166D01*
X151098269Y-78575166D02*
X151225269Y-78490499D01*
X151225269Y-78490499D02*
X151309936Y-78405833D01*
X151309936Y-78405833D02*
X151352269Y-78321166D01*
X151987269Y-79210166D02*
X151098269Y-79210166D01*
X151648602Y-79294833D02*
X151987269Y-79548833D01*
X151394602Y-79548833D02*
X151733269Y-79210166D01*
D11*
%TO.C,X1*%
X118050000Y-95200000D02*
X118050000Y-92000000D01*
X118050000Y-92000000D02*
X122050000Y-92000000D01*
D10*
%TO.C,D2*%
X114288000Y-64940000D02*
X115812000Y-64940000D01*
X115812000Y-64940000D02*
X115812000Y-59860000D01*
X114288000Y-64813000D02*
X115812000Y-64813000D01*
X115812000Y-64686000D02*
X114288000Y-64686000D01*
X114288000Y-64559000D02*
X115812000Y-64559000D01*
X115812000Y-64432000D02*
X114288000Y-64432000D01*
X114288000Y-64305000D02*
X115812000Y-64305000D01*
X114288000Y-64178000D02*
X115812000Y-64178000D01*
X114288000Y-59860000D02*
X114288000Y-64940000D01*
X115812000Y-59860000D02*
X114288000Y-59860000D01*
%TO.C,D1*%
X112288000Y-64940000D02*
X113812000Y-64940000D01*
X113812000Y-64940000D02*
X113812000Y-59860000D01*
X112288000Y-64813000D02*
X113812000Y-64813000D01*
X113812000Y-64686000D02*
X112288000Y-64686000D01*
X112288000Y-64559000D02*
X113812000Y-64559000D01*
X113812000Y-64432000D02*
X112288000Y-64432000D01*
X112288000Y-64305000D02*
X113812000Y-64305000D01*
X112288000Y-64178000D02*
X113812000Y-64178000D01*
X112288000Y-59860000D02*
X112288000Y-64940000D01*
X113812000Y-59860000D02*
X112288000Y-59860000D01*
D11*
%TO.C,C9*%
X157138748Y-69285000D02*
X157661252Y-69285000D01*
X157138748Y-67815000D02*
X157661252Y-67815000D01*
D12*
%TO.C,UR4*%
X142050000Y-80300000D02*
X142050000Y-82000000D01*
X145050000Y-80300000D02*
X142050000Y-80300000D01*
X145050000Y-80300000D02*
X145050000Y-82000000D01*
X145050000Y-82000000D02*
X142050000Y-82000000D01*
D11*
%TO.C,C7*%
X128011252Y-70990000D02*
X127488748Y-70990000D01*
X128011252Y-72460000D02*
X127488748Y-72460000D01*
D12*
%TO.C,UR1*%
X158825000Y-74510000D02*
X158825000Y-72810000D01*
X155825000Y-74510000D02*
X158825000Y-74510000D01*
X155825000Y-74510000D02*
X155825000Y-72810000D01*
X155825000Y-72810000D02*
X158825000Y-72810000D01*
D11*
%TO.C,R2*%
X112685000Y-76777064D02*
X112685000Y-76322936D01*
X111215000Y-76777064D02*
X111215000Y-76322936D01*
%TO.C,R1*%
X106065000Y-70347936D02*
X106065000Y-70802064D01*
X107535000Y-70347936D02*
X107535000Y-70802064D01*
%TO.C,C3*%
X111190000Y-85338748D02*
X111190000Y-85861252D01*
X112660000Y-85338748D02*
X112660000Y-85861252D01*
D10*
%TO.C,SW50*%
X106075000Y-82025000D02*
G75*
G03*
X106075000Y-82025000I-1000000J0D01*
G01*
X102475000Y-84625000D02*
X107675000Y-84625000D01*
X107675000Y-84625000D02*
X107675000Y-79425000D01*
X102475000Y-79425000D02*
X102475000Y-84625000D01*
X107675000Y-79425000D02*
X102475000Y-79425000D01*
D11*
%TO.C,F1*%
X148702064Y-86390000D02*
X147497936Y-86390000D01*
X148702064Y-88210000D02*
X147497936Y-88210000D01*
%TO.C,C8*%
X129640000Y-81413748D02*
X129640000Y-81936252D01*
X131110000Y-81413748D02*
X131110000Y-81936252D01*
D12*
%TO.C,UR3*%
X153700000Y-85800000D02*
X152000000Y-85800000D01*
X153700000Y-88800000D02*
X153700000Y-85800000D01*
X153700000Y-88800000D02*
X152000000Y-88800000D01*
X152000000Y-88800000D02*
X152000000Y-85800000D01*
D10*
%TO.C,U2*%
X146700000Y-81500000D02*
X146700000Y-83100000D01*
X146700000Y-81500000D02*
X149900000Y-81500000D01*
X146700000Y-83100000D02*
X149900000Y-83100000D01*
X149900000Y-81500000D02*
X149900000Y-83100000D01*
X149900000Y-83500000D02*
X149900000Y-83800000D01*
D11*
%TO.C,C6*%
X111190000Y-72288748D02*
X111190000Y-72811252D01*
X112660000Y-72288748D02*
X112660000Y-72811252D01*
%TO.C,C2*%
X115715000Y-93338748D02*
X115715000Y-93861252D01*
X117185000Y-93338748D02*
X117185000Y-93861252D01*
%TO.C,C5*%
X116538748Y-72835000D02*
X117061252Y-72835000D01*
X116538748Y-71365000D02*
X117061252Y-71365000D01*
D10*
%TO.C,U1*%
X115793750Y-76278750D02*
X115793750Y-76953750D01*
X115793750Y-76278750D02*
X116468750Y-76278750D01*
X115793750Y-86628750D02*
X115793750Y-85953750D01*
X115793750Y-86628750D02*
X116468750Y-86628750D01*
X126143750Y-76278750D02*
X125468750Y-76278750D01*
X126143750Y-76278750D02*
X126143750Y-76853750D01*
X126143750Y-76853750D02*
X127418750Y-76853750D01*
X126143750Y-86628750D02*
X125468750Y-86628750D01*
X126143750Y-86628750D02*
X126143750Y-85953750D01*
D11*
%TO.C,C1*%
X122915000Y-93338748D02*
X122915000Y-93861252D01*
X124385000Y-93338748D02*
X124385000Y-93861252D01*
%TO.C,C4*%
X131085000Y-85941252D02*
X131085000Y-85418748D01*
X129615000Y-85941252D02*
X129615000Y-85418748D01*
D12*
%TO.C,UR5*%
X145050000Y-84500000D02*
X145050000Y-82800000D01*
X142050000Y-84500000D02*
X145050000Y-84500000D01*
X142050000Y-84500000D02*
X142050000Y-82800000D01*
X142050000Y-82800000D02*
X145050000Y-82800000D01*
%TO.C,UR2*%
X154200000Y-76800000D02*
X152500000Y-76800000D01*
X154200000Y-79800000D02*
X154200000Y-76800000D01*
X154200000Y-79800000D02*
X152500000Y-79800000D01*
X152500000Y-79800000D02*
X152500000Y-76800000D01*
%TD*%
M02*
