%TF.GenerationSoftware,KiCad,Pcbnew,7.0.2*%
%TF.CreationDate,2023-06-21T18:27:12-05:00*%
%TF.ProjectId,MXB_INTMCU.kicad_pro,4d58425f-494e-4544-9d43-552e6b696361,rev?*%
%TF.SameCoordinates,Original*%
%TF.FileFunction,Legend,Top*%
%TF.FilePolarity,Positive*%
%FSLAX46Y46*%
G04 Gerber Fmt 4.6, Leading zero omitted, Abs format (unit mm)*
G04 Created by KiCad (PCBNEW 7.0.2) date 2023-06-21 18:27:12*
%MOMM*%
%LPD*%
G01*
G04 APERTURE LIST*
%ADD10C,0.200000*%
%ADD11C,1.600000*%
%ADD12R,1.600000X1.600000*%
G04 APERTURE END LIST*
D10*
X80302380Y-57929776D02*
X80302380Y-56659776D01*
X80302380Y-56659776D02*
X80725714Y-57566919D01*
X80725714Y-57566919D02*
X81149047Y-56659776D01*
X81149047Y-56659776D02*
X81149047Y-57929776D01*
X81753809Y-57929776D02*
X81753809Y-57083109D01*
X81753809Y-56659776D02*
X81693333Y-56720252D01*
X81693333Y-56720252D02*
X81753809Y-56780728D01*
X81753809Y-56780728D02*
X81814286Y-56720252D01*
X81814286Y-56720252D02*
X81753809Y-56659776D01*
X81753809Y-56659776D02*
X81753809Y-56780728D01*
X82358571Y-57929776D02*
X82358571Y-56659776D01*
X82479524Y-57445966D02*
X82842381Y-57929776D01*
X82842381Y-57083109D02*
X82358571Y-57566919D01*
X83870476Y-57869300D02*
X83749524Y-57929776D01*
X83749524Y-57929776D02*
X83507619Y-57929776D01*
X83507619Y-57929776D02*
X83386666Y-57869300D01*
X83386666Y-57869300D02*
X83326190Y-57748347D01*
X83326190Y-57748347D02*
X83326190Y-57264538D01*
X83326190Y-57264538D02*
X83386666Y-57143585D01*
X83386666Y-57143585D02*
X83507619Y-57083109D01*
X83507619Y-57083109D02*
X83749524Y-57083109D01*
X83749524Y-57083109D02*
X83870476Y-57143585D01*
X83870476Y-57143585D02*
X83930952Y-57264538D01*
X83930952Y-57264538D02*
X83930952Y-57385490D01*
X83930952Y-57385490D02*
X83326190Y-57506442D01*
X85866190Y-57264538D02*
X86047618Y-57325014D01*
X86047618Y-57325014D02*
X86108095Y-57385490D01*
X86108095Y-57385490D02*
X86168571Y-57506442D01*
X86168571Y-57506442D02*
X86168571Y-57687871D01*
X86168571Y-57687871D02*
X86108095Y-57808823D01*
X86108095Y-57808823D02*
X86047618Y-57869300D01*
X86047618Y-57869300D02*
X85926666Y-57929776D01*
X85926666Y-57929776D02*
X85442856Y-57929776D01*
X85442856Y-57929776D02*
X85442856Y-56659776D01*
X85442856Y-56659776D02*
X85866190Y-56659776D01*
X85866190Y-56659776D02*
X85987142Y-56720252D01*
X85987142Y-56720252D02*
X86047618Y-56780728D01*
X86047618Y-56780728D02*
X86108095Y-56901680D01*
X86108095Y-56901680D02*
X86108095Y-57022633D01*
X86108095Y-57022633D02*
X86047618Y-57143585D01*
X86047618Y-57143585D02*
X85987142Y-57204061D01*
X85987142Y-57204061D02*
X85866190Y-57264538D01*
X85866190Y-57264538D02*
X85442856Y-57264538D01*
X87257142Y-57929776D02*
X87257142Y-57264538D01*
X87257142Y-57264538D02*
X87196666Y-57143585D01*
X87196666Y-57143585D02*
X87075714Y-57083109D01*
X87075714Y-57083109D02*
X86833809Y-57083109D01*
X86833809Y-57083109D02*
X86712856Y-57143585D01*
X87257142Y-57869300D02*
X87136190Y-57929776D01*
X87136190Y-57929776D02*
X86833809Y-57929776D01*
X86833809Y-57929776D02*
X86712856Y-57869300D01*
X86712856Y-57869300D02*
X86652380Y-57748347D01*
X86652380Y-57748347D02*
X86652380Y-57627395D01*
X86652380Y-57627395D02*
X86712856Y-57506442D01*
X86712856Y-57506442D02*
X86833809Y-57445966D01*
X86833809Y-57445966D02*
X87136190Y-57445966D01*
X87136190Y-57445966D02*
X87257142Y-57385490D01*
X87861904Y-57929776D02*
X87861904Y-57083109D01*
X87861904Y-57325014D02*
X87922381Y-57204061D01*
X87922381Y-57204061D02*
X87982857Y-57143585D01*
X87982857Y-57143585D02*
X88103809Y-57083109D01*
X88103809Y-57083109D02*
X88224762Y-57083109D01*
X88648094Y-57083109D02*
X88648094Y-57929776D01*
X88648094Y-57204061D02*
X88708571Y-57143585D01*
X88708571Y-57143585D02*
X88829523Y-57083109D01*
X88829523Y-57083109D02*
X89010952Y-57083109D01*
X89010952Y-57083109D02*
X89131904Y-57143585D01*
X89131904Y-57143585D02*
X89192380Y-57264538D01*
X89192380Y-57264538D02*
X89192380Y-57929776D01*
X89978571Y-57929776D02*
X89857619Y-57869300D01*
X89857619Y-57869300D02*
X89797142Y-57808823D01*
X89797142Y-57808823D02*
X89736666Y-57687871D01*
X89736666Y-57687871D02*
X89736666Y-57325014D01*
X89736666Y-57325014D02*
X89797142Y-57204061D01*
X89797142Y-57204061D02*
X89857619Y-57143585D01*
X89857619Y-57143585D02*
X89978571Y-57083109D01*
X89978571Y-57083109D02*
X90160000Y-57083109D01*
X90160000Y-57083109D02*
X90280952Y-57143585D01*
X90280952Y-57143585D02*
X90341428Y-57204061D01*
X90341428Y-57204061D02*
X90401904Y-57325014D01*
X90401904Y-57325014D02*
X90401904Y-57687871D01*
X90401904Y-57687871D02*
X90341428Y-57808823D01*
X90341428Y-57808823D02*
X90280952Y-57869300D01*
X90280952Y-57869300D02*
X90160000Y-57929776D01*
X90160000Y-57929776D02*
X89978571Y-57929776D01*
X90885714Y-57869300D02*
X91006667Y-57929776D01*
X91006667Y-57929776D02*
X91248571Y-57929776D01*
X91248571Y-57929776D02*
X91369524Y-57869300D01*
X91369524Y-57869300D02*
X91430000Y-57748347D01*
X91430000Y-57748347D02*
X91430000Y-57687871D01*
X91430000Y-57687871D02*
X91369524Y-57566919D01*
X91369524Y-57566919D02*
X91248571Y-57506442D01*
X91248571Y-57506442D02*
X91067143Y-57506442D01*
X91067143Y-57506442D02*
X90946190Y-57445966D01*
X90946190Y-57445966D02*
X90885714Y-57325014D01*
X90885714Y-57325014D02*
X90885714Y-57264538D01*
X90885714Y-57264538D02*
X90946190Y-57143585D01*
X90946190Y-57143585D02*
X91067143Y-57083109D01*
X91067143Y-57083109D02*
X91248571Y-57083109D01*
X91248571Y-57083109D02*
X91369524Y-57143585D01*
X91974285Y-57929776D02*
X91974285Y-56659776D01*
X92095238Y-57445966D02*
X92458095Y-57929776D01*
X92458095Y-57083109D02*
X91974285Y-57566919D01*
X93002380Y-57929776D02*
X93002380Y-57083109D01*
X93002380Y-56659776D02*
X92941904Y-56720252D01*
X92941904Y-56720252D02*
X93002380Y-56780728D01*
X93002380Y-56780728D02*
X93062857Y-56720252D01*
X93062857Y-56720252D02*
X93002380Y-56659776D01*
X93002380Y-56659776D02*
X93002380Y-56780728D01*
X80302380Y-59987176D02*
X80302380Y-59140509D01*
X80302380Y-59261461D02*
X80362857Y-59200985D01*
X80362857Y-59200985D02*
X80483809Y-59140509D01*
X80483809Y-59140509D02*
X80665238Y-59140509D01*
X80665238Y-59140509D02*
X80786190Y-59200985D01*
X80786190Y-59200985D02*
X80846666Y-59321938D01*
X80846666Y-59321938D02*
X80846666Y-59987176D01*
X80846666Y-59321938D02*
X80907142Y-59200985D01*
X80907142Y-59200985D02*
X81028095Y-59140509D01*
X81028095Y-59140509D02*
X81209523Y-59140509D01*
X81209523Y-59140509D02*
X81330476Y-59200985D01*
X81330476Y-59200985D02*
X81390952Y-59321938D01*
X81390952Y-59321938D02*
X81390952Y-59987176D01*
X81995713Y-59987176D02*
X81995713Y-59140509D01*
X81995713Y-58717176D02*
X81935237Y-58777652D01*
X81935237Y-58777652D02*
X81995713Y-58838128D01*
X81995713Y-58838128D02*
X82056190Y-58777652D01*
X82056190Y-58777652D02*
X81995713Y-58717176D01*
X81995713Y-58717176D02*
X81995713Y-58838128D01*
X82600475Y-59987176D02*
X82600475Y-58717176D01*
X82721428Y-59503366D02*
X83084285Y-59987176D01*
X83084285Y-59140509D02*
X82600475Y-59624319D01*
X84112380Y-59926700D02*
X83991428Y-59987176D01*
X83991428Y-59987176D02*
X83749523Y-59987176D01*
X83749523Y-59987176D02*
X83628570Y-59926700D01*
X83628570Y-59926700D02*
X83568094Y-59805747D01*
X83568094Y-59805747D02*
X83568094Y-59321938D01*
X83568094Y-59321938D02*
X83628570Y-59200985D01*
X83628570Y-59200985D02*
X83749523Y-59140509D01*
X83749523Y-59140509D02*
X83991428Y-59140509D01*
X83991428Y-59140509D02*
X84112380Y-59200985D01*
X84112380Y-59200985D02*
X84172856Y-59321938D01*
X84172856Y-59321938D02*
X84172856Y-59442890D01*
X84172856Y-59442890D02*
X83568094Y-59563842D01*
X84717141Y-59987176D02*
X84717141Y-58717176D01*
X84717141Y-59200985D02*
X84838094Y-59140509D01*
X84838094Y-59140509D02*
X85079999Y-59140509D01*
X85079999Y-59140509D02*
X85200951Y-59200985D01*
X85200951Y-59200985D02*
X85261427Y-59261461D01*
X85261427Y-59261461D02*
X85321903Y-59382414D01*
X85321903Y-59382414D02*
X85321903Y-59745271D01*
X85321903Y-59745271D02*
X85261427Y-59866223D01*
X85261427Y-59866223D02*
X85200951Y-59926700D01*
X85200951Y-59926700D02*
X85079999Y-59987176D01*
X85079999Y-59987176D02*
X84838094Y-59987176D01*
X84838094Y-59987176D02*
X84717141Y-59926700D01*
X86410475Y-59987176D02*
X86410475Y-59321938D01*
X86410475Y-59321938D02*
X86349999Y-59200985D01*
X86349999Y-59200985D02*
X86229047Y-59140509D01*
X86229047Y-59140509D02*
X85987142Y-59140509D01*
X85987142Y-59140509D02*
X85866189Y-59200985D01*
X86410475Y-59926700D02*
X86289523Y-59987176D01*
X86289523Y-59987176D02*
X85987142Y-59987176D01*
X85987142Y-59987176D02*
X85866189Y-59926700D01*
X85866189Y-59926700D02*
X85805713Y-59805747D01*
X85805713Y-59805747D02*
X85805713Y-59684795D01*
X85805713Y-59684795D02*
X85866189Y-59563842D01*
X85866189Y-59563842D02*
X85987142Y-59503366D01*
X85987142Y-59503366D02*
X86289523Y-59503366D01*
X86289523Y-59503366D02*
X86410475Y-59442890D01*
X87015237Y-59987176D02*
X87015237Y-59140509D01*
X87015237Y-59382414D02*
X87075714Y-59261461D01*
X87075714Y-59261461D02*
X87136190Y-59200985D01*
X87136190Y-59200985D02*
X87257142Y-59140509D01*
X87257142Y-59140509D02*
X87378095Y-59140509D01*
X87801427Y-59140509D02*
X87801427Y-59987176D01*
X87801427Y-59261461D02*
X87861904Y-59200985D01*
X87861904Y-59200985D02*
X87982856Y-59140509D01*
X87982856Y-59140509D02*
X88164285Y-59140509D01*
X88164285Y-59140509D02*
X88285237Y-59200985D01*
X88285237Y-59200985D02*
X88345713Y-59321938D01*
X88345713Y-59321938D02*
X88345713Y-59987176D01*
X89131904Y-59987176D02*
X89010952Y-59926700D01*
X89010952Y-59926700D02*
X88950475Y-59866223D01*
X88950475Y-59866223D02*
X88889999Y-59745271D01*
X88889999Y-59745271D02*
X88889999Y-59382414D01*
X88889999Y-59382414D02*
X88950475Y-59261461D01*
X88950475Y-59261461D02*
X89010952Y-59200985D01*
X89010952Y-59200985D02*
X89131904Y-59140509D01*
X89131904Y-59140509D02*
X89313333Y-59140509D01*
X89313333Y-59140509D02*
X89434285Y-59200985D01*
X89434285Y-59200985D02*
X89494761Y-59261461D01*
X89494761Y-59261461D02*
X89555237Y-59382414D01*
X89555237Y-59382414D02*
X89555237Y-59745271D01*
X89555237Y-59745271D02*
X89494761Y-59866223D01*
X89494761Y-59866223D02*
X89434285Y-59926700D01*
X89434285Y-59926700D02*
X89313333Y-59987176D01*
X89313333Y-59987176D02*
X89131904Y-59987176D01*
X90039047Y-59926700D02*
X90160000Y-59987176D01*
X90160000Y-59987176D02*
X90401904Y-59987176D01*
X90401904Y-59987176D02*
X90522857Y-59926700D01*
X90522857Y-59926700D02*
X90583333Y-59805747D01*
X90583333Y-59805747D02*
X90583333Y-59745271D01*
X90583333Y-59745271D02*
X90522857Y-59624319D01*
X90522857Y-59624319D02*
X90401904Y-59563842D01*
X90401904Y-59563842D02*
X90220476Y-59563842D01*
X90220476Y-59563842D02*
X90099523Y-59503366D01*
X90099523Y-59503366D02*
X90039047Y-59382414D01*
X90039047Y-59382414D02*
X90039047Y-59321938D01*
X90039047Y-59321938D02*
X90099523Y-59200985D01*
X90099523Y-59200985D02*
X90220476Y-59140509D01*
X90220476Y-59140509D02*
X90401904Y-59140509D01*
X90401904Y-59140509D02*
X90522857Y-59200985D01*
X91127618Y-59987176D02*
X91127618Y-58717176D01*
X91248571Y-59503366D02*
X91611428Y-59987176D01*
X91611428Y-59140509D02*
X91127618Y-59624319D01*
X92155713Y-59987176D02*
X92155713Y-59140509D01*
X92155713Y-58717176D02*
X92095237Y-58777652D01*
X92095237Y-58777652D02*
X92155713Y-58838128D01*
X92155713Y-58838128D02*
X92216190Y-58777652D01*
X92216190Y-58777652D02*
X92155713Y-58717176D01*
X92155713Y-58717176D02*
X92155713Y-58838128D01*
X93546666Y-59382414D02*
X93486190Y-59321938D01*
X93486190Y-59321938D02*
X93365237Y-59261461D01*
X93365237Y-59261461D02*
X93244285Y-59261461D01*
X93244285Y-59261461D02*
X93123333Y-59321938D01*
X93123333Y-59321938D02*
X93062856Y-59382414D01*
X93062856Y-59382414D02*
X93002380Y-59503366D01*
X93002380Y-59503366D02*
X93002380Y-59624319D01*
X93002380Y-59624319D02*
X93062856Y-59745271D01*
X93062856Y-59745271D02*
X93123333Y-59805747D01*
X93123333Y-59805747D02*
X93244285Y-59866223D01*
X93244285Y-59866223D02*
X93365237Y-59866223D01*
X93365237Y-59866223D02*
X93486190Y-59805747D01*
X93486190Y-59805747D02*
X93546666Y-59745271D01*
X93546666Y-59261461D02*
X93546666Y-59745271D01*
X93546666Y-59745271D02*
X93607142Y-59805747D01*
X93607142Y-59805747D02*
X93667618Y-59805747D01*
X93667618Y-59805747D02*
X93788571Y-59745271D01*
X93788571Y-59745271D02*
X93849047Y-59624319D01*
X93849047Y-59624319D02*
X93849047Y-59321938D01*
X93849047Y-59321938D02*
X93728095Y-59140509D01*
X93728095Y-59140509D02*
X93546666Y-59019557D01*
X93546666Y-59019557D02*
X93304761Y-58959080D01*
X93304761Y-58959080D02*
X93062856Y-59019557D01*
X93062856Y-59019557D02*
X92881428Y-59140509D01*
X92881428Y-59140509D02*
X92760475Y-59321938D01*
X92760475Y-59321938D02*
X92699999Y-59563842D01*
X92699999Y-59563842D02*
X92760475Y-59805747D01*
X92760475Y-59805747D02*
X92881428Y-59987176D01*
X92881428Y-59987176D02*
X93062856Y-60108128D01*
X93062856Y-60108128D02*
X93304761Y-60168604D01*
X93304761Y-60168604D02*
X93546666Y-60108128D01*
X93546666Y-60108128D02*
X93728095Y-59987176D01*
X94937618Y-59140509D02*
X94937618Y-60168604D01*
X94937618Y-60168604D02*
X94877142Y-60289557D01*
X94877142Y-60289557D02*
X94816666Y-60350033D01*
X94816666Y-60350033D02*
X94695713Y-60410509D01*
X94695713Y-60410509D02*
X94514285Y-60410509D01*
X94514285Y-60410509D02*
X94393332Y-60350033D01*
X94937618Y-59926700D02*
X94816666Y-59987176D01*
X94816666Y-59987176D02*
X94574761Y-59987176D01*
X94574761Y-59987176D02*
X94453809Y-59926700D01*
X94453809Y-59926700D02*
X94393332Y-59866223D01*
X94393332Y-59866223D02*
X94332856Y-59745271D01*
X94332856Y-59745271D02*
X94332856Y-59382414D01*
X94332856Y-59382414D02*
X94393332Y-59261461D01*
X94393332Y-59261461D02*
X94453809Y-59200985D01*
X94453809Y-59200985D02*
X94574761Y-59140509D01*
X94574761Y-59140509D02*
X94816666Y-59140509D01*
X94816666Y-59140509D02*
X94937618Y-59200985D01*
X95542380Y-59987176D02*
X95542380Y-59140509D01*
X95542380Y-59261461D02*
X95602857Y-59200985D01*
X95602857Y-59200985D02*
X95723809Y-59140509D01*
X95723809Y-59140509D02*
X95905238Y-59140509D01*
X95905238Y-59140509D02*
X96026190Y-59200985D01*
X96026190Y-59200985D02*
X96086666Y-59321938D01*
X96086666Y-59321938D02*
X96086666Y-59987176D01*
X96086666Y-59321938D02*
X96147142Y-59200985D01*
X96147142Y-59200985D02*
X96268095Y-59140509D01*
X96268095Y-59140509D02*
X96449523Y-59140509D01*
X96449523Y-59140509D02*
X96570476Y-59200985D01*
X96570476Y-59200985D02*
X96630952Y-59321938D01*
X96630952Y-59321938D02*
X96630952Y-59987176D01*
X97779999Y-59987176D02*
X97779999Y-59321938D01*
X97779999Y-59321938D02*
X97719523Y-59200985D01*
X97719523Y-59200985D02*
X97598571Y-59140509D01*
X97598571Y-59140509D02*
X97356666Y-59140509D01*
X97356666Y-59140509D02*
X97235713Y-59200985D01*
X97779999Y-59926700D02*
X97659047Y-59987176D01*
X97659047Y-59987176D02*
X97356666Y-59987176D01*
X97356666Y-59987176D02*
X97235713Y-59926700D01*
X97235713Y-59926700D02*
X97175237Y-59805747D01*
X97175237Y-59805747D02*
X97175237Y-59684795D01*
X97175237Y-59684795D02*
X97235713Y-59563842D01*
X97235713Y-59563842D02*
X97356666Y-59503366D01*
X97356666Y-59503366D02*
X97659047Y-59503366D01*
X97659047Y-59503366D02*
X97779999Y-59442890D01*
X98384761Y-59987176D02*
X98384761Y-59140509D01*
X98384761Y-58717176D02*
X98324285Y-58777652D01*
X98324285Y-58777652D02*
X98384761Y-58838128D01*
X98384761Y-58838128D02*
X98445238Y-58777652D01*
X98445238Y-58777652D02*
X98384761Y-58717176D01*
X98384761Y-58717176D02*
X98384761Y-58838128D01*
X99170952Y-59987176D02*
X99050000Y-59926700D01*
X99050000Y-59926700D02*
X98989523Y-59805747D01*
X98989523Y-59805747D02*
X98989523Y-58717176D01*
X99654761Y-59866223D02*
X99715238Y-59926700D01*
X99715238Y-59926700D02*
X99654761Y-59987176D01*
X99654761Y-59987176D02*
X99594285Y-59926700D01*
X99594285Y-59926700D02*
X99654761Y-59866223D01*
X99654761Y-59866223D02*
X99654761Y-59987176D01*
X100803809Y-59926700D02*
X100682857Y-59987176D01*
X100682857Y-59987176D02*
X100440952Y-59987176D01*
X100440952Y-59987176D02*
X100320000Y-59926700D01*
X100320000Y-59926700D02*
X100259523Y-59866223D01*
X100259523Y-59866223D02*
X100199047Y-59745271D01*
X100199047Y-59745271D02*
X100199047Y-59382414D01*
X100199047Y-59382414D02*
X100259523Y-59261461D01*
X100259523Y-59261461D02*
X100320000Y-59200985D01*
X100320000Y-59200985D02*
X100440952Y-59140509D01*
X100440952Y-59140509D02*
X100682857Y-59140509D01*
X100682857Y-59140509D02*
X100803809Y-59200985D01*
X101529523Y-59987176D02*
X101408571Y-59926700D01*
X101408571Y-59926700D02*
X101348094Y-59866223D01*
X101348094Y-59866223D02*
X101287618Y-59745271D01*
X101287618Y-59745271D02*
X101287618Y-59382414D01*
X101287618Y-59382414D02*
X101348094Y-59261461D01*
X101348094Y-59261461D02*
X101408571Y-59200985D01*
X101408571Y-59200985D02*
X101529523Y-59140509D01*
X101529523Y-59140509D02*
X101710952Y-59140509D01*
X101710952Y-59140509D02*
X101831904Y-59200985D01*
X101831904Y-59200985D02*
X101892380Y-59261461D01*
X101892380Y-59261461D02*
X101952856Y-59382414D01*
X101952856Y-59382414D02*
X101952856Y-59745271D01*
X101952856Y-59745271D02*
X101892380Y-59866223D01*
X101892380Y-59866223D02*
X101831904Y-59926700D01*
X101831904Y-59926700D02*
X101710952Y-59987176D01*
X101710952Y-59987176D02*
X101529523Y-59987176D01*
X102497142Y-59987176D02*
X102497142Y-59140509D01*
X102497142Y-59261461D02*
X102557619Y-59200985D01*
X102557619Y-59200985D02*
X102678571Y-59140509D01*
X102678571Y-59140509D02*
X102860000Y-59140509D01*
X102860000Y-59140509D02*
X102980952Y-59200985D01*
X102980952Y-59200985D02*
X103041428Y-59321938D01*
X103041428Y-59321938D02*
X103041428Y-59987176D01*
X103041428Y-59321938D02*
X103101904Y-59200985D01*
X103101904Y-59200985D02*
X103222857Y-59140509D01*
X103222857Y-59140509D02*
X103404285Y-59140509D01*
X103404285Y-59140509D02*
X103525238Y-59200985D01*
X103525238Y-59200985D02*
X103585714Y-59321938D01*
X103585714Y-59321938D02*
X103585714Y-59987176D01*
X80846666Y-61197909D02*
X80846666Y-62226004D01*
X80846666Y-62226004D02*
X80786190Y-62346957D01*
X80786190Y-62346957D02*
X80725714Y-62407433D01*
X80725714Y-62407433D02*
X80604761Y-62467909D01*
X80604761Y-62467909D02*
X80423333Y-62467909D01*
X80423333Y-62467909D02*
X80302380Y-62407433D01*
X80846666Y-61984100D02*
X80725714Y-62044576D01*
X80725714Y-62044576D02*
X80483809Y-62044576D01*
X80483809Y-62044576D02*
X80362857Y-61984100D01*
X80362857Y-61984100D02*
X80302380Y-61923623D01*
X80302380Y-61923623D02*
X80241904Y-61802671D01*
X80241904Y-61802671D02*
X80241904Y-61439814D01*
X80241904Y-61439814D02*
X80302380Y-61318861D01*
X80302380Y-61318861D02*
X80362857Y-61258385D01*
X80362857Y-61258385D02*
X80483809Y-61197909D01*
X80483809Y-61197909D02*
X80725714Y-61197909D01*
X80725714Y-61197909D02*
X80846666Y-61258385D01*
X81451428Y-62044576D02*
X81451428Y-61197909D01*
X81451428Y-60774576D02*
X81390952Y-60835052D01*
X81390952Y-60835052D02*
X81451428Y-60895528D01*
X81451428Y-60895528D02*
X81511905Y-60835052D01*
X81511905Y-60835052D02*
X81451428Y-60774576D01*
X81451428Y-60774576D02*
X81451428Y-60895528D01*
X81874762Y-61197909D02*
X82358571Y-61197909D01*
X82056190Y-60774576D02*
X82056190Y-61863147D01*
X82056190Y-61863147D02*
X82116667Y-61984100D01*
X82116667Y-61984100D02*
X82237619Y-62044576D01*
X82237619Y-62044576D02*
X82358571Y-62044576D01*
X82781904Y-62044576D02*
X82781904Y-60774576D01*
X83326190Y-62044576D02*
X83326190Y-61379338D01*
X83326190Y-61379338D02*
X83265714Y-61258385D01*
X83265714Y-61258385D02*
X83144762Y-61197909D01*
X83144762Y-61197909D02*
X82963333Y-61197909D01*
X82963333Y-61197909D02*
X82842381Y-61258385D01*
X82842381Y-61258385D02*
X82781904Y-61318861D01*
X84475238Y-61197909D02*
X84475238Y-62044576D01*
X83930952Y-61197909D02*
X83930952Y-61863147D01*
X83930952Y-61863147D02*
X83991429Y-61984100D01*
X83991429Y-61984100D02*
X84112381Y-62044576D01*
X84112381Y-62044576D02*
X84293810Y-62044576D01*
X84293810Y-62044576D02*
X84414762Y-61984100D01*
X84414762Y-61984100D02*
X84475238Y-61923623D01*
X85080000Y-62044576D02*
X85080000Y-60774576D01*
X85080000Y-61258385D02*
X85200953Y-61197909D01*
X85200953Y-61197909D02*
X85442858Y-61197909D01*
X85442858Y-61197909D02*
X85563810Y-61258385D01*
X85563810Y-61258385D02*
X85624286Y-61318861D01*
X85624286Y-61318861D02*
X85684762Y-61439814D01*
X85684762Y-61439814D02*
X85684762Y-61802671D01*
X85684762Y-61802671D02*
X85624286Y-61923623D01*
X85624286Y-61923623D02*
X85563810Y-61984100D01*
X85563810Y-61984100D02*
X85442858Y-62044576D01*
X85442858Y-62044576D02*
X85200953Y-62044576D01*
X85200953Y-62044576D02*
X85080000Y-61984100D01*
X87136191Y-60714100D02*
X86047620Y-62346957D01*
X87559524Y-62044576D02*
X87559524Y-61197909D01*
X87559524Y-61318861D02*
X87620001Y-61258385D01*
X87620001Y-61258385D02*
X87740953Y-61197909D01*
X87740953Y-61197909D02*
X87922382Y-61197909D01*
X87922382Y-61197909D02*
X88043334Y-61258385D01*
X88043334Y-61258385D02*
X88103810Y-61379338D01*
X88103810Y-61379338D02*
X88103810Y-62044576D01*
X88103810Y-61379338D02*
X88164286Y-61258385D01*
X88164286Y-61258385D02*
X88285239Y-61197909D01*
X88285239Y-61197909D02*
X88466667Y-61197909D01*
X88466667Y-61197909D02*
X88587620Y-61258385D01*
X88587620Y-61258385D02*
X88648096Y-61379338D01*
X88648096Y-61379338D02*
X88648096Y-62044576D01*
X89252857Y-62044576D02*
X89252857Y-61197909D01*
X89252857Y-60774576D02*
X89192381Y-60835052D01*
X89192381Y-60835052D02*
X89252857Y-60895528D01*
X89252857Y-60895528D02*
X89313334Y-60835052D01*
X89313334Y-60835052D02*
X89252857Y-60774576D01*
X89252857Y-60774576D02*
X89252857Y-60895528D01*
X89857619Y-62044576D02*
X89857619Y-60774576D01*
X89978572Y-61560766D02*
X90341429Y-62044576D01*
X90341429Y-61197909D02*
X89857619Y-61681719D01*
X91369524Y-61984100D02*
X91248572Y-62044576D01*
X91248572Y-62044576D02*
X91006667Y-62044576D01*
X91006667Y-62044576D02*
X90885714Y-61984100D01*
X90885714Y-61984100D02*
X90825238Y-61863147D01*
X90825238Y-61863147D02*
X90825238Y-61379338D01*
X90825238Y-61379338D02*
X90885714Y-61258385D01*
X90885714Y-61258385D02*
X91006667Y-61197909D01*
X91006667Y-61197909D02*
X91248572Y-61197909D01*
X91248572Y-61197909D02*
X91369524Y-61258385D01*
X91369524Y-61258385D02*
X91430000Y-61379338D01*
X91430000Y-61379338D02*
X91430000Y-61500290D01*
X91430000Y-61500290D02*
X90825238Y-61621242D01*
X91792857Y-61197909D02*
X92276666Y-61197909D01*
X91974285Y-60774576D02*
X91974285Y-61863147D01*
X91974285Y-61863147D02*
X92034762Y-61984100D01*
X92034762Y-61984100D02*
X92155714Y-62044576D01*
X92155714Y-62044576D02*
X92276666Y-62044576D01*
X92699999Y-62044576D02*
X92699999Y-61197909D01*
X92699999Y-61439814D02*
X92760476Y-61318861D01*
X92760476Y-61318861D02*
X92820952Y-61258385D01*
X92820952Y-61258385D02*
X92941904Y-61197909D01*
X92941904Y-61197909D02*
X93062857Y-61197909D01*
X93667618Y-62044576D02*
X93546666Y-61984100D01*
X93546666Y-61984100D02*
X93486189Y-61923623D01*
X93486189Y-61923623D02*
X93425713Y-61802671D01*
X93425713Y-61802671D02*
X93425713Y-61439814D01*
X93425713Y-61439814D02*
X93486189Y-61318861D01*
X93486189Y-61318861D02*
X93546666Y-61258385D01*
X93546666Y-61258385D02*
X93667618Y-61197909D01*
X93667618Y-61197909D02*
X93849047Y-61197909D01*
X93849047Y-61197909D02*
X93969999Y-61258385D01*
X93969999Y-61258385D02*
X94030475Y-61318861D01*
X94030475Y-61318861D02*
X94090951Y-61439814D01*
X94090951Y-61439814D02*
X94090951Y-61802671D01*
X94090951Y-61802671D02*
X94030475Y-61923623D01*
X94030475Y-61923623D02*
X93969999Y-61984100D01*
X93969999Y-61984100D02*
X93849047Y-62044576D01*
X93849047Y-62044576D02*
X93667618Y-62044576D01*
X94635237Y-61197909D02*
X94635237Y-62044576D01*
X94635237Y-61318861D02*
X94695714Y-61258385D01*
X94695714Y-61258385D02*
X94816666Y-61197909D01*
X94816666Y-61197909D02*
X94998095Y-61197909D01*
X94998095Y-61197909D02*
X95119047Y-61258385D01*
X95119047Y-61258385D02*
X95179523Y-61379338D01*
X95179523Y-61379338D02*
X95179523Y-62044576D01*
X95784285Y-62044576D02*
X95784285Y-61197909D01*
X95784285Y-60774576D02*
X95723809Y-60835052D01*
X95723809Y-60835052D02*
X95784285Y-60895528D01*
X95784285Y-60895528D02*
X95844762Y-60835052D01*
X95844762Y-60835052D02*
X95784285Y-60774576D01*
X95784285Y-60774576D02*
X95784285Y-60895528D01*
X96933333Y-61984100D02*
X96812381Y-62044576D01*
X96812381Y-62044576D02*
X96570476Y-62044576D01*
X96570476Y-62044576D02*
X96449524Y-61984100D01*
X96449524Y-61984100D02*
X96389047Y-61923623D01*
X96389047Y-61923623D02*
X96328571Y-61802671D01*
X96328571Y-61802671D02*
X96328571Y-61439814D01*
X96328571Y-61439814D02*
X96389047Y-61318861D01*
X96389047Y-61318861D02*
X96449524Y-61258385D01*
X96449524Y-61258385D02*
X96570476Y-61197909D01*
X96570476Y-61197909D02*
X96812381Y-61197909D01*
X96812381Y-61197909D02*
X96933333Y-61258385D01*
D11*
%TO.C,D2*%
X115050000Y-58500000D03*
D12*
X115050000Y-66300000D03*
%TD*%
D11*
%TO.C,D1*%
X113050000Y-58500000D03*
D12*
X113050000Y-66300000D03*
%TD*%
M02*
