%TF.GenerationSoftware,KiCad,Pcbnew,7.0.2*%
%TF.CreationDate,2023-06-21T18:27:12-05:00*%
%TF.ProjectId,MXB_INTMCU.kicad_pro,4d58425f-494e-4544-9d43-552e6b696361,rev?*%
%TF.SameCoordinates,Original*%
%TF.FileFunction,Paste,Bot*%
%TF.FilePolarity,Positive*%
%FSLAX46Y46*%
G04 Gerber Fmt 4.6, Leading zero omitted, Abs format (unit mm)*
G04 Created by KiCad (PCBNEW 7.0.2) date 2023-06-21 18:27:12*
%MOMM*%
%LPD*%
G01*
G04 APERTURE LIST*
G04 Aperture macros list*
%AMRoundRect*
0 Rectangle with rounded corners*
0 $1 Rounding radius*
0 $2 $3 $4 $5 $6 $7 $8 $9 X,Y pos of 4 corners*
0 Add a 4 corners polygon primitive as box body*
4,1,4,$2,$3,$4,$5,$6,$7,$8,$9,$2,$3,0*
0 Add four circle primitives for the rounded corners*
1,1,$1+$1,$2,$3*
1,1,$1+$1,$4,$5*
1,1,$1+$1,$6,$7*
1,1,$1+$1,$8,$9*
0 Add four rect primitives between the rounded corners*
20,1,$1+$1,$2,$3,$4,$5,0*
20,1,$1+$1,$4,$5,$6,$7,0*
20,1,$1+$1,$6,$7,$8,$9,0*
20,1,$1+$1,$8,$9,$2,$3,0*%
G04 Aperture macros list end*
%ADD10R,1.400000X1.200000*%
%ADD11R,1.200000X1.600000*%
%ADD12RoundRect,0.050000X-0.725000X0.300000X-0.725000X-0.300000X0.725000X-0.300000X0.725000X0.300000X0*%
%ADD13RoundRect,0.050000X-0.725000X0.150000X-0.725000X-0.150000X0.725000X-0.150000X0.725000X0.150000X0*%
%ADD14RoundRect,0.250000X-0.250000X-0.475000X0.250000X-0.475000X0.250000X0.475000X-0.250000X0.475000X0*%
%ADD15R,0.700000X1.300000*%
%ADD16RoundRect,0.250000X0.250000X0.475000X-0.250000X0.475000X-0.250000X-0.475000X0.250000X-0.475000X0*%
%ADD17RoundRect,0.250000X0.450000X-0.262500X0.450000X0.262500X-0.450000X0.262500X-0.450000X-0.262500X0*%
%ADD18RoundRect,0.250000X-0.450000X0.262500X-0.450000X-0.262500X0.450000X-0.262500X0.450000X0.262500X0*%
%ADD19RoundRect,0.250000X-0.475000X0.250000X-0.475000X-0.250000X0.475000X-0.250000X0.475000X0.250000X0*%
%ADD20R,1.100000X1.800000*%
%ADD21RoundRect,0.250000X0.375000X0.625000X-0.375000X0.625000X-0.375000X-0.625000X0.375000X-0.625000X0*%
%ADD22R,1.300000X0.700000*%
%ADD23R,0.600000X0.700000*%
%ADD24R,1.000000X0.700000*%
%ADD25R,0.550000X1.500000*%
%ADD26R,1.500000X0.550000*%
%ADD27RoundRect,0.250000X0.475000X-0.250000X0.475000X0.250000X-0.475000X0.250000X-0.475000X-0.250000X0*%
G04 APERTURE END LIST*
D10*
%TO.C,X1*%
X118950000Y-92800000D03*
X121150000Y-92800000D03*
X121150000Y-94400000D03*
X118950000Y-94400000D03*
%TD*%
D11*
%TO.C,D2*%
X115050000Y-61000000D03*
X115050000Y-63800000D03*
%TD*%
%TO.C,D1*%
X113050000Y-61000000D03*
X113050000Y-63800000D03*
%TD*%
D12*
%TO.C,USB1*%
X157717500Y-86035000D03*
X157717500Y-85260000D03*
D13*
X157717500Y-84560000D03*
X157717500Y-84060000D03*
X157717500Y-83560000D03*
X157717500Y-83060000D03*
X157717500Y-82560000D03*
X157717500Y-82060000D03*
X157717500Y-81560000D03*
X157717500Y-81060000D03*
D12*
X157717500Y-80360000D03*
X157717500Y-79585000D03*
%TD*%
D14*
%TO.C,C9*%
X158350000Y-68550000D03*
X156450000Y-68550000D03*
%TD*%
D15*
%TO.C,UR4*%
X142600000Y-81150000D03*
X144500000Y-81150000D03*
%TD*%
D16*
%TO.C,C7*%
X126800000Y-71725000D03*
X128700000Y-71725000D03*
%TD*%
D15*
%TO.C,UR1*%
X158275000Y-73660000D03*
X156375000Y-73660000D03*
%TD*%
D17*
%TO.C,R2*%
X111950000Y-75637500D03*
X111950000Y-77462500D03*
%TD*%
D18*
%TO.C,R1*%
X106800000Y-71487500D03*
X106800000Y-69662500D03*
%TD*%
D19*
%TO.C,C3*%
X111925000Y-86550000D03*
X111925000Y-84650000D03*
%TD*%
D20*
%TO.C,SW50*%
X106925000Y-78925000D03*
X103225000Y-85125000D03*
X103225000Y-78925000D03*
X106925000Y-85125000D03*
%TD*%
D21*
%TO.C,F1*%
X146700000Y-87300000D03*
X149500000Y-87300000D03*
%TD*%
D19*
%TO.C,C8*%
X130375000Y-82625000D03*
X130375000Y-80725000D03*
%TD*%
D22*
%TO.C,UR3*%
X152850000Y-86350000D03*
X152850000Y-88250000D03*
%TD*%
D23*
%TO.C,U2*%
X149250000Y-81300000D03*
X147350000Y-81300000D03*
X147350000Y-83300000D03*
D24*
X149050000Y-83300000D03*
%TD*%
D19*
%TO.C,C6*%
X111925000Y-73500000D03*
X111925000Y-71600000D03*
%TD*%
%TO.C,C2*%
X116450000Y-94550000D03*
X116450000Y-92650000D03*
%TD*%
D14*
%TO.C,C5*%
X117750000Y-72100000D03*
X115850000Y-72100000D03*
%TD*%
D25*
%TO.C,U1*%
X124968750Y-75753750D03*
X124168750Y-75753750D03*
X123368750Y-75753750D03*
X122568750Y-75753750D03*
X121768750Y-75753750D03*
X120968750Y-75753750D03*
X120168750Y-75753750D03*
X119368750Y-75753750D03*
X118568750Y-75753750D03*
X117768750Y-75753750D03*
X116968750Y-75753750D03*
D26*
X115268750Y-77453750D03*
X115268750Y-78253750D03*
X115268750Y-79053750D03*
X115268750Y-79853750D03*
X115268750Y-80653750D03*
X115268750Y-81453750D03*
X115268750Y-82253750D03*
X115268750Y-83053750D03*
X115268750Y-83853750D03*
X115268750Y-84653750D03*
X115268750Y-85453750D03*
D25*
X116968750Y-87153750D03*
X117768750Y-87153750D03*
X118568750Y-87153750D03*
X119368750Y-87153750D03*
X120168750Y-87153750D03*
X120968750Y-87153750D03*
X121768750Y-87153750D03*
X122568750Y-87153750D03*
X123368750Y-87153750D03*
X124168750Y-87153750D03*
X124968750Y-87153750D03*
D26*
X126668750Y-85453750D03*
X126668750Y-84653750D03*
X126668750Y-83853750D03*
X126668750Y-83053750D03*
X126668750Y-82253750D03*
X126668750Y-81453750D03*
X126668750Y-80653750D03*
X126668750Y-79853750D03*
X126668750Y-79053750D03*
X126668750Y-78253750D03*
X126668750Y-77453750D03*
%TD*%
D19*
%TO.C,C1*%
X123650000Y-94550000D03*
X123650000Y-92650000D03*
%TD*%
D27*
%TO.C,C4*%
X130350000Y-84730000D03*
X130350000Y-86630000D03*
%TD*%
D15*
%TO.C,UR5*%
X144500000Y-83650000D03*
X142600000Y-83650000D03*
%TD*%
D22*
%TO.C,UR2*%
X153350000Y-77350000D03*
X153350000Y-79250000D03*
%TD*%
M02*
