%TF.GenerationSoftware,KiCad,Pcbnew,7.0.2*%
%TF.CreationDate,2023-06-21T18:27:12-05:00*%
%TF.ProjectId,MXB_INTMCU.kicad_pro,4d58425f-494e-4544-9d43-552e6b696361,rev?*%
%TF.SameCoordinates,Original*%
%TF.FileFunction,Copper,L1,Top*%
%TF.FilePolarity,Positive*%
%FSLAX46Y46*%
G04 Gerber Fmt 4.6, Leading zero omitted, Abs format (unit mm)*
G04 Created by KiCad (PCBNEW 7.0.2) date 2023-06-21 18:27:12*
%MOMM*%
%LPD*%
G01*
G04 APERTURE LIST*
%TA.AperFunction,ComponentPad*%
%ADD10C,1.600000*%
%TD*%
%TA.AperFunction,ComponentPad*%
%ADD11R,1.600000X1.600000*%
%TD*%
%TA.AperFunction,ComponentPad*%
%ADD12C,2.000000*%
%TD*%
%TA.AperFunction,ComponentPad*%
%ADD13O,2.100000X1.000000*%
%TD*%
%TA.AperFunction,ComponentPad*%
%ADD14O,1.600000X1.000000*%
%TD*%
%TA.AperFunction,ViaPad*%
%ADD15C,0.800000*%
%TD*%
%TA.AperFunction,Conductor*%
%ADD16C,0.600000*%
%TD*%
%TA.AperFunction,Conductor*%
%ADD17C,0.250000*%
%TD*%
G04 APERTURE END LIST*
D10*
%TO.P,D2,2*%
%TO.N,Net-(D2-Pad2)*%
X115050000Y-58500000D03*
D11*
%TO.P,D2,1*%
%TO.N,ROW0*%
X115050000Y-66300000D03*
%TD*%
D12*
%TO.P,SW1,2*%
%TO.N,COL0*%
X139650000Y-56900000D03*
%TO.P,SW1,1*%
%TO.N,Net-(D1-Pad2)*%
X137550000Y-61900000D03*
%TD*%
D10*
%TO.P,D1,2*%
%TO.N,Net-(D1-Pad2)*%
X113050000Y-58500000D03*
D11*
%TO.P,D1,1*%
%TO.N,ROW0*%
X113050000Y-66300000D03*
%TD*%
D12*
%TO.P,SW2,2*%
%TO.N,COL1*%
X122650000Y-56900000D03*
%TO.P,SW2,1*%
%TO.N,Net-(D2-Pad2)*%
X120550000Y-61900000D03*
%TD*%
D13*
%TO.P,USB1,13,SHIELD*%
%TO.N,Net-(USB1-SHIELD)*%
X158632500Y-87130000D03*
D14*
X162812500Y-87130000D03*
D13*
X158632500Y-78490000D03*
D14*
X162812500Y-78490000D03*
%TD*%
D15*
%TO.N,GND*%
X135050000Y-85800000D03*
X135050000Y-77350000D03*
%TO.N,COL0*%
X108250497Y-70700000D03*
%TO.N,COL1*%
X109250000Y-70700000D03*
%TO.N,GND*%
X106275000Y-99275000D03*
X106075000Y-91175000D03*
X126275000Y-98050000D03*
X117725000Y-99175000D03*
%TO.N,VCC*%
X151100000Y-81300000D03*
%TO.N,+5V*%
X128975000Y-90800000D03*
X133288000Y-71554000D03*
X112100000Y-69375000D03*
X134050000Y-87375000D03*
X115825000Y-69375000D03*
%TO.N,VCC*%
X151100000Y-87300000D03*
%TO.N,+5V*%
X110150000Y-84675000D03*
%TO.N,VCC*%
X155850000Y-80300000D03*
%TD*%
D16*
%TO.N,+5V*%
X133288000Y-86613000D02*
X134050000Y-87375000D01*
X133288000Y-71554000D02*
X133288000Y-86613000D01*
X134050000Y-89350000D02*
X132600000Y-90800000D01*
X134050000Y-87375000D02*
X134050000Y-89350000D01*
X132600000Y-90800000D02*
X128975000Y-90800000D01*
%TO.N,GND*%
X135050000Y-77350000D02*
X135050000Y-85800000D01*
%TO.N,+5V*%
X130175000Y-69375000D02*
X115825000Y-69375000D01*
X132354000Y-71554000D02*
X130175000Y-69375000D01*
X133288000Y-71554000D02*
X132354000Y-71554000D01*
D17*
%TO.N,COL0*%
X114247613Y-55075000D02*
X137825000Y-55075000D01*
X137825000Y-55075000D02*
X139650000Y-56900000D01*
X108250497Y-70700000D02*
X108250497Y-61072116D01*
X108250497Y-61072116D02*
X114247613Y-55075000D01*
%TO.N,COL1*%
X109250000Y-60709009D02*
X113059009Y-56900000D01*
X113059009Y-56900000D02*
X122650000Y-56900000D01*
X109250000Y-70700000D02*
X109250000Y-60709009D01*
D16*
%TO.N,+5V*%
X115825000Y-69375000D02*
X111475000Y-69375000D01*
%TO.N,VCC*%
X151100000Y-81300000D02*
X154850000Y-81300000D01*
%TO.N,+5V*%
X111475000Y-69375000D02*
X110150000Y-70700000D01*
%TO.N,VCC*%
X151100000Y-87300000D02*
X151100000Y-81300000D01*
%TO.N,+5V*%
X110150000Y-70700000D02*
X110150000Y-84675000D01*
%TO.N,VCC*%
X154850000Y-81300000D02*
X155850000Y-80300000D01*
%TD*%
%TA.AperFunction,Conductor*%
%TO.N,GND*%
G36*
X125173460Y-88845685D02*
G01*
X125196720Y-88865017D01*
X129666486Y-93614390D01*
X129698097Y-93676700D01*
X129700186Y-93698900D01*
X129731525Y-101909527D01*
X129712097Y-101976641D01*
X129659468Y-102022597D01*
X129607526Y-102034000D01*
X126625000Y-102034000D01*
X102424000Y-102034000D01*
X102356961Y-102014315D01*
X102311206Y-101961511D01*
X102300000Y-101910000D01*
X102300000Y-88950000D01*
X102319685Y-88882961D01*
X102372489Y-88837206D01*
X102424000Y-88826000D01*
X125106421Y-88826000D01*
X125173460Y-88845685D01*
G37*
%TD.AperFunction*%
%TD*%
M02*
